<?xml version="1.0" encoding="utf-8"?>
<COLLADA xmlns="http://www.collada.org/2005/11/COLLADASchema" version="1.4.1" xmlns:xsi="http://www.w3.org/2001/XMLSchema-instance">
  <asset>
    <contributor>
      <author>Blender User</author>
      <authoring_tool>Blender 4.5.4 LTS commit date:2025-10-27, commit time:12:46, hash:b3efe983cc58</authoring_tool>
    </contributor>
    <created>2026-08-04T00:10:06</created>
    <modified>2026-08-04T00:10:06</modified>
    <unit name="meter" meter="1"/>
    <up_axis>Z_UP</up_axis>
  </asset>
  <library_effects>
    <effect id="ericrolph_cannon_car_wash_safety_orange-effect">
      <profile_COMMON>
        <technique sid="common">
          <lambert>
            <emission>
              <color sid="emission">0 0 0 1</color>
            </emission>
            <diffuse>
              <color sid="diffuse">1 0.16 0.015 1</color>
            </diffuse>
            <index_of_refraction>
              <float sid="ior">1.5</float>
            </index_of_refraction>
          </lambert>
        </technique>
      </profile_COMMON>
    </effect>
    <effect id="ericrolph_cannon_car_wash_glass-effect">
      <profile_COMMON>
        <technique sid="common">
          <lambert>
            <emission>
              <color sid="emission">0 0 0 1</color>
            </emission>
            <diffuse>
              <color sid="diffuse">0.03 0.32 0.48 1</color>
            </diffuse>
            <reflectivity>
              <float sid="specular">0.1</float>
            </reflectivity>
            <transparent opaque="A_ONE">
              <color sid="alpha">0 0 0 0.38</color>
            </transparent>
            <index_of_refraction>
              <float sid="ior">1.5</float>
            </index_of_refraction>
          </lambert>
        </technique>
      </profile_COMMON>
    </effect>
    <effect id="ericrolph_cannon_car_wash_rubber-effect">
      <profile_COMMON>
        <technique sid="common">
          <lambert>
            <emission>
              <color sid="emission">0 0 0 1</color>
            </emission>
            <diffuse>
              <color sid="diffuse">0.012 0.014 0.018 1</color>
            </diffuse>
            <index_of_refraction>
              <float sid="ior">1.5</float>
            </index_of_refraction>
          </lambert>
        </technique>
      </profile_COMMON>
    </effect>
  </library_effects>
  <library_images/>
  <library_materials>
    <material id="ericrolph_cannon_car_wash_safety_orange-material" name="ericrolph_cannon_car_wash_safety_orange">
      <instance_effect url="#ericrolph_cannon_car_wash_safety_orange-effect"/>
    </material>
    <material id="ericrolph_cannon_car_wash_glass-material" name="ericrolph_cannon_car_wash_glass">
      <instance_effect url="#ericrolph_cannon_car_wash_glass-effect"/>
    </material>
    <material id="ericrolph_cannon_car_wash_rubber-material" name="ericrolph_cannon_car_wash_rubber">
      <instance_effect url="#ericrolph_cannon_car_wash_rubber-effect"/>
    </material>
  </library_materials>
  <library_geometries>
    <geometry id="ericrolph_cannon_car_wash_minicar_Body_mesh-mesh" name="ericrolph_cannon_car_wash_minicar_Body_mesh">
      <mesh>
        <source id="ericrolph_cannon_car_wash_minicar_Body_mesh-mesh-positions">
          <float_array id="ericrolph_cannon_car_wash_minicar_Body_mesh-mesh-positions-array" count="168">-0.138 -0.05799996 -0.03499996 -0.138 -0.06999999 -0.023 -0.15 -0.05799996 -0.023 -0.138 -0.06648528 -0.03148525 -0.1449282 -0.06492817 -0.0299282 -0.1464853 -0.06648528 -0.023 -0.1464853 -0.05799996 -0.03148525 -0.138 -0.06999999 0.023 -0.138 -0.05799996 0.03499996 -0.15 -0.05799996 0.023 -0.138 -0.06648528 0.03148525 -0.1449282 -0.06492817 0.0299282 -0.1464853 -0.05799996 0.03148525 -0.1464853 -0.06648528 0.023 -0.138 0.05799996 -0.03499996 -0.15 0.05799996 -0.023 -0.138 0.06999999 -0.023 -0.1464853 0.05799996 -0.03148525 -0.1449282 0.06492817 -0.0299282 -0.1464853 0.06648528 -0.023 -0.138 0.06648528 -0.03148525 -0.138 0.05799996 0.03499996 -0.138 0.06999999 0.023 -0.15 0.05799996 0.023 -0.138 0.06648528 0.03148525 -0.1449282 0.06492817 0.0299282 -0.1464853 0.06648528 0.023 -0.1464853 0.05799996 0.03148525 0.138 -0.05799996 -0.03499996 0.15 -0.05799996 -0.023 0.138 -0.06999999 -0.023 0.1464853 -0.05799996 -0.03148525 0.1449282 -0.06492817 -0.0299282 0.1464853 -0.06648528 -0.023 0.138 -0.06648528 -0.03148525 0.138 -0.05799996 0.03499996 0.138 -0.06999999 0.023 0.15 -0.05799996 0.023 0.138 -0.06648528 0.03148525 0.1449282 -0.06492817 0.0299282 0.1464853 -0.06648528 0.023 0.1464853 -0.05799996 0.03148525 0.138 0.05799996 -0.03499996 0.138 0.06999999 -0.023 0.15 0.05799996 -0.023 0.138 0.06648528 -0.03148525 0.1449282 0.06492817 -0.0299282 0.1464853 0.06648528 -0.023 0.1464853 0.05799996 -0.03148525 0.138 0.05799996 0.03499996 0.15 0.05799996 0.023 0.138 0.06999999 0.023 0.1464853 0.05799996 0.03148525 0.1449282 0.06492817 0.0299282 0.1464853 0.06648528 0.023 0.138 0.06648528 0.03148525</float_array>
          <technique_common>
            <accessor source="#ericrolph_cannon_car_wash_minicar_Body_mesh-mesh-positions-array" count="56" stride="3">
              <param name="X" type="float"/>
              <param name="Y" type="float"/>
              <param name="Z" type="float"/>
            </accessor>
          </technique_common>
        </source>
        <source id="ericrolph_cannon_car_wash_minicar_Body_mesh-mesh-normals">
          <float_array id="ericrolph_cannon_car_wash_minicar_Body_mesh-mesh-normals-array" count="324">-0.3671809 -0.281747 -0.8864519 -0.2817478 -0.8864517 -0.3671806 -0.8864521 -0.3671808 -0.2817463 -0.3671811 -0.8864516 0.2817474 -0.2817475 -0.3671804 0.8864518 -0.8864521 -0.2817462 0.367181 -0.2817475 0.3671804 -0.8864518 -0.8864521 0.2817462 -0.367181 -0.3671811 0.8864516 -0.2817474 -0.3671809 0.281747 0.8864519 -0.2817478 0.8864517 0.3671806 -0.8864521 0.3671808 0.2817463 0.2817475 -0.3671804 -0.8864518 0.8864521 -0.2817462 -0.367181 0.3671811 -0.8864516 -0.2817474 0.3671809 -0.281747 0.8864519 0.2817478 -0.8864517 0.3671806 0.8864521 -0.3671808 0.2817463 0.3671809 0.281747 -0.8864519 0.2817478 0.8864517 -0.3671806 0.8864521 0.3671808 -0.2817463 0.2817475 0.3671804 0.8864518 0.8864521 0.2817462 0.367181 0.3671811 0.8864516 0.2817474 -0.3826838 0 -0.9238795 -0.9238795 0 -0.3826837 -0.3826841 -0.9238793 0 -0.9238794 -0.3826838 0 -0.3826838 0 0.9238795 -0.9238795 0 0.3826837 -0.3826841 0.9238793 0 -0.9238794 0.3826838 0 0 0.3826835 -0.9238795 0 0.9238795 -0.3826837 0 0.3826835 0.9238795 0 0.9238795 0.3826837 0.9238793 0.3826838 0 0.3826841 0.9238792 0 0.3826838 0 -0.9238795 0.9238795 0 -0.3826837 0.3826838 0 0.9238795 0.9238795 0 0.3826837 0.3826841 -0.9238793 0 0.9238794 -0.3826838 0 0 -0.3826835 -0.9238795 0 -0.9238795 -0.3826837 0 -0.3826835 0.9238795 0 -0.9238795 0.3826837 0 0 -1 -1 0 0 0 -1 0 0 0 1 0 1 0 1 0 0 -0.2817475 -0.3671804 -0.8864519 -0.367181 -0.8864517 -0.2817474 -0.8864521 -0.2817462 -0.3671808 -0.2817478 -0.8864517 0.3671807 -0.3671808 -0.281747 0.8864519 -0.886452 -0.3671808 0.2817463 -0.3671808 0.281747 -0.8864519 -0.886452 0.3671808 -0.2817463 -0.2817478 0.8864517 -0.3671807 -0.2817475 0.3671804 0.8864519 -0.367181 0.8864517 0.2817474 -0.8864521 0.2817462 0.3671808 0.3671808 -0.281747 -0.8864519 0.886452 -0.3671808 -0.2817463 0.2817478 -0.8864517 -0.3671807 0.2817475 -0.3671804 0.8864519 0.367181 -0.8864517 0.2817474 0.8864521 -0.2817462 0.3671808 0.2817475 0.3671804 -0.8864519 0.367181 0.8864517 -0.2817474 0.8864521 0.2817462 -0.3671808 0.3671808 0.281747 0.8864519 0.886452 0.3671808 0.2817463 0.2817478 0.8864517 0.3671807 -0.3826837 0 -0.9238795 -0.9238795 0 -0.3826836 -0.3826841 -0.9238792 0 -0.9238793 -0.3826838 0 -0.3826837 0 0.9238795 -0.9238795 0 0.3826836 -0.3826841 0.9238792 0 -0.9238793 0.3826838 0 0 0.3826835 -0.9238795 0 0.9238795 -0.3826838 0 0.3826835 0.9238795 0 0.9238795 0.3826838 0.9238794 0.3826838 0 0.3826841 0.9238793 0 0.3826837 0 -0.9238795 0.9238795 0 -0.3826836 0.3826837 0 0.9238795 0.9238795 0 0.3826836 0.3826841 -0.9238792 0 0.9238793 -0.3826838 0 0 -0.3826835 -0.9238795 0 -0.9238795 -0.3826838 0 -0.3826835 0.9238795 0 -0.9238795 0.3826838 0 0 -1 -1 0 0 0 -1 0 0 0 1 0 1 0 1 0 0</float_array>
          <technique_common>
            <accessor source="#ericrolph_cannon_car_wash_minicar_Body_mesh-mesh-normals-array" count="108" stride="3">
              <param name="X" type="float"/>
              <param name="Y" type="float"/>
              <param name="Z" type="float"/>
            </accessor>
          </technique_common>
        </source>
        <source id="ericrolph_cannon_car_wash_minicar_Body_mesh-mesh-map-0">
          <float_array id="ericrolph_cannon_car_wash_minicar_Body_mesh-mesh-map-0-array" count="648">0.1349999 0.7285714 0.1292265 0.75 0.125 0.7285714 0.4178572 0.9900001 0.3931136 1 0.375 0.9900001 0.4178572 0.02142852 0.375 0.009056806 0.4178571 0 0.5821428 0.99 0.625 0.9957735 0.5821428 1 0.865 0.7285714 0.875 0.7409432 0.865 0.75 0.5821429 0.02142852 0.6068864 0 0.625 0.02142858 0.1349999 0.5214285 0.125 0.5090568 0.1349999 0.5 0.4178571 0.2285714 0.3840568 0.2521132 0.375 0.2285714 0.4178571 0.26 0.3840568 0.2521132 0.4178572 0.25 0.8649999 0.5214285 0.8707735 0.5 0.875 0.5214285 0.5821428 0.26 0.6159431 0.2454715 0.625 0.26 0.5821428 0.2285714 0.6159431 0.2454715 0.5821428 0.25 0.365 0.7285714 0.3810378 0.7483898 0.37 0.7549999 0.4178571 0.7285714 0.3810378 0.7483898 0.375 0.7285715 0.4178571 0.7599999 0.3810378 0.7483898 0.4178572 0.75 0.6349999 0.7285714 0.620371 0.746981 0.625 0.7285715 0.5821429 0.7600001 0.620371 0.746981 0.63 0.7549999 0.5821428 0.7285714 0.620371 0.746981 0.5821428 0.75 0.365 0.5214285 0.3796291 0.5030189 0.375 0.5214286 0.4178572 0.49 0.3796291 0.5030189 0.37 0.495 0.4178572 0.5214287 0.3796291 0.5030189 0.4178572 0.5 0.6349999 0.5214285 0.6189621 0.5016101 0.6300001 0.4950001 0.5821428 0.5214285 0.6189621 0.5016101 0.625 0.5214286 0.5821428 0.49 0.6189621 0.5016101 0.5821429 0.5 0.1349999 0.7285714 0.125 0.5214285 0.1349999 0.5214285 0.375 0.02142858 0.4178571 0.2285714 0.375 0.2285714 0.4178572 0.9900001 0.5821428 1 0.4178572 1 0.5821428 0 0.4178572 0.02142852 0.4178571 0 0.8649999 0.5214285 0.875 0.7285714 0.865 0.7285714 0.625 0.2285714 0.5821429 0.02142852 0.625 0.02142858 0.5821428 0.26 0.4178572 0.25 0.5821428 0.25 0.4178572 0.25 0.5821428 0.2285714 0.5821428 0.25 0.1349999 0.5214285 0.37 0.495 0.365 0.5214285 0.375 0.2599999 0.4178572 0.49 0.37 0.495 0.6349999 0.5214285 0.865 0.5 0.8649999 0.5214285 0.6300001 0.4950001 0.5821428 0.26 0.625 0.26 0.4178572 0.5214287 0.5821429 0.5 0.5821428 0.5214285 0.5821429 0.5 0.4178572 0.49 0.5821428 0.49 0.365 0.5214285 0.375 0.7285715 0.365 0.7285714 0.375 0.5214286 0.4178571 0.7285714 0.375 0.7285715 0.6349999 0.7285714 0.625 0.5214286 0.6349999 0.5214285 0.625 0.7285715 0.5821428 0.5214285 0.625 0.5214286 0.5821429 0.7600001 0.4178572 0.75 0.5821428 0.75 0.4178572 0.75 0.5821428 0.7285714 0.5821428 0.75 0.365 0.7285714 0.1349999 0.75 0.1349999 0.7285714 0.37 0.7549999 0.4178572 0.9900001 0.375 0.9900001 0.865 0.7285714 0.63 0.7549999 0.6349999 0.7285714 0.625 0.99 0.5821429 0.7600001 0.63 0.7549999 0.365 0.5214285 0.1349999 0.7285714 0.1349999 0.5214285 0.4178572 0.02142852 0.5821428 0.2285714 0.4178571 0.2285714 0.5821429 0.7600001 0.4178572 0.9900001 0.4178571 0.7599999 0.8649999 0.5214285 0.6349999 0.7285714 0.6349999 0.5214285 0.5821428 0.26 0.4178572 0.49 0.4178571 0.26 0.4178572 0.5214287 0.5821428 0.7285714 0.4178571 0.7285714 0.1349999 0.7285714 0.1349999 0.75 0.1292265 0.75 0.4178572 0.9900001 0.4178572 1 0.3931136 1 0.4178572 0.02142852 0.375 0.02142858 0.375 0.009056806 0.5821428 0.99 0.625 0.99 0.625 0.9957735 0.865 0.7285714 0.875 0.7285714 0.875 0.7409432 0.5821429 0.02142852 0.5821428 0 0.6068864 0 0.1349999 0.5214285 0.125 0.5214285 0.125 0.5090568 0.4178571 0.2285714 0.4178572 0.25 0.3840568 0.2521132 0.4178571 0.26 0.375 0.2599999 0.3840568 0.2521132 0.8649999 0.5214285 0.865 0.5 0.8707735 0.5 0.5821428 0.26 0.5821428 0.25 0.6159431 0.2454715 0.5821428 0.2285714 0.625 0.2285714 0.6159431 0.2454715 0.365 0.7285714 0.375 0.7285715 0.3810378 0.7483898 0.4178571 0.7285714 0.4178572 0.75 0.3810378 0.7483898 0.4178571 0.7599999 0.37 0.7549999 0.3810378 0.7483898 0.6349999 0.7285714 0.63 0.7549999 0.620371 0.746981 0.5821429 0.7600001 0.5821428 0.75 0.620371 0.746981 0.5821428 0.7285714 0.625 0.7285715 0.620371 0.746981 0.365 0.5214285 0.37 0.495 0.3796291 0.5030189 0.4178572 0.49 0.4178572 0.5 0.3796291 0.5030189 0.4178572 0.5214287 0.375 0.5214286 0.3796291 0.5030189 0.6349999 0.5214285 0.625 0.5214286 0.6189621 0.5016101 0.5821428 0.5214285 0.5821429 0.5 0.6189621 0.5016101 0.5821428 0.49 0.6300001 0.4950001 0.6189621 0.5016101 0.1349999 0.7285714 0.125 0.7285714 0.125 0.5214285 0.375 0.02142858 0.4178572 0.02142852 0.4178571 0.2285714 0.4178572 0.9900001 0.5821428 0.99 0.5821428 1 0.5821428 0 0.5821429 0.02142852 0.4178572 0.02142852 0.8649999 0.5214285 0.875 0.5214285 0.875 0.7285714 0.625 0.2285714 0.5821428 0.2285714 0.5821429 0.02142852 0.5821428 0.26 0.4178571 0.26 0.4178572 0.25 0.4178572 0.25 0.4178571 0.2285714 0.5821428 0.2285714 0.1349999 0.5214285 0.1349999 0.5 0.37 0.495 0.375 0.2599999 0.4178571 0.26 0.4178572 0.49 0.6349999 0.5214285 0.6300001 0.4950001 0.865 0.5 0.6300001 0.4950001 0.5821428 0.49 0.5821428 0.26 0.4178572 0.5214287 0.4178572 0.5 0.5821429 0.5 0.5821429 0.5 0.4178572 0.5 0.4178572 0.49 0.365 0.5214285 0.375 0.5214286 0.375 0.7285715 0.375 0.5214286 0.4178572 0.5214287 0.4178571 0.7285714 0.6349999 0.7285714 0.625 0.7285715 0.625 0.5214286 0.625 0.7285715 0.5821428 0.7285714 0.5821428 0.5214285 0.5821429 0.7600001 0.4178571 0.7599999 0.4178572 0.75 0.4178572 0.75 0.4178571 0.7285714 0.5821428 0.7285714 0.365 0.7285714 0.37 0.7549999 0.1349999 0.75 0.37 0.7549999 0.4178571 0.7599999 0.4178572 0.9900001 0.865 0.7285714 0.865 0.75 0.63 0.7549999 0.625 0.99 0.5821428 0.99 0.5821429 0.7600001 0.365 0.5214285 0.365 0.7285714 0.1349999 0.7285714 0.4178572 0.02142852 0.5821429 0.02142852 0.5821428 0.2285714 0.5821429 0.7600001 0.5821428 0.99 0.4178572 0.9900001 0.8649999 0.5214285 0.865 0.7285714 0.6349999 0.7285714 0.5821428 0.26 0.5821428 0.49 0.4178572 0.49 0.4178572 0.5214287 0.5821428 0.5214285 0.5821428 0.7285714</float_array>
          <technique_common>
            <accessor source="#ericrolph_cannon_car_wash_minicar_Body_mesh-mesh-map-0-array" count="324" stride="2">
              <param name="S" type="float"/>
              <param name="T" type="float"/>
            </accessor>
          </technique_common>
        </source>
        <vertices id="ericrolph_cannon_car_wash_minicar_Body_mesh-mesh-vertices">
          <input semantic="POSITION" source="#ericrolph_cannon_car_wash_minicar_Body_mesh-mesh-positions"/>
        </vertices>
        <triangles material="ericrolph_cannon_car_wash_safety_orange-material" count="108">
          <input semantic="VERTEX" source="#ericrolph_cannon_car_wash_minicar_Body_mesh-mesh-vertices" offset="0"/>
          <input semantic="NORMAL" source="#ericrolph_cannon_car_wash_minicar_Body_mesh-mesh-normals" offset="1"/>
          <input semantic="TEXCOORD" source="#ericrolph_cannon_car_wash_minicar_Body_mesh-mesh-map-0" offset="2" set="0"/>
          <p>0 0 0 4 0 1 6 0 2 1 1 3 4 1 4 3 1 5 2 2 6 4 2 7 5 2 8 7 3 9 11 3 10 13 3 11 8 4 12 11 4 13 10 4 14 9 5 15 11 5 16 12 5 17 14 6 18 18 6 19 20 6 20 15 7 21 18 7 22 17 7 23 16 8 24 18 8 25 19 8 26 21 9 27 25 9 28 27 9 29 22 10 30 25 10 31 24 10 32 23 11 33 25 11 34 26 11 35 28 12 36 32 12 37 34 12 38 29 13 39 32 13 40 31 13 41 30 14 42 32 14 43 33 14 44 35 15 45 39 15 46 41 15 47 36 16 48 39 16 49 38 16 50 37 17 51 39 17 52 40 17 53 42 18 54 46 18 55 48 18 56 43 19 57 46 19 58 45 19 59 44 20 60 46 20 61 47 20 62 49 21 63 53 21 64 55 21 65 50 22 66 53 22 67 52 22 68 51 23 69 53 23 70 54 23 71 0 24 72 17 24 73 14 24 74 6 25 75 15 25 76 17 25 77 1 26 78 13 26 79 5 26 80 13 27 81 2 27 82 5 27 83 21 28 84 12 28 85 8 28 86 27 29 87 9 29 88 12 29 89 22 30 90 19 30 91 26 30 92 19 31 93 23 31 94 26 31 95 14 32 96 45 32 97 42 32 98 20 33 99 43 33 100 45 33 101 49 34 102 24 34 103 21 34 104 55 35 105 22 35 106 24 35 107 44 36 108 54 36 109 50 36 110 54 37 111 43 37 112 51 37 113 42 38 114 31 38 115 28 38 116 48 39 117 29 39 118 31 39 119 35 40 120 52 40 121 49 40 122 41 41 123 50 41 124 52 41 125 36 42 126 33 42 127 40 42 128 33 43 129 37 43 130 40 43 131 28 44 132 3 44 133 0 44 134 34 45 135 1 45 136 3 45 137 8 46 138 38 46 139 35 46 140 10 47 141 36 47 142 38 47 143 42 48 144 0 48 145 14 48 146 2 49 147 23 49 148 15 49 149 36 50 150 1 50 151 30 50 152 21 51 153 35 51 154 49 51 155 22 52 156 43 52 157 16 52 158 44 53 159 37 53 160 29 53 161 0 54 162 3 54 163 4 54 164 1 55 165 5 55 166 4 55 167 2 56 168 6 56 169 4 56 170 7 57 171 10 57 172 11 57 173 8 58 174 12 58 175 11 58 176 9 59 177 13 59 178 11 59 179 14 60 180 17 60 181 18 60 182 15 61 183 19 61 184 18 61 185 16 62 186 20 62 187 18 62 188 21 63 189 24 63 190 25 63 191 22 64 192 26 64 193 25 64 194 23 65 195 27 65 196 25 65 197 28 66 198 31 66 199 32 66 200 29 67 201 33 67 202 32 67 203 30 68 204 34 68 205 32 68 206 35 69 207 38 69 208 39 69 209 36 70 210 40 70 211 39 70 212 37 71 213 41 71 214 39 71 215 42 72 216 45 72 217 46 72 218 43 73 219 47 73 220 46 73 221 44 74 222 48 74 223 46 74 224 49 75 225 52 75 226 53 75 227 50 76 228 54 76 229 53 76 230 51 77 231 55 77 232 53 77 233 0 78 234 6 78 235 17 78 236 6 79 237 2 79 238 15 79 239 1 80 240 7 80 241 13 80 242 13 81 243 9 81 244 2 81 245 21 82 246 27 82 247 12 82 248 27 83 249 23 83 250 9 83 251 22 84 252 16 84 253 19 84 254 19 85 255 15 85 256 23 85 257 14 86 258 20 86 259 45 86 260 20 87 261 16 87 262 43 87 263 49 88 264 55 88 265 24 88 266 55 89 267 51 89 268 22 89 269 44 90 270 47 90 271 54 90 272 54 91 273 47 91 274 43 91 275 42 92 276 48 92 277 31 92 278 48 93 279 44 93 280 29 93 281 35 94 282 41 94 283 52 94 284 41 95 285 37 95 286 50 95 287 36 96 288 30 96 289 33 96 290 33 97 291 29 97 292 37 97 293 28 98 294 34 98 295 3 98 296 34 99 297 30 99 298 1 99 299 8 100 300 10 100 301 38 100 302 10 101 303 7 101 304 36 101 305 42 102 306 28 102 307 0 102 308 2 103 309 9 103 310 23 103 311 36 104 312 7 104 313 1 104 314 21 105 315 8 105 316 35 105 317 22 106 318 51 106 319 43 106 320 44 107 321 50 107 322 37 107 323</p>
        </triangles>
      </mesh>
    </geometry>
    <geometry id="ericrolph_cannon_car_wash_minicar_Cabin_mesh-mesh" name="ericrolph_cannon_car_wash_minicar_Cabin_mesh">
      <mesh>
        <source id="ericrolph_cannon_car_wash_minicar_Cabin_mesh-mesh-positions">
          <float_array id="ericrolph_cannon_car_wash_minicar_Cabin_mesh-mesh-positions-array" count="168">-0.06799995 -0.04799997 -0.02749997 -0.06799995 -0.06 -0.01549994 -0.07999998 -0.04799997 -0.01549994 -0.06799995 -0.05648523 -0.02398526 -0.07492816 -0.05492818 -0.02242815 -0.07648527 -0.05648523 -0.01549994 -0.07648527 -0.04799997 -0.02398526 -0.06799995 -0.06 0.01549994 -0.06799995 -0.04799997 0.02749997 -0.07999998 -0.04799997 0.01549994 -0.06799995 -0.05648523 0.02398526 -0.07492816 -0.05492818 0.02242815 -0.07648527 -0.04799997 0.02398526 -0.07648527 -0.05648523 0.01549994 -0.06799995 0.04799997 -0.02749997 -0.07999998 0.04799997 -0.01549994 -0.06799995 0.06 -0.01549994 -0.07648527 0.04799997 -0.02398526 -0.07492816 0.05492818 -0.02242815 -0.07648527 0.05648523 -0.01549994 -0.06799995 0.05648523 -0.02398526 -0.06799995 0.04799997 0.02749997 -0.06799995 0.06 0.01549994 -0.07999998 0.04799997 0.01549994 -0.06799995 0.05648523 0.02398526 -0.07492816 0.05492818 0.02242815 -0.07648527 0.05648523 0.01549994 -0.07648527 0.04799997 0.02398526 0.06799995 -0.04799997 -0.02749997 0.07999998 -0.04799997 -0.01549994 0.06799995 -0.06 -0.01549994 0.07648527 -0.04799997 -0.02398526 0.07492816 -0.05492818 -0.02242815 0.07648527 -0.05648523 -0.01549994 0.06799995 -0.05648523 -0.02398526 0.06799995 -0.04799997 0.02749997 0.06799995 -0.06 0.01549994 0.07999998 -0.04799997 0.01549994 0.06799995 -0.05648523 0.02398526 0.07492816 -0.05492818 0.02242815 0.07648527 -0.05648523 0.01549994 0.07648527 -0.04799997 0.02398526 0.06799995 0.04799997 -0.02749997 0.06799995 0.06 -0.01549994 0.07999998 0.04799997 -0.01549994 0.06799995 0.05648523 -0.02398526 0.07492816 0.05492818 -0.02242815 0.07648527 0.05648523 -0.01549994 0.07648527 0.04799997 -0.02398526 0.06799995 0.04799997 0.02749997 0.07999998 0.04799997 0.01549994 0.06799995 0.06 0.01549994 0.07648527 0.04799997 0.02398526 0.07492816 0.05492818 0.02242815 0.07648527 0.05648523 0.01549994 0.06799995 0.05648523 0.02398526</float_array>
          <technique_common>
            <accessor source="#ericrolph_cannon_car_wash_minicar_Cabin_mesh-mesh-positions-array" count="56" stride="3">
              <param name="X" type="float"/>
              <param name="Y" type="float"/>
              <param name="Z" type="float"/>
            </accessor>
          </technique_common>
        </source>
        <source id="ericrolph_cannon_car_wash_minicar_Cabin_mesh-mesh-normals">
          <float_array id="ericrolph_cannon_car_wash_minicar_Cabin_mesh-mesh-normals-array" count="324">-0.3671807 -0.2817474 -0.8864519 -0.2817474 -0.8864517 -0.367181 -0.8864517 -0.367181 -0.2817471 -0.367181 -0.8864516 0.2817473 -0.2817474 -0.3671807 0.8864518 -0.8864517 -0.2817471 0.367181 -0.2817474 0.3671807 -0.8864519 -0.8864518 0.2817471 -0.3671808 -0.3671804 0.8864519 -0.2817472 -0.3671807 0.2817474 0.8864519 -0.2817474 0.8864517 0.367181 -0.8864517 0.367181 0.2817471 0.2817474 -0.3671807 -0.8864519 0.8864518 -0.2817471 -0.3671808 0.3671804 -0.8864519 -0.2817472 0.3671807 -0.2817474 0.8864519 0.2817474 -0.8864517 0.367181 0.8864517 -0.367181 0.2817471 0.3671807 0.2817474 -0.8864519 0.2817474 0.8864517 -0.367181 0.8864517 0.367181 -0.2817471 0.2817474 0.3671807 0.8864519 0.8864518 0.2817471 0.3671808 0.3671804 0.8864519 0.2817472 -0.3826836 0 -0.9238795 -0.9238794 0 -0.3826838 -0.3826841 -0.9238793 0 -0.9238793 -0.3826841 0 -0.3826835 0 0.9238796 -0.9238795 0 0.3826837 -0.3826842 0.9238792 2.22046e-7 -0.9238793 0.3826841 0 0 0.3826838 -0.9238795 0 0.9238793 -0.3826841 0 0.3826838 0.9238795 0 0.9238793 0.3826841 0.9238795 0.3826838 0 0.3826835 0.9238795 0 0.3826836 0 -0.9238795 0.9238794 0 -0.3826838 0.3826836 0 0.9238795 0.9238794 0 0.3826838 0.3826842 -0.9238792 2.22046e-7 0.9238793 -0.3826841 0 0 -0.3826838 -0.9238795 0 -0.9238793 -0.3826841 0 -0.3826838 0.9238795 0 -0.9238793 0.3826841 0 0 -1 -1 0 0 0 -1 0 0 0 1 0 1 0 1 0 0 -0.2817474 -0.3671807 -0.8864518 -0.3671811 -0.8864516 -0.2817474 -0.8864518 -0.2817471 -0.367181 -0.2817474 -0.8864517 0.367181 -0.3671806 -0.2817474 0.8864519 -0.8864517 -0.3671811 0.2817471 -0.3671806 0.2817474 -0.8864518 -0.8864519 0.3671809 -0.2817471 -0.2817474 0.8864519 -0.3671804 -0.2817474 0.3671807 0.8864518 -0.3671811 0.8864516 0.2817474 -0.8864518 0.2817471 0.367181 0.3671806 -0.2817474 -0.8864518 0.8864519 -0.3671809 -0.2817471 0.2817474 -0.8864519 -0.3671804 0.2817474 -0.3671807 0.8864518 0.3671811 -0.8864516 0.2817474 0.8864518 -0.2817471 0.367181 0.2817474 0.3671807 -0.8864518 0.3671811 0.8864516 -0.2817474 0.8864518 0.2817471 -0.367181 0.3671806 0.2817474 0.8864518 0.8864519 0.3671809 0.2817471 0.2817474 0.8864519 0.3671804 -0.3826835 0 -0.9238796 -0.9238794 0 -0.3826837 -0.3826841 -0.9238793 0 -0.9238793 -0.3826841 0 -0.3826835 0 0.9238796 -0.9238794 0 0.3826837 -0.3826835 0.9238795 0 -0.9238795 0.3826838 0 0 0.3826836 -0.9238795 0 0.9238795 -0.3826834 0 0.3826836 0.9238795 0 0.9238795 0.3826834 0.9238793 0.3826841 0 0.3826842 0.9238792 -2.22046e-7 0.3826835 0 -0.9238796 0.9238794 0 -0.3826837 0.3826835 0 0.9238796 0.9238794 0 0.3826837 0.3826835 -0.9238795 0 0.9238795 -0.3826838 0 0 -0.3826836 -0.9238795 0 -0.9238795 -0.3826834 0 -0.3826838 0.9238795 0 -0.9238793 0.382684 0 0 -1 -1 0 0 0 -1 0 0 0 1 0 1 0 1 0 0</float_array>
          <technique_common>
            <accessor source="#ericrolph_cannon_car_wash_minicar_Cabin_mesh-mesh-normals-array" count="108" stride="3">
              <param name="X" type="float"/>
              <param name="Y" type="float"/>
              <param name="Z" type="float"/>
            </accessor>
          </technique_common>
        </source>
        <source id="ericrolph_cannon_car_wash_minicar_Cabin_mesh-mesh-map-0">
          <float_array id="ericrolph_cannon_car_wash_minicar_Cabin_mesh-mesh-map-0-array" count="648">0.14375 0.7250001 0.1329246 0.75 0.125 0.725 0.4295455 0.9812499 0.3980537 1 0.375 0.98125 0.4295455 0.02499997 0.375 0.01056623 0.4295455 0 0.5704546 0.9812501 0.625 0.9920753 0.5704545 1 0.8562499 0.725 0.875 0.7394337 0.8562501 0.75 0.5704545 0.02499997 0.6019464 0 0.625 0.02499997 0.14375 0.525 0.125 0.5105662 0.14375 0.5 0.4295455 0.225 0.3865268 0.2539623 0.375 0.225 0.4295455 0.26875 0.3865268 0.2539623 0.4295454 0.25 0.85625 0.525 0.8670753 0.5 0.875 0.525 0.5704545 0.26875 0.6134732 0.2447168 0.625 0.26875 0.5704546 0.225 0.6134732 0.2447168 0.5704545 0.25 0.35625 0.725 0.3826845 0.7491194 0.365625 0.759375 0.4295455 0.725 0.3826845 0.7491194 0.375 0.725 0.4295455 0.76875 0.3826845 0.7491194 0.4295454 0.75 0.6437501 0.725 0.619957 0.7464779 0.625 0.725 0.5704545 0.76875 0.619957 0.7464779 0.634375 0.759375 0.5704546 0.7250001 0.619957 0.7464779 0.5704545 0.75 0.35625 0.525 0.380043 0.5035221 0.375 0.525 0.4295454 0.48125 0.380043 0.5035221 0.365625 0.490625 0.4295455 0.525 0.380043 0.5035221 0.4295454 0.5 0.6437501 0.525 0.6173155 0.5008805 0.634375 0.490625 0.5704545 0.525 0.6173155 0.5008805 0.625 0.525 0.5704546 0.4812501 0.6173155 0.5008805 0.5704545 0.5 0.14375 0.525 0.125 0.725 0.125 0.525 0.375 0.02499997 0.4295455 0.225 0.375 0.225 0.5704546 0.9812501 0.4295455 1 0.4295455 0.9812499 0.5704545 0 0.4295455 0.02499997 0.4295455 0 0.85625 0.525 0.875 0.7249999 0.8562499 0.725 0.625 0.225 0.5704545 0.02499997 0.625 0.02499997 0.5704545 0.26875 0.4295454 0.25 0.5704545 0.25 0.4295454 0.25 0.5704546 0.225 0.5704545 0.25 0.14375 0.525 0.365625 0.490625 0.35625 0.525 0.375 0.26875 0.4295454 0.48125 0.365625 0.490625 0.6437501 0.525 0.85625 0.5 0.85625 0.525 0.634375 0.490625 0.5704545 0.26875 0.625 0.26875 0.4295455 0.525 0.5704545 0.5 0.5704545 0.525 0.5704545 0.5 0.4295454 0.48125 0.5704546 0.4812501 0.35625 0.725 0.375 0.525 0.375 0.725 0.375 0.525 0.4295455 0.725 0.375 0.725 0.6437501 0.525 0.625 0.725 0.625 0.525 0.625 0.725 0.5704545 0.525 0.625 0.525 0.5704545 0.76875 0.4295454 0.75 0.5704545 0.75 0.4295454 0.75 0.5704546 0.7250001 0.5704545 0.75 0.35625 0.725 0.14375 0.75 0.14375 0.7250001 0.365625 0.759375 0.4295455 0.9812499 0.375 0.98125 0.8562499 0.725 0.634375 0.759375 0.6437501 0.725 0.6250001 0.9812501 0.5704545 0.76875 0.634375 0.759375 0.35625 0.525 0.14375 0.7250001 0.14375 0.525 0.5704545 0.02499997 0.4295455 0.225 0.4295455 0.02499997 0.5704545 0.76875 0.4295455 0.9812499 0.4295455 0.76875 0.85625 0.525 0.6437501 0.725 0.6437501 0.525 0.5704545 0.26875 0.4295454 0.48125 0.4295455 0.26875 0.5704545 0.525 0.4295455 0.725 0.4295455 0.525 0.14375 0.7250001 0.14375 0.75 0.1329246 0.75 0.4295455 0.9812499 0.4295455 1 0.3980537 1 0.4295455 0.02499997 0.375 0.02499997 0.375 0.01056623 0.5704546 0.9812501 0.6250001 0.9812501 0.625 0.9920753 0.8562499 0.725 0.875 0.7249999 0.875 0.7394337 0.5704545 0.02499997 0.5704545 0 0.6019464 0 0.14375 0.525 0.125 0.525 0.125 0.5105662 0.4295455 0.225 0.4295454 0.25 0.3865268 0.2539623 0.4295455 0.26875 0.375 0.26875 0.3865268 0.2539623 0.85625 0.525 0.85625 0.5 0.8670753 0.5 0.5704545 0.26875 0.5704545 0.25 0.6134732 0.2447168 0.5704546 0.225 0.625 0.225 0.6134732 0.2447168 0.35625 0.725 0.375 0.725 0.3826845 0.7491194 0.4295455 0.725 0.4295454 0.75 0.3826845 0.7491194 0.4295455 0.76875 0.365625 0.759375 0.3826845 0.7491194 0.6437501 0.725 0.634375 0.759375 0.619957 0.7464779 0.5704545 0.76875 0.5704545 0.75 0.619957 0.7464779 0.5704546 0.7250001 0.625 0.725 0.619957 0.7464779 0.35625 0.525 0.365625 0.490625 0.380043 0.5035221 0.4295454 0.48125 0.4295454 0.5 0.380043 0.5035221 0.4295455 0.525 0.375 0.525 0.380043 0.5035221 0.6437501 0.525 0.625 0.525 0.6173155 0.5008805 0.5704545 0.525 0.5704545 0.5 0.6173155 0.5008805 0.5704546 0.4812501 0.634375 0.490625 0.6173155 0.5008805 0.14375 0.525 0.14375 0.7250001 0.125 0.725 0.375 0.02499997 0.4295455 0.02499997 0.4295455 0.225 0.5704546 0.9812501 0.5704545 1 0.4295455 1 0.5704545 0 0.5704545 0.02499997 0.4295455 0.02499997 0.85625 0.525 0.875 0.525 0.875 0.7249999 0.625 0.225 0.5704546 0.225 0.5704545 0.02499997 0.5704545 0.26875 0.4295455 0.26875 0.4295454 0.25 0.4295454 0.25 0.4295455 0.225 0.5704546 0.225 0.14375 0.525 0.14375 0.5 0.365625 0.490625 0.375 0.26875 0.4295455 0.26875 0.4295454 0.48125 0.6437501 0.525 0.634375 0.490625 0.85625 0.5 0.634375 0.490625 0.5704546 0.4812501 0.5704545 0.26875 0.4295455 0.525 0.4295454 0.5 0.5704545 0.5 0.5704545 0.5 0.4295454 0.5 0.4295454 0.48125 0.35625 0.725 0.35625 0.525 0.375 0.525 0.375 0.525 0.4295455 0.525 0.4295455 0.725 0.6437501 0.525 0.6437501 0.725 0.625 0.725 0.625 0.725 0.5704546 0.7250001 0.5704545 0.525 0.5704545 0.76875 0.4295455 0.76875 0.4295454 0.75 0.4295454 0.75 0.4295455 0.725 0.5704546 0.7250001 0.35625 0.725 0.365625 0.759375 0.14375 0.75 0.365625 0.759375 0.4295455 0.76875 0.4295455 0.9812499 0.8562499 0.725 0.8562501 0.75 0.634375 0.759375 0.6250001 0.9812501 0.5704546 0.9812501 0.5704545 0.76875 0.35625 0.525 0.35625 0.725 0.14375 0.7250001 0.5704545 0.02499997 0.5704546 0.225 0.4295455 0.225 0.5704545 0.76875 0.5704546 0.9812501 0.4295455 0.9812499 0.85625 0.525 0.8562499 0.725 0.6437501 0.725 0.5704545 0.26875 0.5704546 0.4812501 0.4295454 0.48125 0.5704545 0.525 0.5704546 0.7250001 0.4295455 0.725</float_array>
          <technique_common>
            <accessor source="#ericrolph_cannon_car_wash_minicar_Cabin_mesh-mesh-map-0-array" count="324" stride="2">
              <param name="S" type="float"/>
              <param name="T" type="float"/>
            </accessor>
          </technique_common>
        </source>
        <vertices id="ericrolph_cannon_car_wash_minicar_Cabin_mesh-mesh-vertices">
          <input semantic="POSITION" source="#ericrolph_cannon_car_wash_minicar_Cabin_mesh-mesh-positions"/>
        </vertices>
        <triangles material="ericrolph_cannon_car_wash_safety_orange-material" count="108">
          <input semantic="VERTEX" source="#ericrolph_cannon_car_wash_minicar_Cabin_mesh-mesh-vertices" offset="0"/>
          <input semantic="NORMAL" source="#ericrolph_cannon_car_wash_minicar_Cabin_mesh-mesh-normals" offset="1"/>
          <input semantic="TEXCOORD" source="#ericrolph_cannon_car_wash_minicar_Cabin_mesh-mesh-map-0" offset="2" set="0"/>
          <p>0 0 0 4 0 1 6 0 2 1 1 3 4 1 4 3 1 5 2 2 6 4 2 7 5 2 8 7 3 9 11 3 10 13 3 11 8 4 12 11 4 13 10 4 14 9 5 15 11 5 16 12 5 17 14 6 18 18 6 19 20 6 20 15 7 21 18 7 22 17 7 23 16 8 24 18 8 25 19 8 26 21 9 27 25 9 28 27 9 29 22 10 30 25 10 31 24 10 32 23 11 33 25 11 34 26 11 35 28 12 36 32 12 37 34 12 38 29 13 39 32 13 40 31 13 41 30 14 42 32 14 43 33 14 44 35 15 45 39 15 46 41 15 47 36 16 48 39 16 49 38 16 50 37 17 51 39 17 52 40 17 53 42 18 54 46 18 55 48 18 56 43 19 57 46 19 58 45 19 59 44 20 60 46 20 61 47 20 62 49 21 63 53 21 64 55 21 65 50 22 66 53 22 67 52 22 68 51 23 69 53 23 70 54 23 71 14 24 72 6 24 73 17 24 74 6 25 75 15 25 76 17 25 77 7 26 78 5 26 79 1 26 80 13 27 81 2 27 82 5 27 83 21 28 84 12 28 85 8 28 86 27 29 87 9 29 88 12 29 89 22 30 90 19 30 91 26 30 92 19 31 93 23 31 94 26 31 95 14 32 96 45 32 97 42 32 98 20 33 99 43 33 100 45 33 101 49 34 102 24 34 103 21 34 104 55 35 105 22 35 106 24 35 107 44 36 108 54 36 109 50 36 110 54 37 111 43 37 112 51 37 113 28 38 114 48 38 115 31 38 116 48 39 117 29 39 118 31 39 119 49 40 120 41 40 121 52 40 122 41 41 123 50 41 124 52 41 125 36 42 126 33 42 127 40 42 128 33 43 129 37 43 130 40 43 131 28 44 132 3 44 133 0 44 134 34 45 135 1 45 136 3 45 137 8 46 138 38 46 139 35 46 140 10 47 141 36 47 142 38 47 143 42 48 144 0 48 145 14 48 146 9 49 147 15 49 148 2 49 149 36 50 150 1 50 151 30 50 152 21 51 153 35 51 154 49 51 155 22 52 156 43 52 157 16 52 158 50 53 159 29 53 160 44 53 161 0 54 162 3 54 163 4 54 164 1 55 165 5 55 166 4 55 167 2 56 168 6 56 169 4 56 170 7 57 171 10 57 172 11 57 173 8 58 174 12 58 175 11 58 176 9 59 177 13 59 178 11 59 179 14 60 180 17 60 181 18 60 182 15 61 183 19 61 184 18 61 185 16 62 186 20 62 187 18 62 188 21 63 189 24 63 190 25 63 191 22 64 192 26 64 193 25 64 194 23 65 195 27 65 196 25 65 197 28 66 198 31 66 199 32 66 200 29 67 201 33 67 202 32 67 203 30 68 204 34 68 205 32 68 206 35 69 207 38 69 208 39 69 209 36 70 210 40 70 211 39 70 212 37 71 213 41 71 214 39 71 215 42 72 216 45 72 217 46 72 218 43 73 219 47 73 220 46 73 221 44 74 222 48 74 223 46 74 224 49 75 225 52 75 226 53 75 227 50 76 228 54 76 229 53 76 230 51 77 231 55 77 232 53 77 233 14 78 234 0 78 235 6 78 236 6 79 237 2 79 238 15 79 239 7 80 240 13 80 241 5 80 242 13 81 243 9 81 244 2 81 245 21 82 246 27 82 247 12 82 248 27 83 249 23 83 250 9 83 251 22 84 252 16 84 253 19 84 254 19 85 255 15 85 256 23 85 257 14 86 258 20 86 259 45 86 260 20 87 261 16 87 262 43 87 263 49 88 264 55 88 265 24 88 266 55 89 267 51 89 268 22 89 269 44 90 270 47 90 271 54 90 272 54 91 273 47 91 274 43 91 275 28 92 276 42 92 277 48 92 278 48 93 279 44 93 280 29 93 281 49 94 282 35 94 283 41 94 284 41 95 285 37 95 286 50 95 287 36 96 288 30 96 289 33 96 290 33 97 291 29 97 292 37 97 293 28 98 294 34 98 295 3 98 296 34 99 297 30 99 298 1 99 299 8 100 300 10 100 301 38 100 302 10 101 303 7 101 304 36 101 305 42 102 306 28 102 307 0 102 308 9 103 309 23 103 310 15 103 311 36 104 312 7 104 313 1 104 314 21 105 315 8 105 316 35 105 317 22 106 318 51 106 319 43 106 320 50 107 321 37 107 322 29 107 323</p>
        </triangles>
      </mesh>
    </geometry>
    <geometry id="ericrolph_cannon_car_wash_minicar_Screen_mesh-mesh" name="ericrolph_cannon_car_wash_minicar_Screen_mesh">
      <mesh>
        <source id="ericrolph_cannon_car_wash_minicar_Screen_mesh-mesh-positions">
          <float_array id="ericrolph_cannon_car_wash_minicar_Screen_mesh-mesh-positions-array" count="168">-0.001999974 -0.046 -0.02249997 -0.001999974 -0.04999995 -0.01849997 -0.005999982 -0.046 -0.01849997 -0.001999974 -0.04882842 -0.02132838 -0.004309356 -0.04830938 -0.02080935 -0.004828393 -0.04882842 -0.01849997 -0.004828393 -0.046 -0.02132838 -0.001999974 -0.04999995 0.01849997 -0.001999974 -0.046 0.02249997 -0.005999982 -0.046 0.01849997 -0.001999974 -0.04882842 0.02132838 -0.004309356 -0.04830938 0.02080935 -0.004828393 -0.046 0.02132838 -0.004828393 -0.04882842 0.01849997 -0.001999974 0.046 -0.02249997 -0.005999982 0.046 -0.01849997 -0.001999974 0.04999995 -0.01849997 -0.004828393 0.046 -0.02132838 -0.004309356 0.04830938 -0.02080935 -0.004828393 0.04882842 -0.01849997 -0.001999974 0.04882842 -0.02132838 -0.001999974 0.046 0.02249997 -0.001999974 0.04999995 0.01849997 -0.005999982 0.046 0.01849997 -0.001999974 0.04882842 0.02132838 -0.004309356 0.04830938 0.02080935 -0.004828393 0.04882842 0.01849997 -0.004828393 0.046 0.02132838 0.001999974 -0.046 -0.02249997 0.005999982 -0.046 -0.01849997 0.001999974 -0.04999995 -0.01849997 0.004828393 -0.046 -0.02132838 0.004309356 -0.04830938 -0.02080935 0.004828393 -0.04882842 -0.01849997 0.001999974 -0.04882842 -0.02132838 0.001999974 -0.046 0.02249997 0.001999974 -0.04999995 0.01849997 0.005999982 -0.046 0.01849997 0.001999974 -0.04882842 0.02132838 0.004309356 -0.04830938 0.02080935 0.004828393 -0.04882842 0.01849997 0.004828393 -0.046 0.02132838 0.001999974 0.046 -0.02249997 0.001999974 0.04999995 -0.01849997 0.005999982 0.046 -0.01849997 0.001999974 0.04882842 -0.02132838 0.004309356 0.04830938 -0.02080935 0.004828393 0.04882842 -0.01849997 0.004828393 0.046 -0.02132838 0.001999974 0.046 0.02249997 0.005999982 0.046 0.01849997 0.001999974 0.04999995 0.01849997 0.004828393 0.046 0.02132838 0.004309356 0.04830938 0.02080935 0.004828393 0.04882842 0.01849997 0.001999974 0.04882842 0.02132838</float_array>
          <technique_common>
            <accessor source="#ericrolph_cannon_car_wash_minicar_Screen_mesh-mesh-positions-array" count="56" stride="3">
              <param name="X" type="float"/>
              <param name="Y" type="float"/>
              <param name="Z" type="float"/>
            </accessor>
          </technique_common>
        </source>
        <source id="ericrolph_cannon_car_wash_minicar_Screen_mesh-mesh-normals">
          <float_array id="ericrolph_cannon_car_wash_minicar_Screen_mesh-mesh-normals-array" count="324">-0.3671798 -0.2817474 -0.8864521 -0.2817472 -0.8864523 -0.3671795 -0.8864521 -0.36718 -0.2817471 -0.3671798 -0.8864522 0.2817472 -0.2817474 -0.3671799 0.8864521 -0.8864521 -0.2817475 0.36718 -0.2817474 0.3671799 -0.8864521 -0.8864521 0.2817475 -0.36718 -0.3671798 0.8864522 -0.2817472 -0.3671798 0.2817474 0.8864521 -0.2817472 0.8864523 0.3671795 -0.8864521 0.36718 0.2817471 0.2817474 -0.3671799 -0.8864521 0.8864521 -0.2817475 -0.36718 0.3671798 -0.8864522 -0.2817472 0.3671798 -0.2817474 0.8864521 0.2817472 -0.8864523 0.3671795 0.8864521 -0.36718 0.2817471 0.3671798 0.2817474 -0.8864521 0.2817472 0.8864523 -0.3671795 0.8864521 0.36718 -0.2817471 0.2817474 0.3671799 0.8864521 0.8864521 0.2817475 0.36718 0.3671798 0.8864522 0.2817472 -0.3826832 0 -0.9238796 -0.9238796 0 -0.3826833 -0.3826826 -0.9238799 0 -0.9238797 -0.382683 0 -0.3826832 0 0.9238796 -0.9238796 0 0.3826833 -0.3826826 0.9238799 0 -0.9238797 0.382683 0 0 0.3826828 -0.9238798 0 0.9238799 -0.3826826 0 0.3826828 0.9238798 0 0.9238799 0.3826826 0.9238797 0.3826831 0 0.3826827 0.9238799 0 0.3826832 0 -0.9238796 0.9238796 0 -0.3826833 0.3826832 0 0.9238796 0.9238796 0 0.3826833 0.3826826 -0.9238799 0 0.9238797 -0.382683 0 0 -0.3826828 -0.9238798 0 -0.9238799 -0.3826826 0 -0.3826828 0.9238798 0 -0.9238799 0.3826826 0 0 -1 -1 0 0 0 -1 0 0 0 1 0 1 0 1 0 0 -0.2817472 -0.3671798 -0.8864521 -0.3671796 -0.8864523 -0.2817471 -0.8864521 -0.2817474 -0.3671797 -0.2817473 -0.8864523 0.3671795 -0.3671799 -0.2817475 0.8864521 -0.8864521 -0.3671801 0.2817472 -0.3671799 0.2817475 -0.8864521 -0.8864521 0.3671801 -0.2817472 -0.2817473 0.8864523 -0.3671795 -0.2817472 0.3671798 0.8864521 -0.3671796 0.8864523 0.2817471 -0.8864521 0.2817474 0.3671797 0.3671799 -0.2817475 -0.8864521 0.8864521 -0.3671801 -0.2817472 0.2817473 -0.8864523 -0.3671795 0.2817472 -0.3671798 0.8864521 0.3671796 -0.8864523 0.2817471 0.8864521 -0.2817474 0.3671797 0.2817472 0.3671798 -0.8864521 0.3671796 0.8864523 -0.2817471 0.8864521 0.2817474 -0.3671797 0.3671799 0.2817475 0.8864521 0.8864521 0.3671801 0.2817472 0.2817473 0.8864523 0.3671795 -0.3826831 0 -0.9238796 -0.9238796 0 -0.382683 -0.3826827 -0.9238799 0 -0.9238797 -0.3826831 0 -0.3826831 0 0.9238796 -0.9238796 0 0.382683 -0.3826827 0.9238799 0 -0.9238797 0.3826831 0 0 0.3826829 -0.9238798 0 0.9238799 -0.3826825 0 0.3826829 0.9238798 0 0.9238799 0.3826825 0.9238797 0.382683 0 0.3826826 0.9238799 0 0.3826831 0 -0.9238796 0.9238796 0 -0.382683 0.3826831 0 0.9238796 0.9238796 0 0.382683 0.3826827 -0.9238799 0 0.9238797 -0.3826831 0 0 -0.3826829 -0.9238798 0 -0.9238799 -0.3826825 0 -0.3826829 0.9238798 0 -0.9238799 0.3826825 0 0 -1 -1 0 0 0 -1 0 0 0 1 0 1 0 1 0 0</float_array>
          <technique_common>
            <accessor source="#ericrolph_cannon_car_wash_minicar_Screen_mesh-mesh-normals-array" count="108" stride="3">
              <param name="X" type="float"/>
              <param name="Y" type="float"/>
              <param name="Z" type="float"/>
            </accessor>
          </technique_common>
        </source>
        <source id="ericrolph_cannon_car_wash_minicar_Screen_mesh-mesh-map-0">
          <float_array id="ericrolph_cannon_car_wash_minicar_Screen_mesh-mesh-map-0-array" count="648">0.2083333 0.74 0.1602208 0.75 0.125 0.74 0.3972222 0.9166666 0.3843922 1 0.375 0.9166666 0.3972222 0.00999999 0.375 0.004226505 0.3972222 0 0.6027777 0.9166666 0.625 0.9647792 0.6027778 1 0.7916666 0.74 0.875 0.7457735 0.7916668 0.75 0.6027778 0.00999999 0.6156079 0 0.625 0.00999999 0.2083333 0.51 0.125 0.5042265 0.2083333 0.5 0.3972223 0.24 0.3796961 0.2676104 0.375 0.24 0.3972222 0.3333333 0.3796961 0.2676104 0.3972222 0.25 0.7916666 0.51 0.8397792 0.5 0.8750001 0.5100001 0.6027778 0.3333334 0.6203039 0.2478867 0.625 0.3333333 0.6027778 0.24 0.6203039 0.2478867 0.6027777 0.25 0.2916667 0.74 0.3781307 0.7603315 0.3333333 0.7916666 0.3972222 0.74 0.3781307 0.7603315 0.375 0.74 0.3972222 0.8333334 0.3781307 0.7603315 0.3972222 0.75 0.7083332 0.74 0.6336095 0.7485911 0.6249999 0.74 0.6027778 0.8333333 0.6336095 0.7485911 0.6666667 0.7916666 0.6027778 0.74 0.6336095 0.7485911 0.6027777 0.7500001 0.2916666 0.5099999 0.3663905 0.5014088 0.375 0.5100001 0.3972222 0.4166666 0.3663905 0.5014088 0.3333333 0.4583333 0.3972222 0.51 0.3663905 0.5014088 0.3972222 0.5 0.7083334 0.51 0.6218693 0.4896685 0.6666666 0.4583334 0.6027778 0.51 0.6218693 0.4896685 0.625 0.51 0.6027777 0.4166666 0.6218693 0.4896685 0.6027777 0.5 0.2083333 0.74 0.125 0.51 0.2083333 0.51 0.375 0.00999999 0.3972223 0.24 0.375 0.24 0.6027777 0.9166666 0.3972222 1 0.3972222 0.9166666 0.6027777 0 0.3972222 0.00999999 0.3972222 0 0.7916666 0.51 0.8750001 0.7400001 0.7916666 0.74 0.625 0.24 0.6027778 0.00999999 0.625 0.00999999 0.3972222 0.3333333 0.6027777 0.25 0.6027778 0.3333334 0.3972222 0.25 0.6027778 0.24 0.6027777 0.25 0.2916666 0.5099999 0.2083333 0.5 0.3333333 0.4583333 0.375 0.3333333 0.3972222 0.4166666 0.3333333 0.4583333 0.7916666 0.51 0.6666666 0.4583334 0.7916666 0.5 0.6666666 0.4583334 0.6027778 0.3333334 0.625 0.3333333 0.3972222 0.51 0.6027777 0.5 0.6027778 0.51 0.3972222 0.5 0.6027777 0.4166666 0.6027777 0.5 0.2916666 0.5099999 0.375 0.74 0.2916667 0.74 0.375 0.5100001 0.3972222 0.74 0.375 0.74 0.7083332 0.74 0.625 0.51 0.7083334 0.51 0.6249999 0.74 0.6027778 0.51 0.625 0.51 0.3972222 0.8333334 0.6027777 0.7500001 0.6027778 0.8333333 0.3972222 0.75 0.6027778 0.74 0.6027777 0.7500001 0.2083333 0.74 0.3333333 0.7916666 0.2083333 0.75 0.3333333 0.7916666 0.3972222 0.9166666 0.375 0.9166666 0.7083332 0.74 0.7916668 0.75 0.6666667 0.7916666 0.625 0.9166667 0.6027778 0.8333333 0.6666667 0.7916666 0.2916666 0.5099999 0.2083333 0.74 0.2083333 0.51 0.6027778 0.00999999 0.3972223 0.24 0.3972222 0.00999999 0.6027778 0.8333333 0.3972222 0.9166666 0.3972222 0.8333334 0.7916666 0.51 0.7083332 0.74 0.7083334 0.51 0.6027778 0.3333334 0.3972222 0.4166666 0.3972222 0.3333333 0.6027778 0.51 0.3972222 0.74 0.3972222 0.51 0.2083333 0.74 0.2083333 0.75 0.1602208 0.75 0.3972222 0.9166666 0.3972222 1 0.3843922 1 0.3972222 0.00999999 0.375 0.00999999 0.375 0.004226505 0.6027777 0.9166666 0.625 0.9166667 0.625 0.9647792 0.7916666 0.74 0.8750001 0.7400001 0.875 0.7457735 0.6027778 0.00999999 0.6027777 0 0.6156079 0 0.2083333 0.51 0.125 0.51 0.125 0.5042265 0.3972223 0.24 0.3972222 0.25 0.3796961 0.2676104 0.3972222 0.3333333 0.375 0.3333333 0.3796961 0.2676104 0.7916666 0.51 0.7916666 0.5 0.8397792 0.5 0.6027778 0.3333334 0.6027777 0.25 0.6203039 0.2478867 0.6027778 0.24 0.625 0.24 0.6203039 0.2478867 0.2916667 0.74 0.375 0.74 0.3781307 0.7603315 0.3972222 0.74 0.3972222 0.75 0.3781307 0.7603315 0.3972222 0.8333334 0.3333333 0.7916666 0.3781307 0.7603315 0.7083332 0.74 0.6666667 0.7916666 0.6336095 0.7485911 0.6027778 0.8333333 0.6027777 0.7500001 0.6336095 0.7485911 0.6027778 0.74 0.6249999 0.74 0.6336095 0.7485911 0.2916666 0.5099999 0.3333333 0.4583333 0.3663905 0.5014088 0.3972222 0.4166666 0.3972222 0.5 0.3663905 0.5014088 0.3972222 0.51 0.375 0.5100001 0.3663905 0.5014088 0.7083334 0.51 0.625 0.51 0.6218693 0.4896685 0.6027778 0.51 0.6027777 0.5 0.6218693 0.4896685 0.6027777 0.4166666 0.6666666 0.4583334 0.6218693 0.4896685 0.2083333 0.74 0.125 0.74 0.125 0.51 0.375 0.00999999 0.3972222 0.00999999 0.3972223 0.24 0.6027777 0.9166666 0.6027778 1 0.3972222 1 0.6027777 0 0.6027778 0.00999999 0.3972222 0.00999999 0.7916666 0.51 0.8750001 0.5100001 0.8750001 0.7400001 0.625 0.24 0.6027778 0.24 0.6027778 0.00999999 0.3972222 0.3333333 0.3972222 0.25 0.6027777 0.25 0.3972222 0.25 0.3972223 0.24 0.6027778 0.24 0.2916666 0.5099999 0.2083333 0.51 0.2083333 0.5 0.375 0.3333333 0.3972222 0.3333333 0.3972222 0.4166666 0.7916666 0.51 0.7083334 0.51 0.6666666 0.4583334 0.6666666 0.4583334 0.6027777 0.4166666 0.6027778 0.3333334 0.3972222 0.51 0.3972222 0.5 0.6027777 0.5 0.3972222 0.5 0.3972222 0.4166666 0.6027777 0.4166666 0.2916666 0.5099999 0.375 0.5100001 0.375 0.74 0.375 0.5100001 0.3972222 0.51 0.3972222 0.74 0.7083332 0.74 0.6249999 0.74 0.625 0.51 0.6249999 0.74 0.6027778 0.74 0.6027778 0.51 0.3972222 0.8333334 0.3972222 0.75 0.6027777 0.7500001 0.3972222 0.75 0.3972222 0.74 0.6027778 0.74 0.2083333 0.74 0.2916667 0.74 0.3333333 0.7916666 0.3333333 0.7916666 0.3972222 0.8333334 0.3972222 0.9166666 0.7083332 0.74 0.7916666 0.74 0.7916668 0.75 0.625 0.9166667 0.6027777 0.9166666 0.6027778 0.8333333 0.2916666 0.5099999 0.2916667 0.74 0.2083333 0.74 0.6027778 0.00999999 0.6027778 0.24 0.3972223 0.24 0.6027778 0.8333333 0.6027777 0.9166666 0.3972222 0.9166666 0.7916666 0.51 0.7916666 0.74 0.7083332 0.74 0.6027778 0.3333334 0.6027777 0.4166666 0.3972222 0.4166666 0.6027778 0.51 0.6027778 0.74 0.3972222 0.74</float_array>
          <technique_common>
            <accessor source="#ericrolph_cannon_car_wash_minicar_Screen_mesh-mesh-map-0-array" count="324" stride="2">
              <param name="S" type="float"/>
              <param name="T" type="float"/>
            </accessor>
          </technique_common>
        </source>
        <vertices id="ericrolph_cannon_car_wash_minicar_Screen_mesh-mesh-vertices">
          <input semantic="POSITION" source="#ericrolph_cannon_car_wash_minicar_Screen_mesh-mesh-positions"/>
        </vertices>
        <triangles material="ericrolph_cannon_car_wash_glass-material" count="108">
          <input semantic="VERTEX" source="#ericrolph_cannon_car_wash_minicar_Screen_mesh-mesh-vertices" offset="0"/>
          <input semantic="NORMAL" source="#ericrolph_cannon_car_wash_minicar_Screen_mesh-mesh-normals" offset="1"/>
          <input semantic="TEXCOORD" source="#ericrolph_cannon_car_wash_minicar_Screen_mesh-mesh-map-0" offset="2" set="0"/>
          <p>0 0 0 4 0 1 6 0 2 1 1 3 4 1 4 3 1 5 2 2 6 4 2 7 5 2 8 7 3 9 11 3 10 13 3 11 8 4 12 11 4 13 10 4 14 9 5 15 11 5 16 12 5 17 14 6 18 18 6 19 20 6 20 15 7 21 18 7 22 17 7 23 16 8 24 18 8 25 19 8 26 21 9 27 25 9 28 27 9 29 22 10 30 25 10 31 24 10 32 23 11 33 25 11 34 26 11 35 28 12 36 32 12 37 34 12 38 29 13 39 32 13 40 31 13 41 30 14 42 32 14 43 33 14 44 35 15 45 39 15 46 41 15 47 36 16 48 39 16 49 38 16 50 37 17 51 39 17 52 40 17 53 42 18 54 46 18 55 48 18 56 43 19 57 46 19 58 45 19 59 44 20 60 46 20 61 47 20 62 49 21 63 53 21 64 55 21 65 50 22 66 53 22 67 52 22 68 51 23 69 53 23 70 54 23 71 0 24 72 17 24 73 14 24 74 6 25 75 15 25 76 17 25 77 7 26 78 5 26 79 1 26 80 13 27 81 2 27 82 5 27 83 21 28 84 12 28 85 8 28 86 27 29 87 9 29 88 12 29 89 16 30 90 26 30 91 22 30 92 19 31 93 23 31 94 26 31 95 42 32 96 20 32 97 45 32 98 20 33 99 43 33 100 45 33 101 21 34 102 55 34 103 24 34 104 55 35 105 22 35 106 24 35 107 44 36 108 54 36 109 50 36 110 47 37 111 51 37 112 54 37 113 42 38 114 31 38 115 28 38 116 48 39 117 29 39 118 31 39 119 35 40 120 52 40 121 49 40 122 41 41 123 50 41 124 52 41 125 30 42 126 40 42 127 36 42 128 33 43 129 37 43 130 40 43 131 0 44 132 34 44 133 3 44 134 34 45 135 1 45 136 3 45 137 35 46 138 10 46 139 38 46 140 10 47 141 36 47 142 38 47 143 42 48 144 0 48 145 14 48 146 9 49 147 15 49 148 2 49 149 36 50 150 1 50 151 30 50 152 21 51 153 35 51 154 49 51 155 22 52 156 43 52 157 16 52 158 50 53 159 29 53 160 44 53 161 0 54 162 3 54 163 4 54 164 1 55 165 5 55 166 4 55 167 2 56 168 6 56 169 4 56 170 7 57 171 10 57 172 11 57 173 8 58 174 12 58 175 11 58 176 9 59 177 13 59 178 11 59 179 14 60 180 17 60 181 18 60 182 15 61 183 19 61 184 18 61 185 16 62 186 20 62 187 18 62 188 21 63 189 24 63 190 25 63 191 22 64 192 26 64 193 25 64 194 23 65 195 27 65 196 25 65 197 28 66 198 31 66 199 32 66 200 29 67 201 33 67 202 32 67 203 30 68 204 34 68 205 32 68 206 35 69 207 38 69 208 39 69 209 36 70 210 40 70 211 39 70 212 37 71 213 41 71 214 39 71 215 42 72 216 45 72 217 46 72 218 43 73 219 47 73 220 46 73 221 44 74 222 48 74 223 46 74 224 49 75 225 52 75 226 53 75 227 50 76 228 54 76 229 53 76 230 51 77 231 55 77 232 53 77 233 0 78 234 6 78 235 17 78 236 6 79 237 2 79 238 15 79 239 7 80 240 13 80 241 5 80 242 13 81 243 9 81 244 2 81 245 21 82 246 27 82 247 12 82 248 27 83 249 23 83 250 9 83 251 16 84 252 19 84 253 26 84 254 19 85 255 15 85 256 23 85 257 42 86 258 14 86 259 20 86 260 20 87 261 16 87 262 43 87 263 21 88 264 49 88 265 55 88 266 55 89 267 51 89 268 22 89 269 44 90 270 47 90 271 54 90 272 47 91 273 43 91 274 51 91 275 42 92 276 48 92 277 31 92 278 48 93 279 44 93 280 29 93 281 35 94 282 41 94 283 52 94 284 41 95 285 37 95 286 50 95 287 30 96 288 33 96 289 40 96 290 33 97 291 29 97 292 37 97 293 0 98 294 28 98 295 34 98 296 34 99 297 30 99 298 1 99 299 35 100 300 8 100 301 10 100 302 10 101 303 7 101 304 36 101 305 42 102 306 28 102 307 0 102 308 9 103 309 23 103 310 15 103 311 36 104 312 7 104 313 1 104 314 21 105 315 8 105 316 35 105 317 22 106 318 51 106 319 43 106 320 50 107 321 37 107 322 29 107 323</p>
        </triangles>
      </mesh>
    </geometry>
    <geometry id="ericrolph_cannon_car_wash_minicar_Wheel_-0_095_-1_0_mesh-mesh" name="ericrolph_cannon_car_wash_minicar_Wheel_-0.095_-1.0_mesh">
      <mesh>
        <source id="ericrolph_cannon_car_wash_minicar_Wheel_-0_095_-1_0_mesh-mesh-positions">
          <float_array id="ericrolph_cannon_car_wash_minicar_Wheel_-0_095_-1_0_mesh-mesh-positions-array" count="72">0 0.04199999 -0.01499998 0 0.04199999 0.01499998 0.02099996 0.03637301 -0.01499998 0.02099996 0.03637301 0.01499998 0.03637301 0.02099996 -0.01499998 0.03637301 0.02099996 0.01499998 0.04199999 0 -0.01499998 0.04199999 0 0.01499998 0.03637301 -0.02099996 -0.01499998 0.03637301 -0.02099996 0.01499998 0.02099996 -0.03637301 -0.01499998 0.02099996 -0.03637301 0.01499998 0 -0.04199999 -0.01499998 0 -0.04199999 0.01499998 -0.02099996 -0.03637301 -0.01499998 -0.02099996 -0.03637301 0.01499998 -0.03637301 -0.02099996 -0.01499998 -0.03637301 -0.02099996 0.01499998 -0.04199999 0 -0.01499998 -0.04199999 0 0.01499998 -0.03637301 0.02099996 -0.01499998 -0.03637301 0.02099996 0.01499998 -0.02099996 0.03637301 -0.01499998 -0.02099996 0.03637301 0.01499998</float_array>
          <technique_common>
            <accessor source="#ericrolph_cannon_car_wash_minicar_Wheel_-0_095_-1_0_mesh-mesh-positions-array" count="24" stride="3">
              <param name="X" type="float"/>
              <param name="Y" type="float"/>
              <param name="Z" type="float"/>
            </accessor>
          </technique_common>
        </source>
        <source id="ericrolph_cannon_car_wash_minicar_Wheel_-0_095_-1_0_mesh-mesh-normals">
          <float_array id="ericrolph_cannon_car_wash_minicar_Wheel_-0_095_-1_0_mesh-mesh-normals-array" count="132">0.258819 0.9659259 0 0.7071068 0.7071068 0 0.9659259 0.258819 0 0.9659259 -0.258819 0 0.7071068 -0.7071068 0 0.258819 -0.9659259 0 -0.258819 -0.9659259 0 -0.7071068 -0.7071068 0 -0.9659259 -0.258819 0 -0.9659259 0.258819 0 0 0 1 -0.7071068 0.7071068 0 -0.258819 0.9659259 0 0 0 -1 0.258819 0.9659259 0 0.7071068 0.7071068 0 0.9659259 0.258819 0 0.9659259 -0.258819 0 0.7071068 -0.7071068 0 0.258819 -0.9659259 0 -0.258819 -0.9659259 0 -0.7071068 -0.7071068 0 -0.9659259 -0.258819 0 -0.9659259 0.258819 0 0 0 1 0 0 1 0 0 1 0 0 1 0 0 1 0 0 1 0 0 1 0 0 1 0 0 1 -0.7071068 0.7071068 0 -0.258819 0.9659259 0 0 0 -1 0 0 -1 0 0 -1 0 0 -1 0 0 -1 0 0 -1 0 0 -1 0 0 -1 0 0 -1</float_array>
          <technique_common>
            <accessor source="#ericrolph_cannon_car_wash_minicar_Wheel_-0_095_-1_0_mesh-mesh-normals-array" count="44" stride="3">
              <param name="X" type="float"/>
              <param name="Y" type="float"/>
              <param name="Z" type="float"/>
            </accessor>
          </technique_common>
        </source>
        <source id="ericrolph_cannon_car_wash_minicar_Wheel_-0_095_-1_0_mesh-mesh-map-0">
          <float_array id="ericrolph_cannon_car_wash_minicar_Wheel_-0_095_-1_0_mesh-mesh-map-0-array" count="264">1 1 0.9166667 0.5 1 0.5 0.9166667 1 0.8333334 0.5 0.9166667 0.5 0.8333334 1 0.7500001 0.5 0.8333334 0.5 0.7500001 1 0.6666668 0.5 0.7500001 0.5 0.6666668 1 0.5833334 0.5 0.6666668 0.5 0.5833334 1 0.5000001 0.5 0.5833334 0.5 0.5000001 1 0.4166668 0.5 0.5000001 0.5 0.4166668 1 0.3333334 0.5 0.4166668 0.5 0.3333334 1 0.2500001 0.5 0.3333334 0.5 0.2500001 1 0.1666667 0.5 0.2500001 0.5 0.04215389 0.37 0.25 0.00999999 0.4578461 0.37 0.1666667 1 0.08333337 0.5 0.1666667 0.5 0.08333337 1 0 0.5 0.08333337 0.5 0.99 0.25 0.63 0.04215389 0.63 0.4578461 1 1 0.9166667 1 0.9166667 0.5 0.9166667 1 0.8333334 1 0.8333334 0.5 0.8333334 1 0.7500001 1 0.7500001 0.5 0.7500001 1 0.6666668 1 0.6666668 0.5 0.6666668 1 0.5833334 1 0.5833334 0.5 0.5833334 1 0.5000001 1 0.5000001 0.5 0.5000001 1 0.4166668 1 0.4166668 0.5 0.4166668 1 0.3333334 1 0.3333334 0.5 0.3333334 1 0.2500001 1 0.2500001 0.5 0.2500001 1 0.1666667 1 0.1666667 0.5 0.4578461 0.37 0.37 0.4578461 0.25 0.49 0.25 0.49 0.1299999 0.4578461 0.04215389 0.37 0.04215389 0.37 0.00999999 0.25 0.25 0.00999999 0.00999999 0.25 0.04215389 0.1299999 0.25 0.00999999 0.04215389 0.1299999 0.1299999 0.04215389 0.25 0.00999999 0.25 0.00999999 0.37 0.04215389 0.4578461 0.1299999 0.4578461 0.1299999 0.49 0.25 0.25 0.00999999 0.49 0.25 0.4578461 0.37 0.25 0.00999999 0.4578461 0.37 0.25 0.49 0.04215389 0.37 0.1666667 1 0.08333337 1 0.08333337 0.5 0.08333337 1 0 1 0 0.5 0.63 0.4578461 0.75 0.49 0.99 0.25 0.75 0.49 0.87 0.4578461 0.99 0.25 0.87 0.4578461 0.9578461 0.37 0.99 0.25 0.99 0.25 0.9578461 0.1299999 0.87 0.04215389 0.87 0.04215389 0.75 0.00999999 0.99 0.25 0.75 0.00999999 0.63 0.04215389 0.99 0.25 0.63 0.04215389 0.5421539 0.1299999 0.51 0.25 0.51 0.25 0.5421539 0.37 0.63 0.4578461 0.63 0.04215389 0.51 0.25 0.63 0.4578461</float_array>
          <technique_common>
            <accessor source="#ericrolph_cannon_car_wash_minicar_Wheel_-0_095_-1_0_mesh-mesh-map-0-array" count="132" stride="2">
              <param name="S" type="float"/>
              <param name="T" type="float"/>
            </accessor>
          </technique_common>
        </source>
        <vertices id="ericrolph_cannon_car_wash_minicar_Wheel_-0_095_-1_0_mesh-mesh-vertices">
          <input semantic="POSITION" source="#ericrolph_cannon_car_wash_minicar_Wheel_-0_095_-1_0_mesh-mesh-positions"/>
        </vertices>
        <triangles material="ericrolph_cannon_car_wash_rubber-material" count="44">
          <input semantic="VERTEX" source="#ericrolph_cannon_car_wash_minicar_Wheel_-0_095_-1_0_mesh-mesh-vertices" offset="0"/>
          <input semantic="NORMAL" source="#ericrolph_cannon_car_wash_minicar_Wheel_-0_095_-1_0_mesh-mesh-normals" offset="1"/>
          <input semantic="TEXCOORD" source="#ericrolph_cannon_car_wash_minicar_Wheel_-0_095_-1_0_mesh-mesh-map-0" offset="2" set="0"/>
          <p>1 0 0 2 0 1 0 0 2 3 1 3 4 1 4 2 1 5 5 2 6 6 2 7 4 2 8 7 3 9 8 3 10 6 3 11 9 4 12 10 4 13 8 4 14 11 5 15 12 5 16 10 5 17 13 6 18 14 6 19 12 6 20 15 7 21 16 7 22 14 7 23 17 8 24 18 8 25 16 8 26 19 9 27 20 9 28 18 9 29 21 10 30 13 10 31 5 10 32 21 11 33 22 11 34 20 11 35 23 12 36 0 12 37 22 12 38 6 13 39 14 13 40 22 13 41 1 14 42 3 14 43 2 14 44 3 15 45 5 15 46 4 15 47 5 16 48 7 16 49 6 16 50 7 17 51 9 17 52 8 17 53 9 18 54 11 18 55 10 18 56 11 19 57 13 19 58 12 19 59 13 20 60 15 20 61 14 20 62 15 21 63 17 21 64 16 21 65 17 22 66 19 22 67 18 22 68 19 23 69 21 23 70 20 23 71 5 24 72 3 24 73 1 24 74 1 25 75 23 25 76 21 25 77 21 26 78 19 26 79 13 26 80 19 27 81 17 27 82 13 27 83 17 28 84 15 28 85 13 28 86 13 29 87 11 29 88 9 29 89 9 30 90 7 30 91 13 30 92 7 31 93 5 31 94 13 31 95 5 32 96 1 32 97 21 32 98 21 33 99 23 33 100 22 33 101 23 34 102 1 34 103 0 34 104 22 35 105 0 35 106 6 35 107 0 36 108 2 36 109 6 36 110 2 37 111 4 37 112 6 37 113 6 38 114 8 38 115 10 38 116 10 39 117 12 39 118 6 39 119 12 40 120 14 40 121 6 40 122 14 41 123 16 41 124 18 41 125 18 42 126 20 42 127 22 42 128 14 43 129 18 43 130 22 43 131</p>
        </triangles>
      </mesh>
    </geometry>
    <geometry id="ericrolph_cannon_car_wash_minicar_Wheel_-0_095_1_0_mesh-mesh" name="ericrolph_cannon_car_wash_minicar_Wheel_-0.095_1.0_mesh">
      <mesh>
        <source id="ericrolph_cannon_car_wash_minicar_Wheel_-0_095_1_0_mesh-mesh-positions">
          <float_array id="ericrolph_cannon_car_wash_minicar_Wheel_-0_095_1_0_mesh-mesh-positions-array" count="72">0 0.04199999 -0.01499998 0 0.04199999 0.01499998 0.02099996 0.03637301 -0.01499998 0.02099996 0.03637301 0.01499998 0.03637301 0.02099996 -0.01499998 0.03637301 0.02099996 0.01499998 0.04199999 0 -0.01499998 0.04199999 0 0.01499998 0.03637301 -0.02099996 -0.01499998 0.03637301 -0.02099996 0.01499998 0.02099996 -0.03637301 -0.01499998 0.02099996 -0.03637301 0.01499998 0 -0.04199999 -0.01499998 0 -0.04199999 0.01499998 -0.02099996 -0.03637301 -0.01499998 -0.02099996 -0.03637301 0.01499998 -0.03637301 -0.02099996 -0.01499998 -0.03637301 -0.02099996 0.01499998 -0.04199999 0 -0.01499998 -0.04199999 0 0.01499998 -0.03637301 0.02099996 -0.01499998 -0.03637301 0.02099996 0.01499998 -0.02099996 0.03637301 -0.01499998 -0.02099996 0.03637301 0.01499998</float_array>
          <technique_common>
            <accessor source="#ericrolph_cannon_car_wash_minicar_Wheel_-0_095_1_0_mesh-mesh-positions-array" count="24" stride="3">
              <param name="X" type="float"/>
              <param name="Y" type="float"/>
              <param name="Z" type="float"/>
            </accessor>
          </technique_common>
        </source>
        <source id="ericrolph_cannon_car_wash_minicar_Wheel_-0_095_1_0_mesh-mesh-normals">
          <float_array id="ericrolph_cannon_car_wash_minicar_Wheel_-0_095_1_0_mesh-mesh-normals-array" count="132">0.258819 0.9659259 0 0.7071068 0.7071068 0 0.9659259 0.258819 0 0.9659259 -0.258819 0 0.7071068 -0.7071068 0 0.258819 -0.9659259 0 -0.258819 -0.9659259 0 -0.7071068 -0.7071068 0 -0.9659259 -0.258819 0 -0.9659259 0.258819 0 0 0 1 -0.7071068 0.7071068 0 -0.258819 0.9659259 0 0 0 -1 0.258819 0.9659259 0 0.7071068 0.7071068 0 0.9659259 0.258819 0 0.9659259 -0.258819 0 0.7071068 -0.7071068 0 0.258819 -0.9659259 0 -0.258819 -0.9659259 0 -0.7071068 -0.7071068 0 -0.9659259 -0.258819 0 -0.9659259 0.258819 0 0 0 1 0 0 1 0 0 1 0 0 1 0 0 1 0 0 1 0 0 1 0 0 1 0 0 1 -0.7071068 0.7071068 0 -0.258819 0.9659259 0 0 0 -1 0 0 -1 0 0 -1 0 0 -1 0 0 -1 0 0 -1 0 0 -1 0 0 -1 0 0 -1</float_array>
          <technique_common>
            <accessor source="#ericrolph_cannon_car_wash_minicar_Wheel_-0_095_1_0_mesh-mesh-normals-array" count="44" stride="3">
              <param name="X" type="float"/>
              <param name="Y" type="float"/>
              <param name="Z" type="float"/>
            </accessor>
          </technique_common>
        </source>
        <source id="ericrolph_cannon_car_wash_minicar_Wheel_-0_095_1_0_mesh-mesh-map-0">
          <float_array id="ericrolph_cannon_car_wash_minicar_Wheel_-0_095_1_0_mesh-mesh-map-0-array" count="264">1 1 0.9166667 0.5 1 0.5 0.9166667 1 0.8333334 0.5 0.9166667 0.5 0.8333334 1 0.7500001 0.5 0.8333334 0.5 0.7500001 1 0.6666668 0.5 0.7500001 0.5 0.6666668 1 0.5833334 0.5 0.6666668 0.5 0.5833334 1 0.5000001 0.5 0.5833334 0.5 0.5000001 1 0.4166668 0.5 0.5000001 0.5 0.4166668 1 0.3333334 0.5 0.4166668 0.5 0.3333334 1 0.2500001 0.5 0.3333334 0.5 0.2500001 1 0.1666667 0.5 0.2500001 0.5 0.04215389 0.37 0.25 0.00999999 0.4578461 0.37 0.1666667 1 0.08333337 0.5 0.1666667 0.5 0.08333337 1 0 0.5 0.08333337 0.5 0.99 0.25 0.63 0.04215389 0.63 0.4578461 1 1 0.9166667 1 0.9166667 0.5 0.9166667 1 0.8333334 1 0.8333334 0.5 0.8333334 1 0.7500001 1 0.7500001 0.5 0.7500001 1 0.6666668 1 0.6666668 0.5 0.6666668 1 0.5833334 1 0.5833334 0.5 0.5833334 1 0.5000001 1 0.5000001 0.5 0.5000001 1 0.4166668 1 0.4166668 0.5 0.4166668 1 0.3333334 1 0.3333334 0.5 0.3333334 1 0.2500001 1 0.2500001 0.5 0.2500001 1 0.1666667 1 0.1666667 0.5 0.4578461 0.37 0.37 0.4578461 0.25 0.49 0.25 0.49 0.1299999 0.4578461 0.04215389 0.37 0.04215389 0.37 0.00999999 0.25 0.25 0.00999999 0.00999999 0.25 0.04215389 0.1299999 0.25 0.00999999 0.04215389 0.1299999 0.1299999 0.04215389 0.25 0.00999999 0.25 0.00999999 0.37 0.04215389 0.4578461 0.1299999 0.4578461 0.1299999 0.49 0.25 0.25 0.00999999 0.49 0.25 0.4578461 0.37 0.25 0.00999999 0.4578461 0.37 0.25 0.49 0.04215389 0.37 0.1666667 1 0.08333337 1 0.08333337 0.5 0.08333337 1 0 1 0 0.5 0.63 0.4578461 0.75 0.49 0.99 0.25 0.75 0.49 0.87 0.4578461 0.99 0.25 0.87 0.4578461 0.9578461 0.37 0.99 0.25 0.99 0.25 0.9578461 0.1299999 0.87 0.04215389 0.87 0.04215389 0.75 0.00999999 0.99 0.25 0.75 0.00999999 0.63 0.04215389 0.99 0.25 0.63 0.04215389 0.5421539 0.1299999 0.51 0.25 0.51 0.25 0.5421539 0.37 0.63 0.4578461 0.63 0.04215389 0.51 0.25 0.63 0.4578461</float_array>
          <technique_common>
            <accessor source="#ericrolph_cannon_car_wash_minicar_Wheel_-0_095_1_0_mesh-mesh-map-0-array" count="132" stride="2">
              <param name="S" type="float"/>
              <param name="T" type="float"/>
            </accessor>
          </technique_common>
        </source>
        <vertices id="ericrolph_cannon_car_wash_minicar_Wheel_-0_095_1_0_mesh-mesh-vertices">
          <input semantic="POSITION" source="#ericrolph_cannon_car_wash_minicar_Wheel_-0_095_1_0_mesh-mesh-positions"/>
        </vertices>
        <triangles material="ericrolph_cannon_car_wash_rubber-material" count="44">
          <input semantic="VERTEX" source="#ericrolph_cannon_car_wash_minicar_Wheel_-0_095_1_0_mesh-mesh-vertices" offset="0"/>
          <input semantic="NORMAL" source="#ericrolph_cannon_car_wash_minicar_Wheel_-0_095_1_0_mesh-mesh-normals" offset="1"/>
          <input semantic="TEXCOORD" source="#ericrolph_cannon_car_wash_minicar_Wheel_-0_095_1_0_mesh-mesh-map-0" offset="2" set="0"/>
          <p>1 0 0 2 0 1 0 0 2 3 1 3 4 1 4 2 1 5 5 2 6 6 2 7 4 2 8 7 3 9 8 3 10 6 3 11 9 4 12 10 4 13 8 4 14 11 5 15 12 5 16 10 5 17 13 6 18 14 6 19 12 6 20 15 7 21 16 7 22 14 7 23 17 8 24 18 8 25 16 8 26 19 9 27 20 9 28 18 9 29 21 10 30 13 10 31 5 10 32 21 11 33 22 11 34 20 11 35 23 12 36 0 12 37 22 12 38 6 13 39 14 13 40 22 13 41 1 14 42 3 14 43 2 14 44 3 15 45 5 15 46 4 15 47 5 16 48 7 16 49 6 16 50 7 17 51 9 17 52 8 17 53 9 18 54 11 18 55 10 18 56 11 19 57 13 19 58 12 19 59 13 20 60 15 20 61 14 20 62 15 21 63 17 21 64 16 21 65 17 22 66 19 22 67 18 22 68 19 23 69 21 23 70 20 23 71 5 24 72 3 24 73 1 24 74 1 25 75 23 25 76 21 25 77 21 26 78 19 26 79 13 26 80 19 27 81 17 27 82 13 27 83 17 28 84 15 28 85 13 28 86 13 29 87 11 29 88 9 29 89 9 30 90 7 30 91 13 30 92 7 31 93 5 31 94 13 31 95 5 32 96 1 32 97 21 32 98 21 33 99 23 33 100 22 33 101 23 34 102 1 34 103 0 34 104 22 35 105 0 35 106 6 35 107 0 36 108 2 36 109 6 36 110 2 37 111 4 37 112 6 37 113 6 38 114 8 38 115 10 38 116 10 39 117 12 39 118 6 39 119 12 40 120 14 40 121 6 40 122 14 41 123 16 41 124 18 41 125 18 42 126 20 42 127 22 42 128 14 43 129 18 43 130 22 43 131</p>
        </triangles>
      </mesh>
    </geometry>
    <geometry id="ericrolph_cannon_car_wash_minicar_Wheel_0_095_-1_0_mesh-mesh" name="ericrolph_cannon_car_wash_minicar_Wheel_0.095_-1.0_mesh">
      <mesh>
        <source id="ericrolph_cannon_car_wash_minicar_Wheel_0_095_-1_0_mesh-mesh-positions">
          <float_array id="ericrolph_cannon_car_wash_minicar_Wheel_0_095_-1_0_mesh-mesh-positions-array" count="72">0 0.04199999 -0.01499998 0 0.04199999 0.01499998 0.02099996 0.03637301 -0.01499998 0.02099996 0.03637301 0.01499998 0.03637301 0.02099996 -0.01499998 0.03637301 0.02099996 0.01499998 0.04199999 0 -0.01499998 0.04199999 0 0.01499998 0.03637301 -0.02099996 -0.01499998 0.03637301 -0.02099996 0.01499998 0.02099996 -0.03637301 -0.01499998 0.02099996 -0.03637301 0.01499998 0 -0.04199999 -0.01499998 0 -0.04199999 0.01499998 -0.02099996 -0.03637301 -0.01499998 -0.02099996 -0.03637301 0.01499998 -0.03637301 -0.02099996 -0.01499998 -0.03637301 -0.02099996 0.01499998 -0.04199999 0 -0.01499998 -0.04199999 0 0.01499998 -0.03637301 0.02099996 -0.01499998 -0.03637301 0.02099996 0.01499998 -0.02099996 0.03637301 -0.01499998 -0.02099996 0.03637301 0.01499998</float_array>
          <technique_common>
            <accessor source="#ericrolph_cannon_car_wash_minicar_Wheel_0_095_-1_0_mesh-mesh-positions-array" count="24" stride="3">
              <param name="X" type="float"/>
              <param name="Y" type="float"/>
              <param name="Z" type="float"/>
            </accessor>
          </technique_common>
        </source>
        <source id="ericrolph_cannon_car_wash_minicar_Wheel_0_095_-1_0_mesh-mesh-normals">
          <float_array id="ericrolph_cannon_car_wash_minicar_Wheel_0_095_-1_0_mesh-mesh-normals-array" count="132">0.258819 0.9659259 0 0.7071068 0.7071068 0 0.9659259 0.258819 0 0.9659259 -0.258819 0 0.7071068 -0.7071068 0 0.258819 -0.9659259 0 -0.258819 -0.9659259 0 -0.7071068 -0.7071068 0 -0.9659259 -0.258819 0 -0.9659259 0.258819 0 0 0 1 -0.7071068 0.7071068 0 -0.258819 0.9659259 0 0 0 -1 0.258819 0.9659259 0 0.7071068 0.7071068 0 0.9659259 0.258819 0 0.9659259 -0.258819 0 0.7071068 -0.7071068 0 0.258819 -0.9659259 0 -0.258819 -0.9659259 0 -0.7071068 -0.7071068 0 -0.9659259 -0.258819 0 -0.9659259 0.258819 0 0 0 1 0 0 1 0 0 1 0 0 1 0 0 1 0 0 1 0 0 1 0 0 1 0 0 1 -0.7071068 0.7071068 0 -0.258819 0.9659259 0 0 0 -1 0 0 -1 0 0 -1 0 0 -1 0 0 -1 0 0 -1 0 0 -1 0 0 -1 0 0 -1</float_array>
          <technique_common>
            <accessor source="#ericrolph_cannon_car_wash_minicar_Wheel_0_095_-1_0_mesh-mesh-normals-array" count="44" stride="3">
              <param name="X" type="float"/>
              <param name="Y" type="float"/>
              <param name="Z" type="float"/>
            </accessor>
          </technique_common>
        </source>
        <source id="ericrolph_cannon_car_wash_minicar_Wheel_0_095_-1_0_mesh-mesh-map-0">
          <float_array id="ericrolph_cannon_car_wash_minicar_Wheel_0_095_-1_0_mesh-mesh-map-0-array" count="264">1 1 0.9166667 0.5 1 0.5 0.9166667 1 0.8333334 0.5 0.9166667 0.5 0.8333334 1 0.7500001 0.5 0.8333334 0.5 0.7500001 1 0.6666668 0.5 0.7500001 0.5 0.6666668 1 0.5833334 0.5 0.6666668 0.5 0.5833334 1 0.5000001 0.5 0.5833334 0.5 0.5000001 1 0.4166668 0.5 0.5000001 0.5 0.4166668 1 0.3333334 0.5 0.4166668 0.5 0.3333334 1 0.2500001 0.5 0.3333334 0.5 0.2500001 1 0.1666667 0.5 0.2500001 0.5 0.04215389 0.37 0.25 0.00999999 0.4578461 0.37 0.1666667 1 0.08333337 0.5 0.1666667 0.5 0.08333337 1 0 0.5 0.08333337 0.5 0.99 0.25 0.63 0.04215389 0.63 0.4578461 1 1 0.9166667 1 0.9166667 0.5 0.9166667 1 0.8333334 1 0.8333334 0.5 0.8333334 1 0.7500001 1 0.7500001 0.5 0.7500001 1 0.6666668 1 0.6666668 0.5 0.6666668 1 0.5833334 1 0.5833334 0.5 0.5833334 1 0.5000001 1 0.5000001 0.5 0.5000001 1 0.4166668 1 0.4166668 0.5 0.4166668 1 0.3333334 1 0.3333334 0.5 0.3333334 1 0.2500001 1 0.2500001 0.5 0.2500001 1 0.1666667 1 0.1666667 0.5 0.4578461 0.37 0.37 0.4578461 0.25 0.49 0.25 0.49 0.1299999 0.4578461 0.04215389 0.37 0.04215389 0.37 0.00999999 0.25 0.25 0.00999999 0.00999999 0.25 0.04215389 0.1299999 0.25 0.00999999 0.04215389 0.1299999 0.1299999 0.04215389 0.25 0.00999999 0.25 0.00999999 0.37 0.04215389 0.4578461 0.1299999 0.4578461 0.1299999 0.49 0.25 0.25 0.00999999 0.49 0.25 0.4578461 0.37 0.25 0.00999999 0.4578461 0.37 0.25 0.49 0.04215389 0.37 0.1666667 1 0.08333337 1 0.08333337 0.5 0.08333337 1 0 1 0 0.5 0.63 0.4578461 0.75 0.49 0.99 0.25 0.75 0.49 0.87 0.4578461 0.99 0.25 0.87 0.4578461 0.9578461 0.37 0.99 0.25 0.99 0.25 0.9578461 0.1299999 0.87 0.04215389 0.87 0.04215389 0.75 0.00999999 0.99 0.25 0.75 0.00999999 0.63 0.04215389 0.99 0.25 0.63 0.04215389 0.5421539 0.1299999 0.51 0.25 0.51 0.25 0.5421539 0.37 0.63 0.4578461 0.63 0.04215389 0.51 0.25 0.63 0.4578461</float_array>
          <technique_common>
            <accessor source="#ericrolph_cannon_car_wash_minicar_Wheel_0_095_-1_0_mesh-mesh-map-0-array" count="132" stride="2">
              <param name="S" type="float"/>
              <param name="T" type="float"/>
            </accessor>
          </technique_common>
        </source>
        <vertices id="ericrolph_cannon_car_wash_minicar_Wheel_0_095_-1_0_mesh-mesh-vertices">
          <input semantic="POSITION" source="#ericrolph_cannon_car_wash_minicar_Wheel_0_095_-1_0_mesh-mesh-positions"/>
        </vertices>
        <triangles material="ericrolph_cannon_car_wash_rubber-material" count="44">
          <input semantic="VERTEX" source="#ericrolph_cannon_car_wash_minicar_Wheel_0_095_-1_0_mesh-mesh-vertices" offset="0"/>
          <input semantic="NORMAL" source="#ericrolph_cannon_car_wash_minicar_Wheel_0_095_-1_0_mesh-mesh-normals" offset="1"/>
          <input semantic="TEXCOORD" source="#ericrolph_cannon_car_wash_minicar_Wheel_0_095_-1_0_mesh-mesh-map-0" offset="2" set="0"/>
          <p>1 0 0 2 0 1 0 0 2 3 1 3 4 1 4 2 1 5 5 2 6 6 2 7 4 2 8 7 3 9 8 3 10 6 3 11 9 4 12 10 4 13 8 4 14 11 5 15 12 5 16 10 5 17 13 6 18 14 6 19 12 6 20 15 7 21 16 7 22 14 7 23 17 8 24 18 8 25 16 8 26 19 9 27 20 9 28 18 9 29 21 10 30 13 10 31 5 10 32 21 11 33 22 11 34 20 11 35 23 12 36 0 12 37 22 12 38 6 13 39 14 13 40 22 13 41 1 14 42 3 14 43 2 14 44 3 15 45 5 15 46 4 15 47 5 16 48 7 16 49 6 16 50 7 17 51 9 17 52 8 17 53 9 18 54 11 18 55 10 18 56 11 19 57 13 19 58 12 19 59 13 20 60 15 20 61 14 20 62 15 21 63 17 21 64 16 21 65 17 22 66 19 22 67 18 22 68 19 23 69 21 23 70 20 23 71 5 24 72 3 24 73 1 24 74 1 25 75 23 25 76 21 25 77 21 26 78 19 26 79 13 26 80 19 27 81 17 27 82 13 27 83 17 28 84 15 28 85 13 28 86 13 29 87 11 29 88 9 29 89 9 30 90 7 30 91 13 30 92 7 31 93 5 31 94 13 31 95 5 32 96 1 32 97 21 32 98 21 33 99 23 33 100 22 33 101 23 34 102 1 34 103 0 34 104 22 35 105 0 35 106 6 35 107 0 36 108 2 36 109 6 36 110 2 37 111 4 37 112 6 37 113 6 38 114 8 38 115 10 38 116 10 39 117 12 39 118 6 39 119 12 40 120 14 40 121 6 40 122 14 41 123 16 41 124 18 41 125 18 42 126 20 42 127 22 42 128 14 43 129 18 43 130 22 43 131</p>
        </triangles>
      </mesh>
    </geometry>
    <geometry id="ericrolph_cannon_car_wash_minicar_Wheel_0_095_1_0_mesh-mesh" name="ericrolph_cannon_car_wash_minicar_Wheel_0.095_1.0_mesh">
      <mesh>
        <source id="ericrolph_cannon_car_wash_minicar_Wheel_0_095_1_0_mesh-mesh-positions">
          <float_array id="ericrolph_cannon_car_wash_minicar_Wheel_0_095_1_0_mesh-mesh-positions-array" count="72">0 0.04199999 -0.01499998 0 0.04199999 0.01499998 0.02099996 0.03637301 -0.01499998 0.02099996 0.03637301 0.01499998 0.03637301 0.02099996 -0.01499998 0.03637301 0.02099996 0.01499998 0.04199999 0 -0.01499998 0.04199999 0 0.01499998 0.03637301 -0.02099996 -0.01499998 0.03637301 -0.02099996 0.01499998 0.02099996 -0.03637301 -0.01499998 0.02099996 -0.03637301 0.01499998 0 -0.04199999 -0.01499998 0 -0.04199999 0.01499998 -0.02099996 -0.03637301 -0.01499998 -0.02099996 -0.03637301 0.01499998 -0.03637301 -0.02099996 -0.01499998 -0.03637301 -0.02099996 0.01499998 -0.04199999 0 -0.01499998 -0.04199999 0 0.01499998 -0.03637301 0.02099996 -0.01499998 -0.03637301 0.02099996 0.01499998 -0.02099996 0.03637301 -0.01499998 -0.02099996 0.03637301 0.01499998</float_array>
          <technique_common>
            <accessor source="#ericrolph_cannon_car_wash_minicar_Wheel_0_095_1_0_mesh-mesh-positions-array" count="24" stride="3">
              <param name="X" type="float"/>
              <param name="Y" type="float"/>
              <param name="Z" type="float"/>
            </accessor>
          </technique_common>
        </source>
        <source id="ericrolph_cannon_car_wash_minicar_Wheel_0_095_1_0_mesh-mesh-normals">
          <float_array id="ericrolph_cannon_car_wash_minicar_Wheel_0_095_1_0_mesh-mesh-normals-array" count="132">0.258819 0.9659259 0 0.7071068 0.7071068 0 0.9659259 0.258819 0 0.9659259 -0.258819 0 0.7071068 -0.7071068 0 0.258819 -0.9659259 0 -0.258819 -0.9659259 0 -0.7071068 -0.7071068 0 -0.9659259 -0.258819 0 -0.9659259 0.258819 0 0 0 1 -0.7071068 0.7071068 0 -0.258819 0.9659259 0 0 0 -1 0.258819 0.9659259 0 0.7071068 0.7071068 0 0.9659259 0.258819 0 0.9659259 -0.258819 0 0.7071068 -0.7071068 0 0.258819 -0.9659259 0 -0.258819 -0.9659259 0 -0.7071068 -0.7071068 0 -0.9659259 -0.258819 0 -0.9659259 0.258819 0 0 0 1 0 0 1 0 0 1 0 0 1 0 0 1 0 0 1 0 0 1 0 0 1 0 0 1 -0.7071068 0.7071068 0 -0.258819 0.9659259 0 0 0 -1 0 0 -1 0 0 -1 0 0 -1 0 0 -1 0 0 -1 0 0 -1 0 0 -1 0 0 -1</float_array>
          <technique_common>
            <accessor source="#ericrolph_cannon_car_wash_minicar_Wheel_0_095_1_0_mesh-mesh-normals-array" count="44" stride="3">
              <param name="X" type="float"/>
              <param name="Y" type="float"/>
              <param name="Z" type="float"/>
            </accessor>
          </technique_common>
        </source>
        <source id="ericrolph_cannon_car_wash_minicar_Wheel_0_095_1_0_mesh-mesh-map-0">
          <float_array id="ericrolph_cannon_car_wash_minicar_Wheel_0_095_1_0_mesh-mesh-map-0-array" count="264">1 1 0.9166667 0.5 1 0.5 0.9166667 1 0.8333334 0.5 0.9166667 0.5 0.8333334 1 0.7500001 0.5 0.8333334 0.5 0.7500001 1 0.6666668 0.5 0.7500001 0.5 0.6666668 1 0.5833334 0.5 0.6666668 0.5 0.5833334 1 0.5000001 0.5 0.5833334 0.5 0.5000001 1 0.4166668 0.5 0.5000001 0.5 0.4166668 1 0.3333334 0.5 0.4166668 0.5 0.3333334 1 0.2500001 0.5 0.3333334 0.5 0.2500001 1 0.1666667 0.5 0.2500001 0.5 0.04215389 0.37 0.25 0.00999999 0.4578461 0.37 0.1666667 1 0.08333337 0.5 0.1666667 0.5 0.08333337 1 0 0.5 0.08333337 0.5 0.99 0.25 0.63 0.04215389 0.63 0.4578461 1 1 0.9166667 1 0.9166667 0.5 0.9166667 1 0.8333334 1 0.8333334 0.5 0.8333334 1 0.7500001 1 0.7500001 0.5 0.7500001 1 0.6666668 1 0.6666668 0.5 0.6666668 1 0.5833334 1 0.5833334 0.5 0.5833334 1 0.5000001 1 0.5000001 0.5 0.5000001 1 0.4166668 1 0.4166668 0.5 0.4166668 1 0.3333334 1 0.3333334 0.5 0.3333334 1 0.2500001 1 0.2500001 0.5 0.2500001 1 0.1666667 1 0.1666667 0.5 0.4578461 0.37 0.37 0.4578461 0.25 0.49 0.25 0.49 0.1299999 0.4578461 0.04215389 0.37 0.04215389 0.37 0.00999999 0.25 0.25 0.00999999 0.00999999 0.25 0.04215389 0.1299999 0.25 0.00999999 0.04215389 0.1299999 0.1299999 0.04215389 0.25 0.00999999 0.25 0.00999999 0.37 0.04215389 0.4578461 0.1299999 0.4578461 0.1299999 0.49 0.25 0.25 0.00999999 0.49 0.25 0.4578461 0.37 0.25 0.00999999 0.4578461 0.37 0.25 0.49 0.04215389 0.37 0.1666667 1 0.08333337 1 0.08333337 0.5 0.08333337 1 0 1 0 0.5 0.63 0.4578461 0.75 0.49 0.99 0.25 0.75 0.49 0.87 0.4578461 0.99 0.25 0.87 0.4578461 0.9578461 0.37 0.99 0.25 0.99 0.25 0.9578461 0.1299999 0.87 0.04215389 0.87 0.04215389 0.75 0.00999999 0.99 0.25 0.75 0.00999999 0.63 0.04215389 0.99 0.25 0.63 0.04215389 0.5421539 0.1299999 0.51 0.25 0.51 0.25 0.5421539 0.37 0.63 0.4578461 0.63 0.04215389 0.51 0.25 0.63 0.4578461</float_array>
          <technique_common>
            <accessor source="#ericrolph_cannon_car_wash_minicar_Wheel_0_095_1_0_mesh-mesh-map-0-array" count="132" stride="2">
              <param name="S" type="float"/>
              <param name="T" type="float"/>
            </accessor>
          </technique_common>
        </source>
        <vertices id="ericrolph_cannon_car_wash_minicar_Wheel_0_095_1_0_mesh-mesh-vertices">
          <input semantic="POSITION" source="#ericrolph_cannon_car_wash_minicar_Wheel_0_095_1_0_mesh-mesh-positions"/>
        </vertices>
        <triangles material="ericrolph_cannon_car_wash_rubber-material" count="44">
          <input semantic="VERTEX" source="#ericrolph_cannon_car_wash_minicar_Wheel_0_095_1_0_mesh-mesh-vertices" offset="0"/>
          <input semantic="NORMAL" source="#ericrolph_cannon_car_wash_minicar_Wheel_0_095_1_0_mesh-mesh-normals" offset="1"/>
          <input semantic="TEXCOORD" source="#ericrolph_cannon_car_wash_minicar_Wheel_0_095_1_0_mesh-mesh-map-0" offset="2" set="0"/>
          <p>1 0 0 2 0 1 0 0 2 3 1 3 4 1 4 2 1 5 5 2 6 6 2 7 4 2 8 7 3 9 8 3 10 6 3 11 9 4 12 10 4 13 8 4 14 11 5 15 12 5 16 10 5 17 13 6 18 14 6 19 12 6 20 15 7 21 16 7 22 14 7 23 17 8 24 18 8 25 16 8 26 19 9 27 20 9 28 18 9 29 21 10 30 13 10 31 5 10 32 21 11 33 22 11 34 20 11 35 23 12 36 0 12 37 22 12 38 6 13 39 14 13 40 22 13 41 1 14 42 3 14 43 2 14 44 3 15 45 5 15 46 4 15 47 5 16 48 7 16 49 6 16 50 7 17 51 9 17 52 8 17 53 9 18 54 11 18 55 10 18 56 11 19 57 13 19 58 12 19 59 13 20 60 15 20 61 14 20 62 15 21 63 17 21 64 16 21 65 17 22 66 19 22 67 18 22 68 19 23 69 21 23 70 20 23 71 5 24 72 3 24 73 1 24 74 1 25 75 23 25 76 21 25 77 21 26 78 19 26 79 13 26 80 19 27 81 17 27 82 13 27 83 17 28 84 15 28 85 13 28 86 13 29 87 11 29 88 9 29 89 9 30 90 7 30 91 13 30 92 7 31 93 5 31 94 13 31 95 5 32 96 1 32 97 21 32 98 21 33 99 23 33 100 22 33 101 23 34 102 1 34 103 0 34 104 22 35 105 0 35 106 6 35 107 0 36 108 2 36 109 6 36 110 2 37 111 4 37 112 6 37 113 6 38 114 8 38 115 10 38 116 10 39 117 12 39 118 6 39 119 12 40 120 14 40 121 6 40 122 14 41 123 16 41 124 18 41 125 18 42 126 20 42 127 22 42 128 14 43 129 18 43 130 22 43 131</p>
        </triangles>
      </mesh>
    </geometry>
  </library_geometries>
  <library_visual_scenes>
    <visual_scene id="ericrolph_cannon_car_wash_scene" name="ericrolph_cannon_car_wash_scene">
      <node id="ericrolph_cannon_car_wash_minicar_Body" name="ericrolph_cannon_car_wash_minicar_Body" type="NODE">
        <matrix sid="transform">1 0 0 0 0 1 0 0 0 0 1 0.075 0 0 0 1</matrix>
        <instance_geometry url="#ericrolph_cannon_car_wash_minicar_Body_mesh-mesh" name="ericrolph_cannon_car_wash_minicar_Body">
          <bind_material>
            <technique_common>
              <instance_material symbol="ericrolph_cannon_car_wash_safety_orange-material" target="#ericrolph_cannon_car_wash_safety_orange-material">
                <bind_vertex_input semantic="UVMap" input_semantic="TEXCOORD" input_set="0"/>
              </instance_material>
            </technique_common>
          </bind_material>
        </instance_geometry>
      </node>
      <node id="ericrolph_cannon_car_wash_minicar_Cabin" name="ericrolph_cannon_car_wash_minicar_Cabin" type="NODE">
        <matrix sid="transform">1 0 0 -0.02 0 1 0 0 0 0 1 0.135 0 0 0 1</matrix>
        <instance_geometry url="#ericrolph_cannon_car_wash_minicar_Cabin_mesh-mesh" name="ericrolph_cannon_car_wash_minicar_Cabin">
          <bind_material>
            <technique_common>
              <instance_material symbol="ericrolph_cannon_car_wash_safety_orange-material" target="#ericrolph_cannon_car_wash_safety_orange-material">
                <bind_vertex_input semantic="UVMap" input_semantic="TEXCOORD" input_set="0"/>
              </instance_material>
            </technique_common>
          </bind_material>
        </instance_geometry>
      </node>
      <node id="ericrolph_cannon_car_wash_minicar_Screen" name="ericrolph_cannon_car_wash_minicar_Screen" type="NODE">
        <matrix sid="transform">1 0 0 0.052 0 1 0 0 0 0 1 0.133 0 0 0 1</matrix>
        <instance_geometry url="#ericrolph_cannon_car_wash_minicar_Screen_mesh-mesh" name="ericrolph_cannon_car_wash_minicar_Screen">
          <bind_material>
            <technique_common>
              <instance_material symbol="ericrolph_cannon_car_wash_glass-material" target="#ericrolph_cannon_car_wash_glass-material">
                <bind_vertex_input semantic="UVMap" input_semantic="TEXCOORD" input_set="0"/>
              </instance_material>
            </technique_common>
          </bind_material>
        </instance_geometry>
      </node>
      <node id="ericrolph_cannon_car_wash_minicar_Wheel_-0_095_-1_0" name="ericrolph_cannon_car_wash_minicar_Wheel_-0.095_-1.0" type="NODE">
        <matrix sid="transform">1 0 0 -0.095 0 -4.37114e-8 -1 -0.075 0 1 -4.37114e-8 0.045 0 0 0 1</matrix>
        <instance_geometry url="#ericrolph_cannon_car_wash_minicar_Wheel_-0_095_-1_0_mesh-mesh" name="ericrolph_cannon_car_wash_minicar_Wheel_-0.095_-1.0">
          <bind_material>
            <technique_common>
              <instance_material symbol="ericrolph_cannon_car_wash_rubber-material" target="#ericrolph_cannon_car_wash_rubber-material">
                <bind_vertex_input semantic="UVMap" input_semantic="TEXCOORD" input_set="0"/>
              </instance_material>
            </technique_common>
          </bind_material>
        </instance_geometry>
      </node>
      <node id="ericrolph_cannon_car_wash_minicar_Wheel_-0_095_1_0" name="ericrolph_cannon_car_wash_minicar_Wheel_-0.095_1.0" type="NODE">
        <matrix sid="transform">1 0 0 -0.095 0 -4.37114e-8 -1 0.075 0 1 -4.37114e-8 0.045 0 0 0 1</matrix>
        <instance_geometry url="#ericrolph_cannon_car_wash_minicar_Wheel_-0_095_1_0_mesh-mesh" name="ericrolph_cannon_car_wash_minicar_Wheel_-0.095_1.0">
          <bind_material>
            <technique_common>
              <instance_material symbol="ericrolph_cannon_car_wash_rubber-material" target="#ericrolph_cannon_car_wash_rubber-material">
                <bind_vertex_input semantic="UVMap" input_semantic="TEXCOORD" input_set="0"/>
              </instance_material>
            </technique_common>
          </bind_material>
        </instance_geometry>
      </node>
      <node id="ericrolph_cannon_car_wash_minicar_Wheel_0_095_-1_0" name="ericrolph_cannon_car_wash_minicar_Wheel_0.095_-1.0" type="NODE">
        <matrix sid="transform">1 0 0 0.095 0 -4.37114e-8 -1 -0.075 0 1 -4.37114e-8 0.045 0 0 0 1</matrix>
        <instance_geometry url="#ericrolph_cannon_car_wash_minicar_Wheel_0_095_-1_0_mesh-mesh" name="ericrolph_cannon_car_wash_minicar_Wheel_0.095_-1.0">
          <bind_material>
            <technique_common>
              <instance_material symbol="ericrolph_cannon_car_wash_rubber-material" target="#ericrolph_cannon_car_wash_rubber-material">
                <bind_vertex_input semantic="UVMap" input_semantic="TEXCOORD" input_set="0"/>
              </instance_material>
            </technique_common>
          </bind_material>
        </instance_geometry>
      </node>
      <node id="ericrolph_cannon_car_wash_minicar_Wheel_0_095_1_0" name="ericrolph_cannon_car_wash_minicar_Wheel_0.095_1.0" type="NODE">
        <matrix sid="transform">1 0 0 0.095 0 -4.37114e-8 -1 0.075 0 1 -4.37114e-8 0.045 0 0 0 1</matrix>
        <instance_geometry url="#ericrolph_cannon_car_wash_minicar_Wheel_0_095_1_0_mesh-mesh" name="ericrolph_cannon_car_wash_minicar_Wheel_0.095_1.0">
          <bind_material>
            <technique_common>
              <instance_material symbol="ericrolph_cannon_car_wash_rubber-material" target="#ericrolph_cannon_car_wash_rubber-material">
                <bind_vertex_input semantic="UVMap" input_semantic="TEXCOORD" input_set="0"/>
              </instance_material>
            </technique_common>
          </bind_material>
        </instance_geometry>
      </node>
    </visual_scene>
  </library_visual_scenes>
  <scene>
    <instance_visual_scene url="#ericrolph_cannon_car_wash_scene"/>
  </scene>
</COLLADA>