<?xml version="1.0" encoding="utf-8"?>
<COLLADA xmlns="http://www.collada.org/2005/11/COLLADASchema" version="1.4.1" xmlns:xsi="http://www.w3.org/2001/XMLSchema-instance">
  <asset>
    <contributor>
      <author>Blender User</author>
      <authoring_tool>Blender 4.5.4 LTS commit date:2025-10-27, commit time:12:46, hash:b3efe983cc58</authoring_tool>
    </contributor>
    <created>2026-08-05T00:02:14</created>
    <modified>2026-08-05T00:02:14</modified>
    <unit name="meter" meter="1"/>
    <up_axis>Z_UP</up_axis>
  </asset>
  <library_effects>
    <effect id="ericrolph_cannon_car_wash_attract_iron-effect">
      <profile_COMMON>
        <technique sid="common">
          <lambert>
            <emission>
              <color sid="emission">0 0 0 1</color>
            </emission>
            <diffuse>
              <color sid="diffuse">0.016 0.017 0.02 1</color>
            </diffuse>
            <index_of_refraction>
              <float sid="ior">1.5</float>
            </index_of_refraction>
          </lambert>
        </technique>
      </profile_COMMON>
    </effect>
    <effect id="ericrolph_cannon_car_wash_ramp_flap-effect">
      <profile_COMMON>
        <technique sid="common">
          <lambert>
            <emission>
              <color sid="emission">0 0 0 1</color>
            </emission>
            <diffuse>
              <color sid="diffuse">0.5 0.52 0.55 1</color>
            </diffuse>
            <index_of_refraction>
              <float sid="ior">1.5</float>
            </index_of_refraction>
          </lambert>
        </technique>
      </profile_COMMON>
    </effect>
  </library_effects>
  <library_images/>
  <library_materials>
    <material id="ericrolph_cannon_car_wash_attract_iron-material" name="ericrolph_cannon_car_wash_attract_iron">
      <instance_effect url="#ericrolph_cannon_car_wash_attract_iron-effect"/>
    </material>
    <material id="ericrolph_cannon_car_wash_ramp_flap-material" name="ericrolph_cannon_car_wash_ramp_flap">
      <instance_effect url="#ericrolph_cannon_car_wash_ramp_flap-effect"/>
    </material>
  </library_materials>
  <library_geometries>
    <geometry id="ericrolph_cannon_car_wash_rampflap_Knuckle_-1_25_mesh-mesh" name="ericrolph_cannon_car_wash_rampflap_Knuckle_-1.25_mesh">
      <mesh>
        <source id="ericrolph_cannon_car_wash_rampflap_Knuckle_-1_25_mesh-mesh-positions">
          <float_array id="ericrolph_cannon_car_wash_rampflap_Knuckle_-1_25_mesh-mesh-positions-array" count="60">0 0.04499995 -0.22 0 0.04499995 0.22 0.02645033 0.03640574 -0.22 0.02645033 0.03640574 0.22 0.0427975 0.01390576 -0.22 0.0427975 0.01390576 0.22 0.0427975 -0.01390576 -0.22 0.0427975 -0.01390576 0.22 0.02645033 -0.03640574 -0.22 0.02645033 -0.03640574 0.22 0 -0.04499995 -0.22 0 -0.04499995 0.22 -0.02645033 -0.03640574 -0.22 -0.02645033 -0.03640574 0.22 -0.0427975 -0.01390576 -0.22 -0.0427975 -0.01390576 0.22 -0.0427975 0.01390576 -0.22 -0.0427975 0.01390576 0.22 -0.02645033 0.03640574 -0.22 -0.02645033 0.03640574 0.22</float_array>
          <technique_common>
            <accessor source="#ericrolph_cannon_car_wash_rampflap_Knuckle_-1_25_mesh-mesh-positions-array" count="20" stride="3">
              <param name="X" type="float"/>
              <param name="Y" type="float"/>
              <param name="Z" type="float"/>
            </accessor>
          </technique_common>
        </source>
        <source id="ericrolph_cannon_car_wash_rampflap_Knuckle_-1_25_mesh-mesh-normals">
          <float_array id="ericrolph_cannon_car_wash_rampflap_Knuckle_-1_25_mesh-mesh-normals-array" count="108">0.309017 0.9510566 0 0.809017 0.5877853 0 1 0 0 0.809017 -0.5877853 0 0.309017 -0.9510566 0 -0.309017 -0.9510566 0 -0.809017 -0.5877853 0 -1 0 0 0 0 1 -0.809017 0.5877853 0 -0.309017 0.9510566 0 0 0 -1 0.309017 0.9510566 0 0.809017 0.5877853 0 1 0 0 0.809017 -0.5877853 0 0.309017 -0.9510566 0 -0.309017 -0.9510566 0 -0.809017 -0.5877853 0 -1 0 0 0 0 1 0 0 1 0 0 1 0 0 1 0 0 1 0 0 1 0 0 1 -0.809017 0.5877853 0 -0.309017 0.9510566 0 0 0 -1 0 0 -1 0 0 -1 0 0 -1 0 0 -1 0 0 -1 0 0 -1</float_array>
          <technique_common>
            <accessor source="#ericrolph_cannon_car_wash_rampflap_Knuckle_-1_25_mesh-mesh-normals-array" count="36" stride="3">
              <param name="X" type="float"/>
              <param name="Y" type="float"/>
              <param name="Z" type="float"/>
            </accessor>
          </technique_common>
        </source>
        <source id="ericrolph_cannon_car_wash_rampflap_Knuckle_-1_25_mesh-mesh-map-0">
          <float_array id="ericrolph_cannon_car_wash_rampflap_Knuckle_-1_25_mesh-mesh-map-0-array" count="216">1 1 0.9 0.5 1 0.5 0.9 1 0.8 0.5 0.9 0.5 0.8 1 0.6999999 0.5 0.8 0.5 0.6999999 1 0.5999999 0.5 0.6999999 0.5 0.5999999 1 0.4999999 0.5 0.5999999 0.5 0.4999999 1 0.3999999 0.5 0.4999999 0.5 0.3999999 1 0.2999999 0.5 0.3999999 0.5 0.2999999 1 0.1999999 0.5 0.2999999 0.5 0.02174639 0.3241641 0.3910685 0.0558359 0.4782536 0.3241641 0.1999999 1 0.0999999 0.5 0.1999999 0.5 0.0999999 1 0 0.5 0.0999999 0.5 0.9782536 0.1758359 0.5217464 0.1758359 0.6089316 0.4441641 1 1 0.9 1 0.9 0.5 0.9 1 0.8 1 0.8 0.5 0.8 1 0.6999999 1 0.6999999 0.5 0.6999999 1 0.5999999 1 0.5999999 0.5 0.5999999 1 0.4999999 1 0.4999999 0.5 0.4999999 1 0.3999999 1 0.3999999 0.5 0.3999999 1 0.2999999 1 0.2999999 0.5 0.2999999 1 0.1999999 1 0.1999999 0.5 0.4782536 0.3241641 0.3910685 0.4441641 0.25 0.49 0.25 0.49 0.1089315 0.4441641 0.02174639 0.3241641 0.02174639 0.3241641 0.02174639 0.1758359 0.1089315 0.0558359 0.1089315 0.0558359 0.25 0.00999999 0.3910685 0.0558359 0.3910685 0.0558359 0.4782536 0.1758359 0.4782536 0.3241641 0.4782536 0.3241641 0.25 0.49 0.02174639 0.3241641 0.02174639 0.3241641 0.1089315 0.0558359 0.3910685 0.0558359 0.1999999 1 0.0999999 1 0.0999999 0.5 0.0999999 1 0 1 0 0.5 0.6089316 0.4441641 0.75 0.49 0.8910685 0.4441641 0.8910685 0.4441641 0.9782536 0.3241641 0.9782536 0.1758359 0.9782536 0.1758359 0.8910685 0.0558359 0.75 0.00999999 0.75 0.00999999 0.6089316 0.0558359 0.5217464 0.1758359 0.5217464 0.1758359 0.5217464 0.3241641 0.6089316 0.4441641 0.6089316 0.4441641 0.8910685 0.4441641 0.9782536 0.1758359 0.9782536 0.1758359 0.75 0.00999999 0.5217464 0.1758359</float_array>
          <technique_common>
            <accessor source="#ericrolph_cannon_car_wash_rampflap_Knuckle_-1_25_mesh-mesh-map-0-array" count="108" stride="2">
              <param name="S" type="float"/>
              <param name="T" type="float"/>
            </accessor>
          </technique_common>
        </source>
        <vertices id="ericrolph_cannon_car_wash_rampflap_Knuckle_-1_25_mesh-mesh-vertices">
          <input semantic="POSITION" source="#ericrolph_cannon_car_wash_rampflap_Knuckle_-1_25_mesh-mesh-positions"/>
        </vertices>
        <triangles material="ericrolph_cannon_car_wash_attract_iron-material" count="36">
          <input semantic="VERTEX" source="#ericrolph_cannon_car_wash_rampflap_Knuckle_-1_25_mesh-mesh-vertices" offset="0"/>
          <input semantic="NORMAL" source="#ericrolph_cannon_car_wash_rampflap_Knuckle_-1_25_mesh-mesh-normals" offset="1"/>
          <input semantic="TEXCOORD" source="#ericrolph_cannon_car_wash_rampflap_Knuckle_-1_25_mesh-mesh-map-0" offset="2" set="0"/>
          <p>1 0 0 2 0 1 0 0 2 3 1 3 4 1 4 2 1 5 5 2 6 6 2 7 4 2 8 7 3 9 8 3 10 6 3 11 9 4 12 10 4 13 8 4 14 11 5 15 12 5 16 10 5 17 13 6 18 14 6 19 12 6 20 15 7 21 16 7 22 14 7 23 17 8 24 9 8 25 5 8 26 17 9 27 18 9 28 16 9 29 19 10 30 0 10 31 18 10 32 6 11 33 14 11 34 18 11 35 1 12 36 3 12 37 2 12 38 3 13 39 5 13 40 4 13 41 5 14 42 7 14 43 6 14 44 7 15 45 9 15 46 8 15 47 9 16 48 11 16 49 10 16 50 11 17 51 13 17 52 12 17 53 13 18 54 15 18 55 14 18 56 15 19 57 17 19 58 16 19 59 5 20 60 3 20 61 1 20 62 1 21 63 19 21 64 17 21 65 17 22 66 15 22 67 13 22 68 13 23 69 11 23 70 9 23 71 9 24 72 7 24 73 5 24 74 5 25 75 1 25 76 17 25 77 17 26 78 13 26 79 9 26 80 17 27 81 19 27 82 18 27 83 19 28 84 1 28 85 0 28 86 18 29 87 0 29 88 2 29 89 2 30 90 4 30 91 6 30 92 6 31 93 8 31 94 10 31 95 10 32 96 12 32 97 14 32 98 14 33 99 16 33 100 18 33 101 18 34 102 2 34 103 6 34 104 6 35 105 10 35 106 14 35 107</p>
        </triangles>
      </mesh>
    </geometry>
    <geometry id="ericrolph_cannon_car_wash_rampflap_Knuckle_-2_5_mesh-mesh" name="ericrolph_cannon_car_wash_rampflap_Knuckle_-2.5_mesh">
      <mesh>
        <source id="ericrolph_cannon_car_wash_rampflap_Knuckle_-2_5_mesh-mesh-positions">
          <float_array id="ericrolph_cannon_car_wash_rampflap_Knuckle_-2_5_mesh-mesh-positions-array" count="60">0 0.04499995 -0.22 0 0.04499995 0.22 0.02645033 0.03640574 -0.22 0.02645033 0.03640574 0.22 0.0427975 0.01390576 -0.22 0.0427975 0.01390576 0.22 0.0427975 -0.01390576 -0.22 0.0427975 -0.01390576 0.22 0.02645033 -0.03640574 -0.22 0.02645033 -0.03640574 0.22 0 -0.04499995 -0.22 0 -0.04499995 0.22 -0.02645033 -0.03640574 -0.22 -0.02645033 -0.03640574 0.22 -0.0427975 -0.01390576 -0.22 -0.0427975 -0.01390576 0.22 -0.0427975 0.01390576 -0.22 -0.0427975 0.01390576 0.22 -0.02645033 0.03640574 -0.22 -0.02645033 0.03640574 0.22</float_array>
          <technique_common>
            <accessor source="#ericrolph_cannon_car_wash_rampflap_Knuckle_-2_5_mesh-mesh-positions-array" count="20" stride="3">
              <param name="X" type="float"/>
              <param name="Y" type="float"/>
              <param name="Z" type="float"/>
            </accessor>
          </technique_common>
        </source>
        <source id="ericrolph_cannon_car_wash_rampflap_Knuckle_-2_5_mesh-mesh-normals">
          <float_array id="ericrolph_cannon_car_wash_rampflap_Knuckle_-2_5_mesh-mesh-normals-array" count="108">0.309017 0.9510566 0 0.809017 0.5877853 0 1 0 0 0.809017 -0.5877853 0 0.309017 -0.9510566 0 -0.309017 -0.9510566 0 -0.809017 -0.5877853 0 -1 0 0 0 0 1 -0.809017 0.5877853 0 -0.309017 0.9510566 0 0 0 -1 0.309017 0.9510566 0 0.809017 0.5877853 0 1 0 0 0.809017 -0.5877853 0 0.309017 -0.9510566 0 -0.309017 -0.9510566 0 -0.809017 -0.5877853 0 -1 0 0 0 0 1 0 0 1 0 0 1 0 0 1 0 0 1 0 0 1 0 0 1 -0.809017 0.5877853 0 -0.309017 0.9510566 0 0 0 -1 0 0 -1 0 0 -1 0 0 -1 0 0 -1 0 0 -1 0 0 -1</float_array>
          <technique_common>
            <accessor source="#ericrolph_cannon_car_wash_rampflap_Knuckle_-2_5_mesh-mesh-normals-array" count="36" stride="3">
              <param name="X" type="float"/>
              <param name="Y" type="float"/>
              <param name="Z" type="float"/>
            </accessor>
          </technique_common>
        </source>
        <source id="ericrolph_cannon_car_wash_rampflap_Knuckle_-2_5_mesh-mesh-map-0">
          <float_array id="ericrolph_cannon_car_wash_rampflap_Knuckle_-2_5_mesh-mesh-map-0-array" count="216">1 1 0.9 0.5 1 0.5 0.9 1 0.8 0.5 0.9 0.5 0.8 1 0.6999999 0.5 0.8 0.5 0.6999999 1 0.5999999 0.5 0.6999999 0.5 0.5999999 1 0.4999999 0.5 0.5999999 0.5 0.4999999 1 0.3999999 0.5 0.4999999 0.5 0.3999999 1 0.2999999 0.5 0.3999999 0.5 0.2999999 1 0.1999999 0.5 0.2999999 0.5 0.02174639 0.3241641 0.3910685 0.0558359 0.4782536 0.3241641 0.1999999 1 0.0999999 0.5 0.1999999 0.5 0.0999999 1 0 0.5 0.0999999 0.5 0.9782536 0.1758359 0.5217464 0.1758359 0.6089316 0.4441641 1 1 0.9 1 0.9 0.5 0.9 1 0.8 1 0.8 0.5 0.8 1 0.6999999 1 0.6999999 0.5 0.6999999 1 0.5999999 1 0.5999999 0.5 0.5999999 1 0.4999999 1 0.4999999 0.5 0.4999999 1 0.3999999 1 0.3999999 0.5 0.3999999 1 0.2999999 1 0.2999999 0.5 0.2999999 1 0.1999999 1 0.1999999 0.5 0.4782536 0.3241641 0.3910685 0.4441641 0.25 0.49 0.25 0.49 0.1089315 0.4441641 0.02174639 0.3241641 0.02174639 0.3241641 0.02174639 0.1758359 0.1089315 0.0558359 0.1089315 0.0558359 0.25 0.00999999 0.3910685 0.0558359 0.3910685 0.0558359 0.4782536 0.1758359 0.4782536 0.3241641 0.4782536 0.3241641 0.25 0.49 0.02174639 0.3241641 0.02174639 0.3241641 0.1089315 0.0558359 0.3910685 0.0558359 0.1999999 1 0.0999999 1 0.0999999 0.5 0.0999999 1 0 1 0 0.5 0.6089316 0.4441641 0.75 0.49 0.8910685 0.4441641 0.8910685 0.4441641 0.9782536 0.3241641 0.9782536 0.1758359 0.9782536 0.1758359 0.8910685 0.0558359 0.75 0.00999999 0.75 0.00999999 0.6089316 0.0558359 0.5217464 0.1758359 0.5217464 0.1758359 0.5217464 0.3241641 0.6089316 0.4441641 0.6089316 0.4441641 0.8910685 0.4441641 0.9782536 0.1758359 0.9782536 0.1758359 0.75 0.00999999 0.5217464 0.1758359</float_array>
          <technique_common>
            <accessor source="#ericrolph_cannon_car_wash_rampflap_Knuckle_-2_5_mesh-mesh-map-0-array" count="108" stride="2">
              <param name="S" type="float"/>
              <param name="T" type="float"/>
            </accessor>
          </technique_common>
        </source>
        <vertices id="ericrolph_cannon_car_wash_rampflap_Knuckle_-2_5_mesh-mesh-vertices">
          <input semantic="POSITION" source="#ericrolph_cannon_car_wash_rampflap_Knuckle_-2_5_mesh-mesh-positions"/>
        </vertices>
        <triangles material="ericrolph_cannon_car_wash_attract_iron-material" count="36">
          <input semantic="VERTEX" source="#ericrolph_cannon_car_wash_rampflap_Knuckle_-2_5_mesh-mesh-vertices" offset="0"/>
          <input semantic="NORMAL" source="#ericrolph_cannon_car_wash_rampflap_Knuckle_-2_5_mesh-mesh-normals" offset="1"/>
          <input semantic="TEXCOORD" source="#ericrolph_cannon_car_wash_rampflap_Knuckle_-2_5_mesh-mesh-map-0" offset="2" set="0"/>
          <p>1 0 0 2 0 1 0 0 2 3 1 3 4 1 4 2 1 5 5 2 6 6 2 7 4 2 8 7 3 9 8 3 10 6 3 11 9 4 12 10 4 13 8 4 14 11 5 15 12 5 16 10 5 17 13 6 18 14 6 19 12 6 20 15 7 21 16 7 22 14 7 23 17 8 24 9 8 25 5 8 26 17 9 27 18 9 28 16 9 29 19 10 30 0 10 31 18 10 32 6 11 33 14 11 34 18 11 35 1 12 36 3 12 37 2 12 38 3 13 39 5 13 40 4 13 41 5 14 42 7 14 43 6 14 44 7 15 45 9 15 46 8 15 47 9 16 48 11 16 49 10 16 50 11 17 51 13 17 52 12 17 53 13 18 54 15 18 55 14 18 56 15 19 57 17 19 58 16 19 59 5 20 60 3 20 61 1 20 62 1 21 63 19 21 64 17 21 65 17 22 66 15 22 67 13 22 68 13 23 69 11 23 70 9 23 71 9 24 72 7 24 73 5 24 74 5 25 75 1 25 76 17 25 77 17 26 78 13 26 79 9 26 80 17 27 81 19 27 82 18 27 83 19 28 84 1 28 85 0 28 86 18 29 87 0 29 88 2 29 89 2 30 90 4 30 91 6 30 92 6 31 93 8 31 94 10 31 95 10 32 96 12 32 97 14 32 98 14 33 99 16 33 100 18 33 101 18 34 102 2 34 103 6 34 104 6 35 105 10 35 106 14 35 107</p>
        </triangles>
      </mesh>
    </geometry>
    <geometry id="ericrolph_cannon_car_wash_rampflap_Knuckle_0_0_mesh-mesh" name="ericrolph_cannon_car_wash_rampflap_Knuckle_0.0_mesh">
      <mesh>
        <source id="ericrolph_cannon_car_wash_rampflap_Knuckle_0_0_mesh-mesh-positions">
          <float_array id="ericrolph_cannon_car_wash_rampflap_Knuckle_0_0_mesh-mesh-positions-array" count="60">0 0.04499995 -0.22 0 0.04499995 0.22 0.02645033 0.03640574 -0.22 0.02645033 0.03640574 0.22 0.0427975 0.01390576 -0.22 0.0427975 0.01390576 0.22 0.0427975 -0.01390576 -0.22 0.0427975 -0.01390576 0.22 0.02645033 -0.03640574 -0.22 0.02645033 -0.03640574 0.22 0 -0.04499995 -0.22 0 -0.04499995 0.22 -0.02645033 -0.03640574 -0.22 -0.02645033 -0.03640574 0.22 -0.0427975 -0.01390576 -0.22 -0.0427975 -0.01390576 0.22 -0.0427975 0.01390576 -0.22 -0.0427975 0.01390576 0.22 -0.02645033 0.03640574 -0.22 -0.02645033 0.03640574 0.22</float_array>
          <technique_common>
            <accessor source="#ericrolph_cannon_car_wash_rampflap_Knuckle_0_0_mesh-mesh-positions-array" count="20" stride="3">
              <param name="X" type="float"/>
              <param name="Y" type="float"/>
              <param name="Z" type="float"/>
            </accessor>
          </technique_common>
        </source>
        <source id="ericrolph_cannon_car_wash_rampflap_Knuckle_0_0_mesh-mesh-normals">
          <float_array id="ericrolph_cannon_car_wash_rampflap_Knuckle_0_0_mesh-mesh-normals-array" count="108">0.309017 0.9510566 0 0.809017 0.5877853 0 1 0 0 0.809017 -0.5877853 0 0.309017 -0.9510566 0 -0.309017 -0.9510566 0 -0.809017 -0.5877853 0 -1 0 0 0 0 1 -0.809017 0.5877853 0 -0.309017 0.9510566 0 0 0 -1 0.309017 0.9510566 0 0.809017 0.5877853 0 1 0 0 0.809017 -0.5877853 0 0.309017 -0.9510566 0 -0.309017 -0.9510566 0 -0.809017 -0.5877853 0 -1 0 0 0 0 1 0 0 1 0 0 1 0 0 1 0 0 1 0 0 1 0 0 1 -0.809017 0.5877853 0 -0.309017 0.9510566 0 0 0 -1 0 0 -1 0 0 -1 0 0 -1 0 0 -1 0 0 -1 0 0 -1</float_array>
          <technique_common>
            <accessor source="#ericrolph_cannon_car_wash_rampflap_Knuckle_0_0_mesh-mesh-normals-array" count="36" stride="3">
              <param name="X" type="float"/>
              <param name="Y" type="float"/>
              <param name="Z" type="float"/>
            </accessor>
          </technique_common>
        </source>
        <source id="ericrolph_cannon_car_wash_rampflap_Knuckle_0_0_mesh-mesh-map-0">
          <float_array id="ericrolph_cannon_car_wash_rampflap_Knuckle_0_0_mesh-mesh-map-0-array" count="216">1 1 0.9 0.5 1 0.5 0.9 1 0.8 0.5 0.9 0.5 0.8 1 0.6999999 0.5 0.8 0.5 0.6999999 1 0.5999999 0.5 0.6999999 0.5 0.5999999 1 0.4999999 0.5 0.5999999 0.5 0.4999999 1 0.3999999 0.5 0.4999999 0.5 0.3999999 1 0.2999999 0.5 0.3999999 0.5 0.2999999 1 0.1999999 0.5 0.2999999 0.5 0.02174639 0.3241641 0.3910685 0.0558359 0.4782536 0.3241641 0.1999999 1 0.0999999 0.5 0.1999999 0.5 0.0999999 1 0 0.5 0.0999999 0.5 0.9782536 0.1758359 0.5217464 0.1758359 0.6089316 0.4441641 1 1 0.9 1 0.9 0.5 0.9 1 0.8 1 0.8 0.5 0.8 1 0.6999999 1 0.6999999 0.5 0.6999999 1 0.5999999 1 0.5999999 0.5 0.5999999 1 0.4999999 1 0.4999999 0.5 0.4999999 1 0.3999999 1 0.3999999 0.5 0.3999999 1 0.2999999 1 0.2999999 0.5 0.2999999 1 0.1999999 1 0.1999999 0.5 0.4782536 0.3241641 0.3910685 0.4441641 0.25 0.49 0.25 0.49 0.1089315 0.4441641 0.02174639 0.3241641 0.02174639 0.3241641 0.02174639 0.1758359 0.1089315 0.0558359 0.1089315 0.0558359 0.25 0.00999999 0.3910685 0.0558359 0.3910685 0.0558359 0.4782536 0.1758359 0.4782536 0.3241641 0.4782536 0.3241641 0.25 0.49 0.02174639 0.3241641 0.02174639 0.3241641 0.1089315 0.0558359 0.3910685 0.0558359 0.1999999 1 0.0999999 1 0.0999999 0.5 0.0999999 1 0 1 0 0.5 0.6089316 0.4441641 0.75 0.49 0.8910685 0.4441641 0.8910685 0.4441641 0.9782536 0.3241641 0.9782536 0.1758359 0.9782536 0.1758359 0.8910685 0.0558359 0.75 0.00999999 0.75 0.00999999 0.6089316 0.0558359 0.5217464 0.1758359 0.5217464 0.1758359 0.5217464 0.3241641 0.6089316 0.4441641 0.6089316 0.4441641 0.8910685 0.4441641 0.9782536 0.1758359 0.9782536 0.1758359 0.75 0.00999999 0.5217464 0.1758359</float_array>
          <technique_common>
            <accessor source="#ericrolph_cannon_car_wash_rampflap_Knuckle_0_0_mesh-mesh-map-0-array" count="108" stride="2">
              <param name="S" type="float"/>
              <param name="T" type="float"/>
            </accessor>
          </technique_common>
        </source>
        <vertices id="ericrolph_cannon_car_wash_rampflap_Knuckle_0_0_mesh-mesh-vertices">
          <input semantic="POSITION" source="#ericrolph_cannon_car_wash_rampflap_Knuckle_0_0_mesh-mesh-positions"/>
        </vertices>
        <triangles material="ericrolph_cannon_car_wash_attract_iron-material" count="36">
          <input semantic="VERTEX" source="#ericrolph_cannon_car_wash_rampflap_Knuckle_0_0_mesh-mesh-vertices" offset="0"/>
          <input semantic="NORMAL" source="#ericrolph_cannon_car_wash_rampflap_Knuckle_0_0_mesh-mesh-normals" offset="1"/>
          <input semantic="TEXCOORD" source="#ericrolph_cannon_car_wash_rampflap_Knuckle_0_0_mesh-mesh-map-0" offset="2" set="0"/>
          <p>1 0 0 2 0 1 0 0 2 3 1 3 4 1 4 2 1 5 5 2 6 6 2 7 4 2 8 7 3 9 8 3 10 6 3 11 9 4 12 10 4 13 8 4 14 11 5 15 12 5 16 10 5 17 13 6 18 14 6 19 12 6 20 15 7 21 16 7 22 14 7 23 17 8 24 9 8 25 5 8 26 17 9 27 18 9 28 16 9 29 19 10 30 0 10 31 18 10 32 6 11 33 14 11 34 18 11 35 1 12 36 3 12 37 2 12 38 3 13 39 5 13 40 4 13 41 5 14 42 7 14 43 6 14 44 7 15 45 9 15 46 8 15 47 9 16 48 11 16 49 10 16 50 11 17 51 13 17 52 12 17 53 13 18 54 15 18 55 14 18 56 15 19 57 17 19 58 16 19 59 5 20 60 3 20 61 1 20 62 1 21 63 19 21 64 17 21 65 17 22 66 15 22 67 13 22 68 13 23 69 11 23 70 9 23 71 9 24 72 7 24 73 5 24 74 5 25 75 1 25 76 17 25 77 17 26 78 13 26 79 9 26 80 17 27 81 19 27 82 18 27 83 19 28 84 1 28 85 0 28 86 18 29 87 0 29 88 2 29 89 2 30 90 4 30 91 6 30 92 6 31 93 8 31 94 10 31 95 10 32 96 12 32 97 14 32 98 14 33 99 16 33 100 18 33 101 18 34 102 2 34 103 6 34 104 6 35 105 10 35 106 14 35 107</p>
        </triangles>
      </mesh>
    </geometry>
    <geometry id="ericrolph_cannon_car_wash_rampflap_Knuckle_1_25_mesh-mesh" name="ericrolph_cannon_car_wash_rampflap_Knuckle_1.25_mesh">
      <mesh>
        <source id="ericrolph_cannon_car_wash_rampflap_Knuckle_1_25_mesh-mesh-positions">
          <float_array id="ericrolph_cannon_car_wash_rampflap_Knuckle_1_25_mesh-mesh-positions-array" count="60">0 0.04499995 -0.22 0 0.04499995 0.22 0.02645033 0.03640574 -0.22 0.02645033 0.03640574 0.22 0.0427975 0.01390576 -0.22 0.0427975 0.01390576 0.22 0.0427975 -0.01390576 -0.22 0.0427975 -0.01390576 0.22 0.02645033 -0.03640574 -0.22 0.02645033 -0.03640574 0.22 0 -0.04499995 -0.22 0 -0.04499995 0.22 -0.02645033 -0.03640574 -0.22 -0.02645033 -0.03640574 0.22 -0.0427975 -0.01390576 -0.22 -0.0427975 -0.01390576 0.22 -0.0427975 0.01390576 -0.22 -0.0427975 0.01390576 0.22 -0.02645033 0.03640574 -0.22 -0.02645033 0.03640574 0.22</float_array>
          <technique_common>
            <accessor source="#ericrolph_cannon_car_wash_rampflap_Knuckle_1_25_mesh-mesh-positions-array" count="20" stride="3">
              <param name="X" type="float"/>
              <param name="Y" type="float"/>
              <param name="Z" type="float"/>
            </accessor>
          </technique_common>
        </source>
        <source id="ericrolph_cannon_car_wash_rampflap_Knuckle_1_25_mesh-mesh-normals">
          <float_array id="ericrolph_cannon_car_wash_rampflap_Knuckle_1_25_mesh-mesh-normals-array" count="108">0.309017 0.9510566 0 0.809017 0.5877853 0 1 0 0 0.809017 -0.5877853 0 0.309017 -0.9510566 0 -0.309017 -0.9510566 0 -0.809017 -0.5877853 0 -1 0 0 0 0 1 -0.809017 0.5877853 0 -0.309017 0.9510566 0 0 0 -1 0.309017 0.9510566 0 0.809017 0.5877853 0 1 0 0 0.809017 -0.5877853 0 0.309017 -0.9510566 0 -0.309017 -0.9510566 0 -0.809017 -0.5877853 0 -1 0 0 0 0 1 0 0 1 0 0 1 0 0 1 0 0 1 0 0 1 0 0 1 -0.809017 0.5877853 0 -0.309017 0.9510566 0 0 0 -1 0 0 -1 0 0 -1 0 0 -1 0 0 -1 0 0 -1 0 0 -1</float_array>
          <technique_common>
            <accessor source="#ericrolph_cannon_car_wash_rampflap_Knuckle_1_25_mesh-mesh-normals-array" count="36" stride="3">
              <param name="X" type="float"/>
              <param name="Y" type="float"/>
              <param name="Z" type="float"/>
            </accessor>
          </technique_common>
        </source>
        <source id="ericrolph_cannon_car_wash_rampflap_Knuckle_1_25_mesh-mesh-map-0">
          <float_array id="ericrolph_cannon_car_wash_rampflap_Knuckle_1_25_mesh-mesh-map-0-array" count="216">1 1 0.9 0.5 1 0.5 0.9 1 0.8 0.5 0.9 0.5 0.8 1 0.6999999 0.5 0.8 0.5 0.6999999 1 0.5999999 0.5 0.6999999 0.5 0.5999999 1 0.4999999 0.5 0.5999999 0.5 0.4999999 1 0.3999999 0.5 0.4999999 0.5 0.3999999 1 0.2999999 0.5 0.3999999 0.5 0.2999999 1 0.1999999 0.5 0.2999999 0.5 0.02174639 0.3241641 0.3910685 0.0558359 0.4782536 0.3241641 0.1999999 1 0.0999999 0.5 0.1999999 0.5 0.0999999 1 0 0.5 0.0999999 0.5 0.9782536 0.1758359 0.5217464 0.1758359 0.6089316 0.4441641 1 1 0.9 1 0.9 0.5 0.9 1 0.8 1 0.8 0.5 0.8 1 0.6999999 1 0.6999999 0.5 0.6999999 1 0.5999999 1 0.5999999 0.5 0.5999999 1 0.4999999 1 0.4999999 0.5 0.4999999 1 0.3999999 1 0.3999999 0.5 0.3999999 1 0.2999999 1 0.2999999 0.5 0.2999999 1 0.1999999 1 0.1999999 0.5 0.4782536 0.3241641 0.3910685 0.4441641 0.25 0.49 0.25 0.49 0.1089315 0.4441641 0.02174639 0.3241641 0.02174639 0.3241641 0.02174639 0.1758359 0.1089315 0.0558359 0.1089315 0.0558359 0.25 0.00999999 0.3910685 0.0558359 0.3910685 0.0558359 0.4782536 0.1758359 0.4782536 0.3241641 0.4782536 0.3241641 0.25 0.49 0.02174639 0.3241641 0.02174639 0.3241641 0.1089315 0.0558359 0.3910685 0.0558359 0.1999999 1 0.0999999 1 0.0999999 0.5 0.0999999 1 0 1 0 0.5 0.6089316 0.4441641 0.75 0.49 0.8910685 0.4441641 0.8910685 0.4441641 0.9782536 0.3241641 0.9782536 0.1758359 0.9782536 0.1758359 0.8910685 0.0558359 0.75 0.00999999 0.75 0.00999999 0.6089316 0.0558359 0.5217464 0.1758359 0.5217464 0.1758359 0.5217464 0.3241641 0.6089316 0.4441641 0.6089316 0.4441641 0.8910685 0.4441641 0.9782536 0.1758359 0.9782536 0.1758359 0.75 0.00999999 0.5217464 0.1758359</float_array>
          <technique_common>
            <accessor source="#ericrolph_cannon_car_wash_rampflap_Knuckle_1_25_mesh-mesh-map-0-array" count="108" stride="2">
              <param name="S" type="float"/>
              <param name="T" type="float"/>
            </accessor>
          </technique_common>
        </source>
        <vertices id="ericrolph_cannon_car_wash_rampflap_Knuckle_1_25_mesh-mesh-vertices">
          <input semantic="POSITION" source="#ericrolph_cannon_car_wash_rampflap_Knuckle_1_25_mesh-mesh-positions"/>
        </vertices>
        <triangles material="ericrolph_cannon_car_wash_attract_iron-material" count="36">
          <input semantic="VERTEX" source="#ericrolph_cannon_car_wash_rampflap_Knuckle_1_25_mesh-mesh-vertices" offset="0"/>
          <input semantic="NORMAL" source="#ericrolph_cannon_car_wash_rampflap_Knuckle_1_25_mesh-mesh-normals" offset="1"/>
          <input semantic="TEXCOORD" source="#ericrolph_cannon_car_wash_rampflap_Knuckle_1_25_mesh-mesh-map-0" offset="2" set="0"/>
          <p>1 0 0 2 0 1 0 0 2 3 1 3 4 1 4 2 1 5 5 2 6 6 2 7 4 2 8 7 3 9 8 3 10 6 3 11 9 4 12 10 4 13 8 4 14 11 5 15 12 5 16 10 5 17 13 6 18 14 6 19 12 6 20 15 7 21 16 7 22 14 7 23 17 8 24 9 8 25 5 8 26 17 9 27 18 9 28 16 9 29 19 10 30 0 10 31 18 10 32 6 11 33 14 11 34 18 11 35 1 12 36 3 12 37 2 12 38 3 13 39 5 13 40 4 13 41 5 14 42 7 14 43 6 14 44 7 15 45 9 15 46 8 15 47 9 16 48 11 16 49 10 16 50 11 17 51 13 17 52 12 17 53 13 18 54 15 18 55 14 18 56 15 19 57 17 19 58 16 19 59 5 20 60 3 20 61 1 20 62 1 21 63 19 21 64 17 21 65 17 22 66 15 22 67 13 22 68 13 23 69 11 23 70 9 23 71 9 24 72 7 24 73 5 24 74 5 25 75 1 25 76 17 25 77 17 26 78 13 26 79 9 26 80 17 27 81 19 27 82 18 27 83 19 28 84 1 28 85 0 28 86 18 29 87 0 29 88 2 29 89 2 30 90 4 30 91 6 30 92 6 31 93 8 31 94 10 31 95 10 32 96 12 32 97 14 32 98 14 33 99 16 33 100 18 33 101 18 34 102 2 34 103 6 34 104 6 35 105 10 35 106 14 35 107</p>
        </triangles>
      </mesh>
    </geometry>
    <geometry id="ericrolph_cannon_car_wash_rampflap_Knuckle_2_5_mesh-mesh" name="ericrolph_cannon_car_wash_rampflap_Knuckle_2.5_mesh">
      <mesh>
        <source id="ericrolph_cannon_car_wash_rampflap_Knuckle_2_5_mesh-mesh-positions">
          <float_array id="ericrolph_cannon_car_wash_rampflap_Knuckle_2_5_mesh-mesh-positions-array" count="60">0 0.04499995 -0.22 0 0.04499995 0.22 0.02645033 0.03640574 -0.22 0.02645033 0.03640574 0.22 0.0427975 0.01390576 -0.22 0.0427975 0.01390576 0.22 0.0427975 -0.01390576 -0.22 0.0427975 -0.01390576 0.22 0.02645033 -0.03640574 -0.22 0.02645033 -0.03640574 0.22 0 -0.04499995 -0.22 0 -0.04499995 0.22 -0.02645033 -0.03640574 -0.22 -0.02645033 -0.03640574 0.22 -0.0427975 -0.01390576 -0.22 -0.0427975 -0.01390576 0.22 -0.0427975 0.01390576 -0.22 -0.0427975 0.01390576 0.22 -0.02645033 0.03640574 -0.22 -0.02645033 0.03640574 0.22</float_array>
          <technique_common>
            <accessor source="#ericrolph_cannon_car_wash_rampflap_Knuckle_2_5_mesh-mesh-positions-array" count="20" stride="3">
              <param name="X" type="float"/>
              <param name="Y" type="float"/>
              <param name="Z" type="float"/>
            </accessor>
          </technique_common>
        </source>
        <source id="ericrolph_cannon_car_wash_rampflap_Knuckle_2_5_mesh-mesh-normals">
          <float_array id="ericrolph_cannon_car_wash_rampflap_Knuckle_2_5_mesh-mesh-normals-array" count="108">0.309017 0.9510566 0 0.809017 0.5877853 0 1 0 0 0.809017 -0.5877853 0 0.309017 -0.9510566 0 -0.309017 -0.9510566 0 -0.809017 -0.5877853 0 -1 0 0 0 0 1 -0.809017 0.5877853 0 -0.309017 0.9510566 0 0 0 -1 0.309017 0.9510566 0 0.809017 0.5877853 0 1 0 0 0.809017 -0.5877853 0 0.309017 -0.9510566 0 -0.309017 -0.9510566 0 -0.809017 -0.5877853 0 -1 0 0 0 0 1 0 0 1 0 0 1 0 0 1 0 0 1 0 0 1 0 0 1 -0.809017 0.5877853 0 -0.309017 0.9510566 0 0 0 -1 0 0 -1 0 0 -1 0 0 -1 0 0 -1 0 0 -1 0 0 -1</float_array>
          <technique_common>
            <accessor source="#ericrolph_cannon_car_wash_rampflap_Knuckle_2_5_mesh-mesh-normals-array" count="36" stride="3">
              <param name="X" type="float"/>
              <param name="Y" type="float"/>
              <param name="Z" type="float"/>
            </accessor>
          </technique_common>
        </source>
        <source id="ericrolph_cannon_car_wash_rampflap_Knuckle_2_5_mesh-mesh-map-0">
          <float_array id="ericrolph_cannon_car_wash_rampflap_Knuckle_2_5_mesh-mesh-map-0-array" count="216">1 1 0.9 0.5 1 0.5 0.9 1 0.8 0.5 0.9 0.5 0.8 1 0.6999999 0.5 0.8 0.5 0.6999999 1 0.5999999 0.5 0.6999999 0.5 0.5999999 1 0.4999999 0.5 0.5999999 0.5 0.4999999 1 0.3999999 0.5 0.4999999 0.5 0.3999999 1 0.2999999 0.5 0.3999999 0.5 0.2999999 1 0.1999999 0.5 0.2999999 0.5 0.02174639 0.3241641 0.3910685 0.0558359 0.4782536 0.3241641 0.1999999 1 0.0999999 0.5 0.1999999 0.5 0.0999999 1 0 0.5 0.0999999 0.5 0.9782536 0.1758359 0.5217464 0.1758359 0.6089316 0.4441641 1 1 0.9 1 0.9 0.5 0.9 1 0.8 1 0.8 0.5 0.8 1 0.6999999 1 0.6999999 0.5 0.6999999 1 0.5999999 1 0.5999999 0.5 0.5999999 1 0.4999999 1 0.4999999 0.5 0.4999999 1 0.3999999 1 0.3999999 0.5 0.3999999 1 0.2999999 1 0.2999999 0.5 0.2999999 1 0.1999999 1 0.1999999 0.5 0.4782536 0.3241641 0.3910685 0.4441641 0.25 0.49 0.25 0.49 0.1089315 0.4441641 0.02174639 0.3241641 0.02174639 0.3241641 0.02174639 0.1758359 0.1089315 0.0558359 0.1089315 0.0558359 0.25 0.00999999 0.3910685 0.0558359 0.3910685 0.0558359 0.4782536 0.1758359 0.4782536 0.3241641 0.4782536 0.3241641 0.25 0.49 0.02174639 0.3241641 0.02174639 0.3241641 0.1089315 0.0558359 0.3910685 0.0558359 0.1999999 1 0.0999999 1 0.0999999 0.5 0.0999999 1 0 1 0 0.5 0.6089316 0.4441641 0.75 0.49 0.8910685 0.4441641 0.8910685 0.4441641 0.9782536 0.3241641 0.9782536 0.1758359 0.9782536 0.1758359 0.8910685 0.0558359 0.75 0.00999999 0.75 0.00999999 0.6089316 0.0558359 0.5217464 0.1758359 0.5217464 0.1758359 0.5217464 0.3241641 0.6089316 0.4441641 0.6089316 0.4441641 0.8910685 0.4441641 0.9782536 0.1758359 0.9782536 0.1758359 0.75 0.00999999 0.5217464 0.1758359</float_array>
          <technique_common>
            <accessor source="#ericrolph_cannon_car_wash_rampflap_Knuckle_2_5_mesh-mesh-map-0-array" count="108" stride="2">
              <param name="S" type="float"/>
              <param name="T" type="float"/>
            </accessor>
          </technique_common>
        </source>
        <vertices id="ericrolph_cannon_car_wash_rampflap_Knuckle_2_5_mesh-mesh-vertices">
          <input semantic="POSITION" source="#ericrolph_cannon_car_wash_rampflap_Knuckle_2_5_mesh-mesh-positions"/>
        </vertices>
        <triangles material="ericrolph_cannon_car_wash_attract_iron-material" count="36">
          <input semantic="VERTEX" source="#ericrolph_cannon_car_wash_rampflap_Knuckle_2_5_mesh-mesh-vertices" offset="0"/>
          <input semantic="NORMAL" source="#ericrolph_cannon_car_wash_rampflap_Knuckle_2_5_mesh-mesh-normals" offset="1"/>
          <input semantic="TEXCOORD" source="#ericrolph_cannon_car_wash_rampflap_Knuckle_2_5_mesh-mesh-map-0" offset="2" set="0"/>
          <p>1 0 0 2 0 1 0 0 2 3 1 3 4 1 4 2 1 5 5 2 6 6 2 7 4 2 8 7 3 9 8 3 10 6 3 11 9 4 12 10 4 13 8 4 14 11 5 15 12 5 16 10 5 17 13 6 18 14 6 19 12 6 20 15 7 21 16 7 22 14 7 23 17 8 24 9 8 25 5 8 26 17 9 27 18 9 28 16 9 29 19 10 30 0 10 31 18 10 32 6 11 33 14 11 34 18 11 35 1 12 36 3 12 37 2 12 38 3 13 39 5 13 40 4 13 41 5 14 42 7 14 43 6 14 44 7 15 45 9 15 46 8 15 47 9 16 48 11 16 49 10 16 50 11 17 51 13 17 52 12 17 53 13 18 54 15 18 55 14 18 56 15 19 57 17 19 58 16 19 59 5 20 60 3 20 61 1 20 62 1 21 63 19 21 64 17 21 65 17 22 66 15 22 67 13 22 68 13 23 69 11 23 70 9 23 71 9 24 72 7 24 73 5 24 74 5 25 75 1 25 76 17 25 77 17 26 78 13 26 79 9 26 80 17 27 81 19 27 82 18 27 83 19 28 84 1 28 85 0 28 86 18 29 87 0 29 88 2 29 89 2 30 90 4 30 91 6 30 92 6 31 93 8 31 94 10 31 95 10 32 96 12 32 97 14 32 98 14 33 99 16 33 100 18 33 101 18 34 102 2 34 103 6 34 104 6 35 105 10 35 106 14 35 107</p>
        </triangles>
      </mesh>
    </geometry>
    <geometry id="ericrolph_cannon_car_wash_rampflap_Wedge_mesh-mesh" name="ericrolph_cannon_car_wash_rampflap_Wedge_mesh">
      <mesh>
        <source id="ericrolph_cannon_car_wash_rampflap_Wedge_mesh-mesh-positions">
          <float_array id="ericrolph_cannon_car_wash_rampflap_Wedge_mesh-mesh-positions-array" count="18">-3.08 0 0 3.08 0 0 3.08 2.6 -0.132 -3.08 2.6 -0.132 -3.08 0 -0.132 3.08 0 -0.132</float_array>
          <technique_common>
            <accessor source="#ericrolph_cannon_car_wash_rampflap_Wedge_mesh-mesh-positions-array" count="6" stride="3">
              <param name="X" type="float"/>
              <param name="Y" type="float"/>
              <param name="Z" type="float"/>
            </accessor>
          </technique_common>
        </source>
        <source id="ericrolph_cannon_car_wash_rampflap_Wedge_mesh-mesh-normals">
          <float_array id="ericrolph_cannon_car_wash_rampflap_Wedge_mesh-mesh-normals-array" count="24">0 0.05070388 0.9987137 0 -1 0 0 0 -1 -1 0 0 1 0 0 0 0.05070388 0.9987137 0 -1 0 0 0 -1</float_array>
          <technique_common>
            <accessor source="#ericrolph_cannon_car_wash_rampflap_Wedge_mesh-mesh-normals-array" count="8" stride="3">
              <param name="X" type="float"/>
              <param name="Y" type="float"/>
              <param name="Z" type="float"/>
            </accessor>
          </technique_common>
        </source>
        <source id="ericrolph_cannon_car_wash_rampflap_Wedge_mesh-mesh-map-0">
          <float_array id="ericrolph_cannon_car_wash_rampflap_Wedge_mesh-mesh-map-0-array" count="48">3 0 0 1 0 0 0.42 0.45 0.3 0.55 0.3 0.45 0.42 0.45 0.3 0.55 0.3 0.45 0.3 0.45 0.42 0.45 0.42 0.55 0.3 0.45 0.42 0.45 0.42 0.55 3 0 3 1 0 1 0.42 0.45 0.42 0.55 0.3 0.55 0.42 0.45 0.42 0.55 0.3 0.55</float_array>
          <technique_common>
            <accessor source="#ericrolph_cannon_car_wash_rampflap_Wedge_mesh-mesh-map-0-array" count="24" stride="2">
              <param name="S" type="float"/>
              <param name="T" type="float"/>
            </accessor>
          </technique_common>
        </source>
        <vertices id="ericrolph_cannon_car_wash_rampflap_Wedge_mesh-mesh-vertices">
          <input semantic="POSITION" source="#ericrolph_cannon_car_wash_rampflap_Wedge_mesh-mesh-positions"/>
        </vertices>
        <triangles material="ericrolph_cannon_car_wash_ramp_flap-material" count="2">
          <input semantic="VERTEX" source="#ericrolph_cannon_car_wash_rampflap_Wedge_mesh-mesh-vertices" offset="0"/>
          <input semantic="NORMAL" source="#ericrolph_cannon_car_wash_rampflap_Wedge_mesh-mesh-normals" offset="1"/>
          <input semantic="TEXCOORD" source="#ericrolph_cannon_car_wash_rampflap_Wedge_mesh-mesh-map-0" offset="2" set="0"/>
          <p>1 0 0 3 0 1 0 0 2 1 5 15 2 5 16 3 5 17</p>
        </triangles>
        <triangles material="ericrolph_cannon_car_wash_attract_iron-material" count="6">
          <input semantic="VERTEX" source="#ericrolph_cannon_car_wash_rampflap_Wedge_mesh-mesh-vertices" offset="0"/>
          <input semantic="NORMAL" source="#ericrolph_cannon_car_wash_rampflap_Wedge_mesh-mesh-normals" offset="1"/>
          <input semantic="TEXCOORD" source="#ericrolph_cannon_car_wash_rampflap_Wedge_mesh-mesh-map-0" offset="2" set="0"/>
          <p>4 1 3 1 1 4 0 1 5 3 2 6 5 2 7 4 2 8 0 3 9 3 3 10 4 3 11 1 4 12 5 4 13 2 4 14 4 6 18 5 6 19 1 6 20 3 7 21 2 7 22 5 7 23</p>
        </triangles>
      </mesh>
    </geometry>
  </library_geometries>
  <library_visual_scenes>
    <visual_scene id="ericrolph_cannon_car_wash_scene" name="ericrolph_cannon_car_wash_scene">
      <node id="ericrolph_cannon_car_wash_rampflap_Knuckle_-1_25" name="ericrolph_cannon_car_wash_rampflap_Knuckle_-1.25" type="NODE">
        <matrix sid="transform">-4.37114e-8 0 1 -1.25 0 1 0 0 -1 0 -4.37114e-8 -0.03 0 0 0 1</matrix>
        <instance_geometry url="#ericrolph_cannon_car_wash_rampflap_Knuckle_-1_25_mesh-mesh" name="ericrolph_cannon_car_wash_rampflap_Knuckle_-1.25">
          <bind_material>
            <technique_common>
              <instance_material symbol="ericrolph_cannon_car_wash_attract_iron-material" target="#ericrolph_cannon_car_wash_attract_iron-material">
                <bind_vertex_input semantic="UVMap" input_semantic="TEXCOORD" input_set="0"/>
              </instance_material>
            </technique_common>
          </bind_material>
        </instance_geometry>
      </node>
      <node id="ericrolph_cannon_car_wash_rampflap_Knuckle_-2_5" name="ericrolph_cannon_car_wash_rampflap_Knuckle_-2.5" type="NODE">
        <matrix sid="transform">-4.37114e-8 0 1 -2.5 0 1 0 0 -1 0 -4.37114e-8 -0.03 0 0 0 1</matrix>
        <instance_geometry url="#ericrolph_cannon_car_wash_rampflap_Knuckle_-2_5_mesh-mesh" name="ericrolph_cannon_car_wash_rampflap_Knuckle_-2.5">
          <bind_material>
            <technique_common>
              <instance_material symbol="ericrolph_cannon_car_wash_attract_iron-material" target="#ericrolph_cannon_car_wash_attract_iron-material">
                <bind_vertex_input semantic="UVMap" input_semantic="TEXCOORD" input_set="0"/>
              </instance_material>
            </technique_common>
          </bind_material>
        </instance_geometry>
      </node>
      <node id="ericrolph_cannon_car_wash_rampflap_Knuckle_0_0" name="ericrolph_cannon_car_wash_rampflap_Knuckle_0.0" type="NODE">
        <matrix sid="transform">-4.37114e-8 0 1 0 0 1 0 0 -1 0 -4.37114e-8 -0.03 0 0 0 1</matrix>
        <instance_geometry url="#ericrolph_cannon_car_wash_rampflap_Knuckle_0_0_mesh-mesh" name="ericrolph_cannon_car_wash_rampflap_Knuckle_0.0">
          <bind_material>
            <technique_common>
              <instance_material symbol="ericrolph_cannon_car_wash_attract_iron-material" target="#ericrolph_cannon_car_wash_attract_iron-material">
                <bind_vertex_input semantic="UVMap" input_semantic="TEXCOORD" input_set="0"/>
              </instance_material>
            </technique_common>
          </bind_material>
        </instance_geometry>
      </node>
      <node id="ericrolph_cannon_car_wash_rampflap_Knuckle_1_25" name="ericrolph_cannon_car_wash_rampflap_Knuckle_1.25" type="NODE">
        <matrix sid="transform">-4.37114e-8 0 1 1.25 0 1 0 0 -1 0 -4.37114e-8 -0.03 0 0 0 1</matrix>
        <instance_geometry url="#ericrolph_cannon_car_wash_rampflap_Knuckle_1_25_mesh-mesh" name="ericrolph_cannon_car_wash_rampflap_Knuckle_1.25">
          <bind_material>
            <technique_common>
              <instance_material symbol="ericrolph_cannon_car_wash_attract_iron-material" target="#ericrolph_cannon_car_wash_attract_iron-material">
                <bind_vertex_input semantic="UVMap" input_semantic="TEXCOORD" input_set="0"/>
              </instance_material>
            </technique_common>
          </bind_material>
        </instance_geometry>
      </node>
      <node id="ericrolph_cannon_car_wash_rampflap_Knuckle_2_5" name="ericrolph_cannon_car_wash_rampflap_Knuckle_2.5" type="NODE">
        <matrix sid="transform">-4.37114e-8 0 1 2.5 0 1 0 0 -1 0 -4.37114e-8 -0.03 0 0 0 1</matrix>
        <instance_geometry url="#ericrolph_cannon_car_wash_rampflap_Knuckle_2_5_mesh-mesh" name="ericrolph_cannon_car_wash_rampflap_Knuckle_2.5">
          <bind_material>
            <technique_common>
              <instance_material symbol="ericrolph_cannon_car_wash_attract_iron-material" target="#ericrolph_cannon_car_wash_attract_iron-material">
                <bind_vertex_input semantic="UVMap" input_semantic="TEXCOORD" input_set="0"/>
              </instance_material>
            </technique_common>
          </bind_material>
        </instance_geometry>
      </node>
      <node id="ericrolph_cannon_car_wash_rampflap_Wedge" name="ericrolph_cannon_car_wash_rampflap_Wedge" type="NODE">
        <matrix sid="transform">1 0 0 0 0 1 0 0 0 0 1 0 0 0 0 1</matrix>
        <instance_geometry url="#ericrolph_cannon_car_wash_rampflap_Wedge_mesh-mesh" name="ericrolph_cannon_car_wash_rampflap_Wedge">
          <bind_material>
            <technique_common>
              <instance_material symbol="ericrolph_cannon_car_wash_ramp_flap-material" target="#ericrolph_cannon_car_wash_ramp_flap-material">
                <bind_vertex_input semantic="UVMap" input_semantic="TEXCOORD" input_set="0"/>
              </instance_material>
              <instance_material symbol="ericrolph_cannon_car_wash_attract_iron-material" target="#ericrolph_cannon_car_wash_attract_iron-material">
                <bind_vertex_input semantic="UVMap" input_semantic="TEXCOORD" input_set="0"/>
              </instance_material>
            </technique_common>
          </bind_material>
        </instance_geometry>
      </node>
    </visual_scene>
  </library_visual_scenes>
  <scene>
    <instance_visual_scene url="#ericrolph_cannon_car_wash_scene"/>
  </scene>
</COLLADA>