<?xml version="1.0" encoding="utf-8"?>
<COLLADA xmlns="http://www.collada.org/2005/11/COLLADASchema" version="1.4.1" xmlns:xsi="http://www.w3.org/2001/XMLSchema-instance">
  <asset>
    <contributor>
      <author>Blender User</author>
      <authoring_tool>Blender 4.5.4 LTS commit date:2025-10-27, commit time:12:46, hash:b3efe983cc58</authoring_tool>
    </contributor>
    <created>2026-08-04T11:15:38</created>
    <modified>2026-08-04T11:15:38</modified>
    <unit name="meter" meter="1"/>
    <up_axis>Z_UP</up_axis>
  </asset>
  <library_effects>
    <effect id="ericrolph_cannon_car_wash_attract_cannon-effect">
      <profile_COMMON>
        <technique sid="common">
          <lambert>
            <emission>
              <color sid="emission">0 0 0 1</color>
            </emission>
            <diffuse>
              <color sid="diffuse">0.16 0.17 0.19 1</color>
            </diffuse>
            <reflectivity>
              <float sid="specular">0.85</float>
            </reflectivity>
            <index_of_refraction>
              <float sid="ior">1.5</float>
            </index_of_refraction>
          </lambert>
        </technique>
      </profile_COMMON>
    </effect>
    <effect id="ericrolph_cannon_car_wash_hazard_yellow-effect">
      <profile_COMMON>
        <technique sid="common">
          <lambert>
            <emission>
              <color sid="emission">0 0 0 1</color>
            </emission>
            <diffuse>
              <color sid="diffuse">1 0.68 0.015 1</color>
            </diffuse>
            <index_of_refraction>
              <float sid="ior">1.5</float>
            </index_of_refraction>
          </lambert>
        </technique>
      </profile_COMMON>
    </effect>
  </library_effects>
  <library_images/>
  <library_materials>
    <material id="ericrolph_cannon_car_wash_attract_cannon-material" name="ericrolph_cannon_car_wash_attract_cannon">
      <instance_effect url="#ericrolph_cannon_car_wash_attract_cannon-effect"/>
    </material>
    <material id="ericrolph_cannon_car_wash_hazard_yellow-material" name="ericrolph_cannon_car_wash_hazard_yellow">
      <instance_effect url="#ericrolph_cannon_car_wash_hazard_yellow-effect"/>
    </material>
  </library_materials>
  <library_geometries>
    <geometry id="ericrolph_cannon_car_wash_cannonshape_Barrel_mesh-mesh" name="ericrolph_cannon_car_wash_cannonshape_Barrel_mesh">
      <mesh>
        <source id="ericrolph_cannon_car_wash_cannonshape_Barrel_mesh-mesh-positions">
          <float_array id="ericrolph_cannon_car_wash_cannonshape_Barrel_mesh-mesh-positions-array" count="288">0 0.05951017 -0.4 0 0.08499997 -0.375 0 0.07753419 -0.3926776 0 0.05951017 0.4 0 0.08499997 0.375 0 0.07753419 0.3926776 0.02277356 0.05498027 -0.4 0.03252804 0.07852971 -0.375 0.02967101 0.07163226 -0.3926776 0.02277356 0.05498027 0.4 0.03252804 0.07852971 0.375 0.02967101 0.07163226 0.3926776 0.04208004 0.04208004 -0.4 0.06010407 0.06010407 -0.375 0.05482494 0.05482494 -0.3926776 0.04208004 0.04208004 0.4 0.06010407 0.06010407 0.375 0.05482494 0.05482494 0.3926776 0.05498027 0.02277356 -0.4 0.07852971 0.03252804 -0.375 0.07163226 0.02967101 -0.3926776 0.05498027 0.02277356 0.4 0.07852971 0.03252804 0.375 0.07163226 0.02967101 0.3926776 0.05951017 0 -0.4 0.08499997 0 -0.375 0.07753419 0 -0.3926776 0.05951017 0 0.4 0.08499997 0 0.375 0.07753419 0 0.3926776 0.05498027 -0.02277356 -0.4 0.07852971 -0.03252804 -0.375 0.07163226 -0.02967101 -0.3926776 0.05498027 -0.02277356 0.4 0.07852971 -0.03252804 0.375 0.07163226 -0.02967101 0.3926776 0.04208004 -0.04208004 -0.4 0.06010407 -0.06010407 -0.375 0.05482494 -0.05482494 -0.3926776 0.04208004 -0.04208004 0.4 0.06010407 -0.06010407 0.375 0.05482494 -0.05482494 0.3926776 0.02277356 -0.05498027 -0.4 0.03252804 -0.07852971 -0.375 0.02967101 -0.07163226 -0.3926776 0.02277356 -0.05498027 0.4 0.03252804 -0.07852971 0.375 0.02967101 -0.07163226 0.3926776 0 -0.05951017 -0.4 0 -0.08499997 -0.375 0 -0.07753419 -0.3926776 0 -0.05951017 0.4 0 -0.08499997 0.375 0 -0.07753419 0.3926776 -0.02277356 -0.05498027 -0.4 -0.03252804 -0.07852971 -0.375 -0.02967101 -0.07163226 -0.3926776 -0.02277356 -0.05498027 0.4 -0.03252804 -0.07852971 0.375 -0.02967101 -0.07163226 0.3926776 -0.04208004 -0.04208004 -0.4 -0.06010407 -0.06010407 -0.375 -0.05482494 -0.05482494 -0.3926776 -0.04208004 -0.04208004 0.4 -0.06010407 -0.06010407 0.375 -0.05482494 -0.05482494 0.3926776 -0.05498027 -0.02277356 -0.4 -0.07852971 -0.03252804 -0.375 -0.07163226 -0.02967101 -0.3926776 -0.05498027 -0.02277356 0.4 -0.07852971 -0.03252804 0.375 -0.07163226 -0.02967101 0.3926776 -0.05951017 0 -0.4 -0.08499997 0 -0.375 -0.07753419 0 -0.3926776 -0.05951017 0 0.4 -0.08499997 0 0.375 -0.07753419 0 0.3926776 -0.05498027 0.02277356 -0.4 -0.07852971 0.03252804 -0.375 -0.07163226 0.02967101 -0.3926776 -0.05498027 0.02277356 0.4 -0.07852971 0.03252804 0.375 -0.07163226 0.02967101 0.3926776 -0.04208004 0.04208004 -0.4 -0.06010407 0.06010407 -0.375 -0.05482494 0.05482494 -0.3926776 -0.04208004 0.04208004 0.4 -0.06010407 0.06010407 0.375 -0.05482494 0.05482494 0.3926776 -0.02277356 0.05498027 -0.4 -0.03252804 0.07852971 -0.375 -0.02967101 0.07163226 -0.3926776 -0.02277356 0.05498027 0.4 -0.03252804 0.07852971 0.375 -0.02967101 0.07163226 0.3926776</float_array>
          <technique_common>
            <accessor source="#ericrolph_cannon_car_wash_cannonshape_Barrel_mesh-mesh-positions-array" count="96" stride="3">
              <param name="X" type="float"/>
              <param name="Y" type="float"/>
              <param name="Z" type="float"/>
            </accessor>
          </technique_common>
        </source>
        <source id="ericrolph_cannon_car_wash_cannonshape_Barrel_mesh-mesh-normals">
          <float_array id="ericrolph_cannon_car_wash_cannonshape_Barrel_mesh-mesh-normals-array" count="564">0.1802399 0.9061272 -0.3826839 0.07465815 0.375332 -0.9238788 0.18024 0.9061271 0.3826842 0.07465821 0.3753321 0.9238788 0.5132799 0.7681775 -0.3826838 0.2126085 0.3181911 -0.9238788 0.5132797 0.7681777 0.3826838 0.2126084 0.3181911 0.9238788 0.7681777 0.5132797 -0.3826838 0.3181911 0.2126084 -0.9238788 0.7681775 0.5132799 0.3826838 0.3181911 0.2126085 0.9238788 0.9061271 0.18024 -0.3826842 0.3753321 0.07465821 -0.9238788 0.9061272 0.1802399 0.3826839 0.375332 0.07465815 0.9238788 0.9061272 -0.1802399 -0.3826839 0.375332 -0.07465815 -0.9238788 0.9061271 -0.18024 0.3826842 0.3753321 -0.07465821 0.9238788 0.7681775 -0.5132799 -0.3826838 0.3181911 -0.2126085 -0.9238788 0.7681777 -0.5132797 0.3826838 0.3181911 -0.2126084 0.9238788 0.5132797 -0.7681777 -0.3826838 0.2126084 -0.3181911 -0.9238788 0.5132799 -0.7681775 0.3826838 0.2126085 -0.3181911 0.9238788 0.18024 -0.9061271 -0.3826842 0.07465821 -0.3753321 -0.9238788 0.1802399 -0.9061272 0.3826839 0.07465815 -0.375332 0.9238788 -0.1802399 -0.9061272 -0.3826839 -0.07465815 -0.375332 -0.9238788 -0.18024 -0.9061271 0.3826842 -0.07465821 -0.3753321 0.9238788 -0.5132799 -0.7681775 -0.3826838 -0.2126085 -0.3181911 -0.9238788 -0.5132797 -0.7681777 0.3826838 -0.2126084 -0.3181911 0.9238788 -0.7681777 -0.5132797 -0.3826838 -0.3181911 -0.2126084 -0.9238788 -0.7681775 -0.5132799 0.3826838 -0.3181911 -0.2126085 0.9238788 -0.9061271 -0.18024 -0.3826842 -0.3753321 -0.07465821 -0.9238788 -0.9061272 -0.1802399 0.3826839 -0.375332 -0.07465815 0.9238788 -0.9061272 0.1802399 -0.3826839 -0.375332 0.07465815 -0.9238788 -0.9061271 0.18024 0.3826842 -0.3753321 0.07465821 0.9238788 -0.7681775 0.5132799 -0.3826838 -0.3181911 0.2126085 -0.9238788 -0.7681777 0.5132797 0.3826838 -0.3181911 0.2126084 0.9238788 -0.5132797 0.7681777 -0.3826838 -0.2126084 0.3181911 -0.9238788 -0.5132799 0.7681775 0.3826838 -0.2126085 0.3181911 0.9238788 -0.18024 0.9061271 -0.3826842 -0.07465821 0.3753321 -0.9238788 -0.1802399 0.9061272 0.3826839 -0.07465815 0.375332 0.9238788 0 0 -1 0.1950903 0.9807853 0 -0.1950903 0.9807853 0 0 0 1 0.5555703 0.8314696 0 0.8314696 0.5555703 0 0.9807853 0.1950903 0 0.9807853 -0.1950903 0 0.8314696 -0.5555703 0 0.5555703 -0.8314696 0 0.1950903 -0.9807853 0 -0.1950903 -0.9807853 0 -0.5555703 -0.8314696 0 -0.8314696 -0.5555703 0 -0.9807853 -0.1950903 0 -0.9807853 0.1950903 0 -0.8314696 0.5555703 0 -0.5555703 0.8314696 0 0.1802399 0.9061273 -0.3826838 0.07465815 0.3753319 -0.9238789 0.1802399 0.9061272 0.3826839 0.07465821 0.375332 0.9238788 0.51328 0.7681776 -0.3826838 0.2126085 0.3181911 -0.9238788 0.5132799 0.7681775 0.3826841 0.2126085 0.3181911 0.9238787 0.7681775 0.5132799 -0.3826841 0.3181911 0.2126085 -0.9238787 0.7681776 0.51328 0.3826838 0.3181911 0.2126085 0.9238788 0.9061272 0.1802399 -0.3826839 0.375332 0.07465821 -0.9238788 0.9061273 0.1802399 0.3826838 0.3753319 0.07465815 0.9238789 0.9061273 -0.1802399 -0.3826838 0.3753319 -0.07465815 -0.9238789 0.9061272 -0.1802399 0.3826839 0.375332 -0.07465821 0.9238788 0.7681776 -0.51328 -0.3826838 0.3181911 -0.2126085 -0.9238788 0.7681775 -0.5132799 0.3826841 0.3181911 -0.2126085 0.9238787 0.5132799 -0.7681775 -0.3826841 0.2126085 -0.3181911 -0.9238787 0.51328 -0.7681776 0.3826838 0.2126085 -0.3181911 0.9238788 0.1802399 -0.9061272 -0.3826839 0.07465821 -0.375332 -0.9238788 0.1802399 -0.9061273 0.3826838 0.07465815 -0.3753319 0.9238789 -0.1802399 -0.9061273 -0.3826838 -0.07465815 -0.3753319 -0.9238789 -0.1802399 -0.9061272 0.3826839 -0.07465821 -0.375332 0.9238788 -0.51328 -0.7681776 -0.3826838 -0.2126085 -0.3181911 -0.9238788 -0.5132799 -0.7681775 0.3826841 -0.2126085 -0.3181911 0.9238787 -0.7681775 -0.5132799 -0.3826841 -0.3181911 -0.2126085 -0.9238787 -0.7681776 -0.51328 0.3826838 -0.3181911 -0.2126085 0.9238788 -0.9061272 -0.1802399 -0.3826839 -0.375332 -0.07465821 -0.9238788 -0.9061273 -0.1802399 0.3826838 -0.3753319 -0.07465815 0.9238789 -0.9061273 0.1802399 -0.3826838 -0.3753319 0.07465815 -0.9238789 -0.9061272 0.1802399 0.3826839 -0.375332 0.07465821 0.9238788 -0.7681776 0.51328 -0.3826838 -0.3181911 0.2126085 -0.9238788 -0.7681775 0.5132799 0.3826841 -0.3181911 0.2126085 0.9238787 -0.5132799 0.7681775 -0.3826841 -0.2126085 0.3181911 -0.9238787 -0.51328 0.7681776 0.3826838 -0.2126085 0.3181911 0.9238788 -0.1802399 0.9061272 -0.3826839 -0.07465821 0.375332 -0.9238788 -0.1802399 0.9061273 0.3826838 -0.07465815 0.3753319 0.9238789 0 0 -1 0 0 -1 0 0 -1 0 0 -1 0 0 -1 0 0 -1 0 0 -1 0 0 -1 0 0 -1 0 0 -1 0 0 -1 0 0 -1 0 0 -1 0.1950903 0.9807853 0 -0.1950903 0.9807853 0 0 0 1 0 0 1 0 0 1 0 0 1 0 0 1 0 0 1 0 0 1 0 0 1 0 0 1 0 0 1 0 0 1 0 0 1 0 0 1 0.5555703 0.8314696 0 0.8314696 0.5555703 0 0.9807853 0.1950903 0 0.9807853 -0.1950903 0 0.8314696 -0.5555703 0 0.5555703 -0.8314696 0 0.1950903 -0.9807853 0 -0.1950903 -0.9807853 0 -0.5555703 -0.8314696 0 -0.8314696 -0.5555703 0 -0.9807853 -0.1950903 0 -0.9807853 0.1950903 0 -0.8314696 0.5555703 0 -0.5555703 0.8314696 0</float_array>
          <technique_common>
            <accessor source="#ericrolph_cannon_car_wash_cannonshape_Barrel_mesh-mesh-normals-array" count="188" stride="3">
              <param name="X" type="float"/>
              <param name="Y" type="float"/>
              <param name="Z" type="float"/>
            </accessor>
          </technique_common>
        </source>
        <source id="ericrolph_cannon_car_wash_cannonshape_Barrel_mesh-mesh-map-0">
          <float_array id="ericrolph_cannon_car_wash_cannonshape_Barrel_mesh-mesh-map-0-array" count="1128">0.9374999 0.515625 0.9972552 0.5 1 0.515625 0.841537 0.4709898 0.75 0.418029 0.75 0.4891977 0.9375001 0.9843751 0.9972553 1 0.9375001 1 0.341537 0.4709898 0.25 0.4180289 0.3143019 0.4052384 0.875 0.515625 0.9375001 0.5 0.9374999 0.515625 0.9191383 0.4191383 0.8143017 0.4052383 0.841537 0.4709898 0.875 0.984375 0.9375001 1 0.8750001 1 0.341537 0.4709898 0.3688143 0.3688144 0.4191383 0.4191383 0.875 0.515625 0.8125 0.5 0.875 0.5 0.9709898 0.341537 0.8688143 0.3688144 0.9191383 0.4191383 0.875 0.984375 0.8125 1 0.8125 0.984375 0.4191383 0.4191383 0.4052384 0.3143018 0.4709898 0.341537 0.8125 0.515625 0.75 0.5 0.8125 0.5 0.9709898 0.341537 0.9180291 0.25 0.9052384 0.3143019 0.8125 0.984375 0.75 1 0.75 0.9843751 0.4709898 0.341537 0.4180288 0.25 0.4891978 0.25 0.6875 0.515625 0.75 0.5 0.75 0.515625 0.9709898 0.158463 0.9180291 0.25 0.9891978 0.25 0.6875 0.9843752 0.75 1 0.6875 1 0.4709898 0.158463 0.4180288 0.25 0.4052384 0.1856981 0.625 0.515625 0.6875 0.5 0.6875 0.515625 0.9191383 0.08086168 0.9052385 0.1856981 0.9709898 0.158463 0.625 0.984375 0.6875 1 0.6250001 1 0.4709898 0.158463 0.3688143 0.1311856 0.4191383 0.08086168 0.625 0.515625 0.5625 0.5 0.6250001 0.5 0.8415369 0.02901011 0.8688143 0.1311856 0.9191383 0.08086168 0.625 0.984375 0.5625001 1 0.5625 0.9843751 0.4191383 0.08086168 0.3143019 0.09476155 0.341537 0.02901011 0.5625 0.515625 0.5 0.5 0.5625 0.5 0.8415369 0.02901011 0.7500001 0.0819711 0.8143019 0.09476155 0.5625 0.9843751 0.5 1 0.5 0.9843751 0.341537 0.02901011 0.25 0.0819711 0.25 0.01080226 0.4375 0.515625 0.5 0.5 0.5 0.515625 0.658463 0.02901011 0.7500001 0.0819711 0.75 0.01080226 0.4375 0.984375 0.5 1 0.4375 1 0.158463 0.02901011 0.25 0.0819711 0.1856981 0.09476155 0.375 0.515625 0.4375 0.5 0.4375 0.515625 0.5808617 0.08086168 0.6856981 0.09476155 0.658463 0.02901011 0.375 0.984375 0.4375 1 0.375 1 0.158463 0.02901011 0.1311857 0.1311856 0.08086168 0.08086168 0.375 0.515625 0.3125 0.5 0.375 0.5 0.5290102 0.158463 0.6311857 0.1311857 0.5808617 0.08086168 0.375 0.984375 0.3125 1 0.3125 0.984375 0.08086168 0.08086168 0.09476155 0.1856981 0.02901011 0.158463 0.3125 0.515625 0.25 0.5 0.3125 0.5 0.5290102 0.158463 0.5819711 0.25 0.5947616 0.1856981 0.3125 0.984375 0.25 1 0.25 0.9843751 0.02901011 0.158463 0.0819711 0.25 0.01080226 0.25 0.1875 0.515625 0.25 0.5 0.25 0.515625 0.5290102 0.341537 0.5819711 0.25 0.5108023 0.25 0.1875 0.984375 0.25 1 0.1875 1 0.02901011 0.341537 0.0819711 0.25 0.09476155 0.3143019 0.125 0.515625 0.1875 0.5 0.1875 0.515625 0.5808617 0.4191383 0.5947616 0.3143019 0.5290102 0.341537 0.125 0.984375 0.1875 1 0.125 1 0.02901011 0.341537 0.1311856 0.3688143 0.08086168 0.4191383 0.125 0.515625 0.0625 0.5 0.125 0.5 0.658463 0.4709898 0.6311857 0.3688144 0.5808617 0.4191383 0.125 0.984375 0.0625 1 0.0625 0.9843749 0.08086168 0.4191383 0.1856982 0.4052385 0.158463 0.4709898 0.0625 0.515625 0.002744734 0.5 0.0625 0.5 0.658463 0.4709898 0.75 0.418029 0.6856981 0.4052385 0.0625 0.9843749 0.002744734 1 0 0.9843751 0.158463 0.4709898 0.25 0.4180289 0.25 0.4891977 0.8143019 0.09476155 0.5947616 0.1856981 0.6856981 0.4052385 1 0.9843751 0.9374999 0.515625 1 0.515625 0.0625 0.9843749 0 0.515625 0.0625 0.515625 0.1311857 0.1311856 0.3688143 0.1311856 0.3688143 0.3688144 0.9375001 0.9843751 0.875 0.515625 0.9374999 0.515625 0.875 0.984375 0.8125 0.515625 0.875 0.515625 0.8125 0.984375 0.75 0.515625 0.8125 0.515625 0.75 0.9843751 0.6875 0.515625 0.75 0.515625 0.6875 0.9843752 0.625 0.515625 0.6875 0.515625 0.625 0.984375 0.5625 0.515625 0.625 0.515625 0.5625 0.9843751 0.5 0.515625 0.5625 0.515625 0.5 0.9843751 0.4375 0.515625 0.5 0.515625 0.4375 0.984375 0.375 0.515625 0.4375 0.515625 0.375 0.984375 0.3125 0.515625 0.375 0.515625 0.3125 0.984375 0.25 0.515625 0.3125 0.515625 0.25 0.9843751 0.1875 0.515625 0.25 0.515625 0.1875 0.984375 0.125 0.515625 0.1875 0.515625 0.125 0.984375 0.0625 0.515625 0.125 0.515625 0.9374999 0.515625 0.9375001 0.5 0.9972552 0.5 0.841537 0.4709898 0.8143017 0.4052383 0.75 0.418029 0.9375001 0.9843751 1 0.9843751 0.9972553 1 0.341537 0.4709898 0.25 0.4891977 0.25 0.4180289 0.875 0.515625 0.875 0.5 0.9375001 0.5 0.9191383 0.4191383 0.8688143 0.3688144 0.8143017 0.4052383 0.875 0.984375 0.9375001 0.9843751 0.9375001 1 0.341537 0.4709898 0.3143019 0.4052384 0.3688143 0.3688144 0.875 0.515625 0.8125 0.515625 0.8125 0.5 0.9709898 0.341537 0.9052384 0.3143019 0.8688143 0.3688144 0.875 0.984375 0.8750001 1 0.8125 1 0.4191383 0.4191383 0.3688143 0.3688144 0.4052384 0.3143018 0.8125 0.515625 0.75 0.515625 0.75 0.5 0.9709898 0.341537 0.9891978 0.25 0.9180291 0.25 0.8125 0.984375 0.8125 1 0.75 1 0.4709898 0.341537 0.4052384 0.3143018 0.4180288 0.25 0.6875 0.515625 0.6875 0.5 0.75 0.5 0.9709898 0.158463 0.9052385 0.1856981 0.9180291 0.25 0.6875 0.9843752 0.75 0.9843751 0.75 1 0.4709898 0.158463 0.4891978 0.25 0.4180288 0.25 0.625 0.515625 0.6250001 0.5 0.6875 0.5 0.9191383 0.08086168 0.8688143 0.1311856 0.9052385 0.1856981 0.625 0.984375 0.6875 0.9843752 0.6875 1 0.4709898 0.158463 0.4052384 0.1856981 0.3688143 0.1311856 0.625 0.515625 0.5625 0.515625 0.5625 0.5 0.8415369 0.02901011 0.8143019 0.09476155 0.8688143 0.1311856 0.625 0.984375 0.6250001 1 0.5625001 1 0.4191383 0.08086168 0.3688143 0.1311856 0.3143019 0.09476155 0.5625 0.515625 0.5 0.515625 0.5 0.5 0.8415369 0.02901011 0.75 0.01080226 0.7500001 0.0819711 0.5625 0.9843751 0.5625001 1 0.5 1 0.341537 0.02901011 0.3143019 0.09476155 0.25 0.0819711 0.4375 0.515625 0.4375 0.5 0.5 0.5 0.658463 0.02901011 0.6856981 0.09476155 0.7500001 0.0819711 0.4375 0.984375 0.5 0.9843751 0.5 1 0.158463 0.02901011 0.25 0.01080226 0.25 0.0819711 0.375 0.515625 0.375 0.5 0.4375 0.5 0.5808617 0.08086168 0.6311857 0.1311857 0.6856981 0.09476155 0.375 0.984375 0.4375 0.984375 0.4375 1 0.158463 0.02901011 0.1856981 0.09476155 0.1311857 0.1311856 0.375 0.515625 0.3125 0.515625 0.3125 0.5 0.5290102 0.158463 0.5947616 0.1856981 0.6311857 0.1311857 0.375 0.984375 0.375 1 0.3125 1 0.08086168 0.08086168 0.1311857 0.1311856 0.09476155 0.1856981 0.3125 0.515625 0.25 0.515625 0.25 0.5 0.5290102 0.158463 0.5108023 0.25 0.5819711 0.25 0.3125 0.984375 0.3125 1 0.25 1 0.02901011 0.158463 0.09476155 0.1856981 0.0819711 0.25 0.1875 0.515625 0.1875 0.5 0.25 0.5 0.5290102 0.341537 0.5947616 0.3143019 0.5819711 0.25 0.1875 0.984375 0.25 0.9843751 0.25 1 0.02901011 0.341537 0.01080226 0.25 0.0819711 0.25 0.125 0.515625 0.125 0.5 0.1875 0.5 0.5808617 0.4191383 0.6311857 0.3688144 0.5947616 0.3143019 0.125 0.984375 0.1875 0.984375 0.1875 1 0.02901011 0.341537 0.09476155 0.3143019 0.1311856 0.3688143 0.125 0.515625 0.0625 0.515625 0.0625 0.5 0.658463 0.4709898 0.6856981 0.4052385 0.6311857 0.3688144 0.125 0.984375 0.125 1 0.0625 1 0.08086168 0.4191383 0.1311856 0.3688143 0.1856982 0.4052385 0.0625 0.515625 0 0.515625 0.002744734 0.5 0.658463 0.4709898 0.75 0.4891977 0.75 0.418029 0.0625 0.9843749 0.0625 1 0.002744734 1 0.158463 0.4709898 0.1856982 0.4052385 0.25 0.4180289 0.6856981 0.4052385 0.75 0.418029 0.8143017 0.4052383 0.8143017 0.4052383 0.8688143 0.3688144 0.6856981 0.4052385 0.8688143 0.3688144 0.9052384 0.3143019 0.6856981 0.4052385 0.9052384 0.3143019 0.9180291 0.25 0.9052385 0.1856981 0.9052385 0.1856981 0.8688143 0.1311856 0.9052384 0.3143019 0.8688143 0.1311856 0.8143019 0.09476155 0.9052384 0.3143019 0.8143019 0.09476155 0.7500001 0.0819711 0.6856981 0.09476155 0.6856981 0.09476155 0.6311857 0.1311857 0.8143019 0.09476155 0.6311857 0.1311857 0.5947616 0.1856981 0.8143019 0.09476155 0.5947616 0.1856981 0.5819711 0.25 0.5947616 0.3143019 0.5947616 0.3143019 0.6311857 0.3688144 0.5947616 0.1856981 0.6311857 0.3688144 0.6856981 0.4052385 0.5947616 0.1856981 0.6856981 0.4052385 0.9052384 0.3143019 0.8143019 0.09476155 1 0.9843751 0.9375001 0.9843751 0.9374999 0.515625 0.0625 0.9843749 0 0.9843751 0 0.515625 0.3688143 0.3688144 0.3143019 0.4052384 0.25 0.4180289 0.25 0.4180289 0.1856982 0.4052385 0.3688143 0.3688144 0.1856982 0.4052385 0.1311856 0.3688143 0.3688143 0.3688144 0.1311856 0.3688143 0.09476155 0.3143019 0.1311857 0.1311856 0.09476155 0.3143019 0.0819711 0.25 0.1311857 0.1311856 0.0819711 0.25 0.09476155 0.1856981 0.1311857 0.1311856 0.1311857 0.1311856 0.1856981 0.09476155 0.3688143 0.1311856 0.1856981 0.09476155 0.25 0.0819711 0.3688143 0.1311856 0.25 0.0819711 0.3143019 0.09476155 0.3688143 0.1311856 0.3688143 0.1311856 0.4052384 0.1856981 0.4180288 0.25 0.4180288 0.25 0.4052384 0.3143018 0.3688143 0.1311856 0.4052384 0.3143018 0.3688143 0.3688144 0.3688143 0.1311856 0.3688143 0.3688144 0.1311856 0.3688143 0.1311857 0.1311856 0.9375001 0.9843751 0.875 0.984375 0.875 0.515625 0.875 0.984375 0.8125 0.984375 0.8125 0.515625 0.8125 0.984375 0.75 0.9843751 0.75 0.515625 0.75 0.9843751 0.6875 0.9843752 0.6875 0.515625 0.6875 0.9843752 0.625 0.984375 0.625 0.515625 0.625 0.984375 0.5625 0.9843751 0.5625 0.515625 0.5625 0.9843751 0.5 0.9843751 0.5 0.515625 0.5 0.9843751 0.4375 0.984375 0.4375 0.515625 0.4375 0.984375 0.375 0.984375 0.375 0.515625 0.375 0.984375 0.3125 0.984375 0.3125 0.515625 0.3125 0.984375 0.25 0.9843751 0.25 0.515625 0.25 0.9843751 0.1875 0.984375 0.1875 0.515625 0.1875 0.984375 0.125 0.984375 0.125 0.515625 0.125 0.984375 0.0625 0.9843749 0.0625 0.515625</float_array>
          <technique_common>
            <accessor source="#ericrolph_cannon_car_wash_cannonshape_Barrel_mesh-mesh-map-0-array" count="564" stride="2">
              <param name="S" type="float"/>
              <param name="T" type="float"/>
            </accessor>
          </technique_common>
        </source>
        <vertices id="ericrolph_cannon_car_wash_cannonshape_Barrel_mesh-mesh-vertices">
          <input semantic="POSITION" source="#ericrolph_cannon_car_wash_cannonshape_Barrel_mesh-mesh-positions"/>
        </vertices>
        <triangles material="ericrolph_cannon_car_wash_attract_cannon-material" count="188">
          <input semantic="VERTEX" source="#ericrolph_cannon_car_wash_cannonshape_Barrel_mesh-mesh-vertices" offset="0"/>
          <input semantic="NORMAL" source="#ericrolph_cannon_car_wash_cannonshape_Barrel_mesh-mesh-normals" offset="1"/>
          <input semantic="TEXCOORD" source="#ericrolph_cannon_car_wash_cannonshape_Barrel_mesh-mesh-map-0" offset="2" set="0"/>
          <p>7 0 0 2 0 1 1 0 2 8 1 3 0 1 4 2 1 5 10 2 6 5 2 7 11 2 8 11 3 9 3 3 10 9 3 11 13 4 12 8 4 13 7 4 14 14 5 15 6 5 16 8 5 17 16 6 18 11 6 19 17 6 20 11 7 21 15 7 22 17 7 23 13 8 24 20 8 25 14 8 26 20 9 27 12 9 28 14 9 29 16 10 30 23 10 31 22 10 32 17 11 33 21 11 34 23 11 35 19 12 36 26 12 37 20 12 38 20 13 39 24 13 40 18 13 41 22 14 42 29 14 43 28 14 44 23 15 45 27 15 46 29 15 47 31 16 48 26 16 49 25 16 50 32 17 51 24 17 52 26 17 53 34 18 54 29 18 55 35 18 56 35 19 57 27 19 58 33 19 59 37 20 60 32 20 61 31 20 62 38 21 63 30 21 64 32 21 65 40 22 66 35 22 67 41 22 68 35 23 69 39 23 70 41 23 71 37 24 72 44 24 73 38 24 74 44 25 75 36 25 76 38 25 77 40 26 78 47 26 79 46 26 80 41 27 81 45 27 82 47 27 83 43 28 84 50 28 85 44 28 86 44 29 87 48 29 88 42 29 89 46 30 90 53 30 91 52 30 92 47 31 93 51 31 94 53 31 95 55 32 96 50 32 97 49 32 98 56 33 99 48 33 100 50 33 101 58 34 102 53 34 103 59 34 104 59 35 105 51 35 106 57 35 107 61 36 108 56 36 109 55 36 110 62 37 111 54 37 112 56 37 113 64 38 114 59 38 115 65 38 116 59 39 117 63 39 118 65 39 119 61 40 120 68 40 121 62 40 122 68 41 123 60 41 124 62 41 125 64 42 126 71 42 127 70 42 128 65 43 129 69 43 130 71 43 131 67 44 132 74 44 133 68 44 134 68 45 135 72 45 136 66 45 137 70 46 138 77 46 139 76 46 140 71 47 141 75 47 142 77 47 143 79 48 144 74 48 145 73 48 146 80 49 147 72 49 148 74 49 149 82 50 150 77 50 151 83 50 152 83 51 153 75 51 154 81 51 155 85 52 156 80 52 157 79 52 158 86 53 159 78 53 160 80 53 161 88 54 162 83 54 163 89 54 164 83 55 165 87 55 166 89 55 167 85 56 168 92 56 169 86 56 170 92 57 171 84 57 172 86 57 173 88 58 174 95 58 175 94 58 176 89 59 177 93 59 178 95 59 179 91 60 180 2 60 181 92 60 182 92 61 183 0 61 184 90 61 185 94 62 186 5 62 187 4 62 188 95 63 189 3 63 190 5 63 191 42 64 192 66 64 193 90 64 194 4 65 195 7 65 196 1 65 197 94 66 198 1 66 199 91 66 200 63 67 201 39 67 202 15 67 203 10 68 204 13 68 205 7 68 206 16 69 207 19 69 208 13 69 209 22 70 210 25 70 211 19 70 212 28 71 213 31 71 214 25 71 215 34 72 216 37 72 217 31 72 218 40 73 219 43 73 220 37 73 221 46 74 222 49 74 223 43 74 224 52 75 225 55 75 226 49 75 227 58 76 228 61 76 229 55 76 230 64 77 231 67 77 232 61 77 233 70 78 234 73 78 235 67 78 236 76 79 237 79 79 238 73 79 239 82 80 240 85 80 241 79 80 242 88 81 243 91 81 244 85 81 245 7 82 246 8 82 247 2 82 248 8 83 249 6 83 250 0 83 251 10 84 252 4 84 253 5 84 254 11 85 255 5 85 256 3 85 257 13 86 258 14 86 259 8 86 260 14 87 261 12 87 262 6 87 263 16 88 264 10 88 265 11 88 266 11 89 267 9 89 268 15 89 269 13 90 270 19 90 271 20 90 272 20 91 273 18 91 274 12 91 275 16 92 276 17 92 277 23 92 278 17 93 279 15 93 280 21 93 281 19 94 282 25 94 283 26 94 284 20 95 285 26 95 286 24 95 287 22 96 288 23 96 289 29 96 290 23 97 291 21 97 292 27 97 293 31 98 294 32 98 295 26 98 296 32 99 297 30 99 298 24 99 299 34 100 300 28 100 301 29 100 302 35 101 303 29 101 304 27 101 305 37 102 306 38 102 307 32 102 308 38 103 309 36 103 310 30 103 311 40 104 312 34 104 313 35 104 314 35 105 315 33 105 316 39 105 317 37 106 318 43 106 319 44 106 320 44 107 321 42 107 322 36 107 323 40 108 324 41 108 325 47 108 326 41 109 327 39 109 328 45 109 329 43 110 330 49 110 331 50 110 332 44 111 333 50 111 334 48 111 335 46 112 336 47 112 337 53 112 338 47 113 339 45 113 340 51 113 341 55 114 342 56 114 343 50 114 344 56 115 345 54 115 346 48 115 347 58 116 348 52 116 349 53 116 350 59 117 351 53 117 352 51 117 353 61 118 354 62 118 355 56 118 356 62 119 357 60 119 358 54 119 359 64 120 360 58 120 361 59 120 362 59 121 363 57 121 364 63 121 365 61 122 366 67 122 367 68 122 368 68 123 369 66 123 370 60 123 371 64 124 372 65 124 373 71 124 374 65 125 375 63 125 376 69 125 377 67 126 378 73 126 379 74 126 380 68 127 381 74 127 382 72 127 383 70 128 384 71 128 385 77 128 386 71 129 387 69 129 388 75 129 389 79 130 390 80 130 391 74 130 392 80 131 393 78 131 394 72 131 395 82 132 396 76 132 397 77 132 398 83 133 399 77 133 400 75 133 401 85 134 402 86 134 403 80 134 404 86 135 405 84 135 406 78 135 407 88 136 408 82 136 409 83 136 410 83 137 411 81 137 412 87 137 413 85 138 414 91 138 415 92 138 416 92 139 417 90 139 418 84 139 419 88 140 420 89 140 421 95 140 422 89 141 423 87 141 424 93 141 425 91 142 426 1 142 427 2 142 428 92 143 429 2 143 430 0 143 431 94 144 432 95 144 433 5 144 434 95 145 435 93 145 436 3 145 437 90 146 438 0 146 439 6 146 440 6 147 441 12 147 442 90 147 443 12 148 444 18 148 445 90 148 446 18 149 447 24 149 448 30 149 449 30 150 450 36 150 451 18 150 452 36 151 453 42 151 454 18 151 455 42 152 456 48 152 457 54 152 458 54 153 459 60 153 460 42 153 461 60 154 462 66 154 463 42 154 464 66 155 465 72 155 466 78 155 467 78 156 468 84 156 469 66 156 470 84 157 471 90 157 472 66 157 473 90 158 474 18 158 475 42 158 476 4 159 477 10 159 478 7 159 479 94 160 480 4 160 481 1 160 482 15 161 483 9 161 484 3 161 485 3 162 486 93 162 487 15 162 488 93 163 489 87 163 490 15 163 491 87 164 492 81 164 493 63 164 494 81 165 495 75 165 496 63 165 497 75 166 498 69 166 499 63 166 500 63 167 501 57 167 502 39 167 503 57 168 504 51 168 505 39 168 506 51 169 507 45 169 508 39 169 509 39 170 510 33 170 511 27 170 512 27 171 513 21 171 514 39 171 515 21 172 516 15 172 517 39 172 518 15 173 519 87 173 520 63 173 521 10 174 522 16 174 523 13 174 524 16 175 525 22 175 526 19 175 527 22 176 528 28 176 529 25 176 530 28 177 531 34 177 532 31 177 533 34 178 534 40 178 535 37 178 536 40 179 537 46 179 538 43 179 539 46 180 540 52 180 541 49 180 542 52 181 543 58 181 544 55 181 545 58 182 546 64 182 547 61 182 548 64 183 549 70 183 550 67 183 551 70 184 552 76 184 553 73 184 554 76 185 555 82 185 556 79 185 557 82 186 558 88 186 559 85 186 560 88 187 561 94 187 562 91 187 563</p>
        </triangles>
      </mesh>
    </geometry>
    <geometry id="ericrolph_cannon_car_wash_cannonshape_Breech_mesh-mesh" name="ericrolph_cannon_car_wash_cannonshape_Breech_mesh">
      <mesh>
        <source id="ericrolph_cannon_car_wash_cannonshape_Breech_mesh-mesh-positions">
          <float_array id="ericrolph_cannon_car_wash_cannonshape_Breech_mesh-mesh-positions-array" count="288">0 0.0845102 -0.06 0 0.11 -0.03499996 0 0.1025342 -0.05267763 0 0.0845102 0.06 0 0.11 0.03499996 0 0.1025342 0.05267763 0.03234064 0.07807725 -0.06 0.04209518 0.1016267 -0.03499996 0.03923809 0.09472924 -0.05267763 0.03234064 0.07807725 0.06 0.04209518 0.1016267 0.03499996 0.03923809 0.09472924 0.05267763 0.0597577 0.0597577 -0.06 0.07778173 0.07778173 -0.03499996 0.07250261 0.07250261 -0.05267763 0.0597577 0.0597577 0.06 0.07778173 0.07778173 0.03499996 0.07250261 0.07250261 0.05267763 0.07807725 0.03234064 -0.06 0.1016267 0.04209518 -0.03499996 0.09472924 0.03923809 -0.05267763 0.07807725 0.03234064 0.06 0.1016267 0.04209518 0.03499996 0.09472924 0.03923809 0.05267763 0.0845102 0 -0.06 0.11 0 -0.03499996 0.1025342 0 -0.05267763 0.0845102 0 0.06 0.11 0 0.03499996 0.1025342 0 0.05267763 0.07807725 -0.03234064 -0.06 0.1016267 -0.04209518 -0.03499996 0.09472924 -0.03923809 -0.05267763 0.07807725 -0.03234064 0.06 0.1016267 -0.04209518 0.03499996 0.09472924 -0.03923809 0.05267763 0.0597577 -0.0597577 -0.06 0.07778173 -0.07778173 -0.03499996 0.07250261 -0.07250261 -0.05267763 0.0597577 -0.0597577 0.06 0.07778173 -0.07778173 0.03499996 0.07250261 -0.07250261 0.05267763 0.03234064 -0.07807725 -0.06 0.04209518 -0.1016267 -0.03499996 0.03923809 -0.09472924 -0.05267763 0.03234064 -0.07807725 0.06 0.04209518 -0.1016267 0.03499996 0.03923809 -0.09472924 0.05267763 0 -0.0845102 -0.06 0 -0.11 -0.03499996 0 -0.1025342 -0.05267763 0 -0.0845102 0.06 0 -0.11 0.03499996 0 -0.1025342 0.05267763 -0.03234064 -0.07807725 -0.06 -0.04209518 -0.1016267 -0.03499996 -0.03923809 -0.09472924 -0.05267763 -0.03234064 -0.07807725 0.06 -0.04209518 -0.1016267 0.03499996 -0.03923809 -0.09472924 0.05267763 -0.0597577 -0.0597577 -0.06 -0.07778173 -0.07778173 -0.03499996 -0.07250261 -0.07250261 -0.05267763 -0.0597577 -0.0597577 0.06 -0.07778173 -0.07778173 0.03499996 -0.07250261 -0.07250261 0.05267763 -0.07807725 -0.03234064 -0.06 -0.1016267 -0.04209518 -0.03499996 -0.09472924 -0.03923809 -0.05267763 -0.07807725 -0.03234064 0.06 -0.1016267 -0.04209518 0.03499996 -0.09472924 -0.03923809 0.05267763 -0.0845102 0 -0.06 -0.11 0 -0.03499996 -0.1025342 0 -0.05267763 -0.0845102 0 0.06 -0.11 0 0.03499996 -0.1025342 0 0.05267763 -0.07807725 0.03234064 -0.06 -0.1016267 0.04209518 -0.03499996 -0.09472924 0.03923809 -0.05267763 -0.07807725 0.03234064 0.06 -0.1016267 0.04209518 0.03499996 -0.09472924 0.03923809 0.05267763 -0.0597577 0.0597577 -0.06 -0.07778173 0.07778173 -0.03499996 -0.07250261 0.07250261 -0.05267763 -0.0597577 0.0597577 0.06 -0.07778173 0.07778173 0.03499996 -0.07250261 0.07250261 0.05267763 -0.03234064 0.07807725 -0.06 -0.04209518 0.1016267 -0.03499996 -0.03923809 0.09472924 -0.05267763 -0.03234064 0.07807725 0.06 -0.04209518 0.1016267 0.03499996 -0.03923809 0.09472924 0.05267763</float_array>
          <technique_common>
            <accessor source="#ericrolph_cannon_car_wash_cannonshape_Breech_mesh-mesh-positions-array" count="96" stride="3">
              <param name="X" type="float"/>
              <param name="Y" type="float"/>
              <param name="Z" type="float"/>
            </accessor>
          </technique_common>
        </source>
        <source id="ericrolph_cannon_car_wash_cannonshape_Breech_mesh-mesh-normals">
          <float_array id="ericrolph_cannon_car_wash_cannonshape_Breech_mesh-mesh-normals-array" count="564">0.18024 0.9061276 -0.3826832 0.07465779 0.3753302 -0.9238796 0.1802399 0.9061275 0.3826835 0.07465785 0.3753303 0.9238796 0.51328 0.7681778 -0.3826835 0.2126075 0.3181896 -0.9238795 0.51328 0.7681776 0.3826836 0.2126075 0.3181896 0.9238796 0.7681776 0.51328 -0.3826836 0.3181896 0.2126075 -0.9238796 0.7681778 0.51328 0.3826835 0.3181896 0.2126075 0.9238795 0.9061275 0.1802399 -0.3826835 0.3753303 0.07465785 -0.9238796 0.9061276 0.18024 0.3826832 0.3753302 0.07465779 0.9238796 0.9061276 -0.18024 -0.3826832 0.3753302 -0.07465779 -0.9238796 0.9061275 -0.1802399 0.3826835 0.3753303 -0.07465785 0.9238796 0.7681778 -0.51328 -0.3826835 0.3181896 -0.2126075 -0.9238795 0.7681776 -0.51328 0.3826836 0.3181896 -0.2126075 0.9238796 0.51328 -0.7681776 -0.3826836 0.2126075 -0.3181896 -0.9238796 0.51328 -0.7681778 0.3826835 0.2126075 -0.3181896 0.9238795 0.1802399 -0.9061275 -0.3826835 0.07465785 -0.3753303 -0.9238796 0.18024 -0.9061276 0.3826832 0.07465779 -0.3753302 0.9238796 -0.18024 -0.9061276 -0.3826832 -0.07465779 -0.3753302 -0.9238796 -0.1802399 -0.9061275 0.3826835 -0.07465785 -0.3753303 0.9238796 -0.51328 -0.7681778 -0.3826835 -0.2126075 -0.3181896 -0.9238795 -0.51328 -0.7681776 0.3826836 -0.2126075 -0.3181896 0.9238796 -0.7681776 -0.51328 -0.3826836 -0.3181896 -0.2126075 -0.9238796 -0.7681778 -0.51328 0.3826835 -0.3181896 -0.2126075 0.9238795 -0.9061275 -0.1802399 -0.3826835 -0.3753303 -0.07465785 -0.9238796 -0.9061276 -0.18024 0.3826832 -0.3753302 -0.07465779 0.9238796 -0.9061276 0.18024 -0.3826832 -0.3753302 0.07465779 -0.9238796 -0.9061275 0.1802399 0.3826835 -0.3753303 0.07465785 0.9238796 -0.7681778 0.51328 -0.3826835 -0.3181896 0.2126075 -0.9238795 -0.7681776 0.51328 0.3826836 -0.3181896 0.2126075 0.9238796 -0.51328 0.7681776 -0.3826836 -0.2126075 0.3181896 -0.9238796 -0.51328 0.7681778 0.3826835 -0.2126075 0.3181896 0.9238795 -0.1802399 0.9061275 -0.3826835 -0.07465785 0.3753303 -0.9238796 -0.18024 0.9061276 0.3826832 -0.07465779 0.3753302 0.9238796 0 0 -1 0.1950903 0.9807853 0 -0.1950903 0.9807853 0 0 0 1 0.5555703 0.8314696 0 0.8314696 0.5555703 0 0.9807853 0.1950903 0 0.9807853 -0.1950903 0 0.8314696 -0.5555703 0 0.5555703 -0.8314696 0 0.1950903 -0.9807853 0 -0.1950903 -0.9807853 0 -0.5555703 -0.8314696 0 -0.8314696 -0.5555703 0 -0.9807853 -0.1950903 0 -0.9807853 0.1950903 0 -0.8314696 0.5555703 0 -0.5555703 0.8314696 0 0.1802401 0.9061274 -0.3826835 0.07465791 0.3753303 -0.9238796 0.1802401 0.9061275 0.3826832 0.07465779 0.3753302 0.9238796 0.51328 0.7681776 -0.3826835 0.2126075 0.3181896 -0.9238796 0.51328 0.7681778 0.3826835 0.2126075 0.3181896 0.9238795 0.7681778 0.51328 -0.3826835 0.3181896 0.2126075 -0.9238795 0.7681776 0.51328 0.3826835 0.3181896 0.2126075 0.9238796 0.9061275 0.1802401 -0.3826832 0.3753302 0.07465779 -0.9238796 0.9061274 0.1802401 0.3826835 0.3753303 0.07465791 0.9238796 0.9061274 -0.1802401 -0.3826835 0.3753303 -0.07465791 -0.9238796 0.9061275 -0.1802401 0.3826832 0.3753302 -0.07465779 0.9238796 0.7681776 -0.51328 -0.3826835 0.3181896 -0.2126075 -0.9238796 0.7681778 -0.51328 0.3826835 0.3181896 -0.2126075 0.9238795 0.51328 -0.7681778 -0.3826835 0.2126075 -0.3181896 -0.9238795 0.51328 -0.7681776 0.3826835 0.2126075 -0.3181896 0.9238796 0.1802401 -0.9061275 -0.3826832 0.07465779 -0.3753302 -0.9238796 0.1802401 -0.9061274 0.3826835 0.07465791 -0.3753303 0.9238796 -0.1802401 -0.9061274 -0.3826835 -0.07465791 -0.3753303 -0.9238796 -0.1802401 -0.9061275 0.3826832 -0.07465779 -0.3753302 0.9238796 -0.51328 -0.7681776 -0.3826835 -0.2126075 -0.3181896 -0.9238796 -0.51328 -0.7681778 0.3826835 -0.2126075 -0.3181896 0.9238795 -0.7681778 -0.51328 -0.3826835 -0.3181896 -0.2126075 -0.9238795 -0.7681776 -0.51328 0.3826835 -0.3181896 -0.2126075 0.9238796 -0.9061275 -0.1802401 -0.3826832 -0.3753302 -0.07465779 -0.9238796 -0.9061274 -0.1802401 0.3826835 -0.3753303 -0.07465791 0.9238796 -0.9061274 0.1802401 -0.3826835 -0.3753303 0.07465791 -0.9238796 -0.9061275 0.1802401 0.3826832 -0.3753302 0.07465779 0.9238796 -0.7681776 0.51328 -0.3826835 -0.3181896 0.2126075 -0.9238796 -0.7681778 0.51328 0.3826835 -0.3181896 0.2126075 0.9238795 -0.51328 0.7681778 -0.3826835 -0.2126075 0.3181896 -0.9238795 -0.51328 0.7681776 0.3826835 -0.2126075 0.3181896 0.9238796 -0.1802401 0.9061275 -0.3826832 -0.07465779 0.3753302 -0.9238796 -0.1802401 0.9061274 0.3826835 -0.07465791 0.3753303 0.9238796 0 0 -1 0 0 -1 0 0 -1 0 0 -1 0 0 -1 0 0 -1 0 0 -1 0 0 -1 0 0 -1 0 0 -1 0 0 -1 0 0 -1 0 0 -1 0.1950903 0.9807853 0 -0.1950903 0.9807853 0 0 0 1 0 0 1 0 0 1 0 0 1 0 0 1 0 0 1 0 0 1 0 0 1 0 0 1 0 0 1 0 0 1 0 0 1 0 0 1 0.5555703 0.8314696 0 0.8314696 0.5555703 0 0.9807853 0.1950903 0 0.9807853 -0.1950903 0 0.8314696 -0.5555703 0 0.5555703 -0.8314696 0 0.1950903 -0.9807853 0 -0.1950903 -0.9807853 0 -0.5555703 -0.8314696 0 -0.8314696 -0.5555703 0 -0.9807853 -0.1950903 0 -0.9807853 0.1950903 0 -0.8314696 0.5555703 0 -0.5555703 0.8314696 0</float_array>
          <technique_common>
            <accessor source="#ericrolph_cannon_car_wash_cannonshape_Breech_mesh-mesh-normals-array" count="188" stride="3">
              <param name="X" type="float"/>
              <param name="Y" type="float"/>
              <param name="Z" type="float"/>
            </accessor>
          </technique_common>
        </source>
        <source id="ericrolph_cannon_car_wash_cannonshape_Breech_mesh-mesh-map-0">
          <float_array id="ericrolph_cannon_car_wash_cannonshape_Breech_mesh-mesh-map-0-array" count="1128">0.9374999 0.6041667 0.997879 0.5 1 0.6041668 0.7500001 0.4893801 0.8205615 0.4203503 0.75 0.434386 1 0.8958334 0.9375 1 0.9375 0.8958333 0.25 0.4893801 0.3205615 0.4203503 0.3416068 0.4711583 0.875 0.6041667 0.9375 0.5 0.9374999 0.6041667 0.8416069 0.4711583 0.8803806 0.3803806 0.8205615 0.4203503 0.875 0.8958334 0.9375 1 0.875 1 0.3416068 0.4711583 0.3803805 0.3803805 0.4192672 0.4192672 0.875 0.6041667 0.8125 0.5 0.875 0.5 0.9711584 0.3416068 0.8803806 0.3803806 0.9192672 0.4192672 0.875 0.8958334 0.8125 1 0.8125 0.8958333 0.4711583 0.3416067 0.3803805 0.3803805 0.4203504 0.3205614 0.75 0.6041667 0.8125 0.5 0.8125001 0.6041667 0.98938 0.25 0.9203505 0.3205614 0.9711584 0.3416068 0.8125 0.8958333 0.75 1 0.75 0.8958333 0.4893801 0.25 0.4203504 0.3205614 0.434386 0.25 0.6875 0.6041668 0.7500001 0.5 0.75 0.6041667 0.98938 0.25 0.9203505 0.1794385 0.934386 0.25 0.75 0.8958333 0.6875001 1 0.6875 0.8958334 0.4893801 0.25 0.4203503 0.1794385 0.4711583 0.1583932 0.6250001 0.6041668 0.6875001 0.5 0.6875 0.6041668 0.9711583 0.1583932 0.8803806 0.1196194 0.9203505 0.1794385 0.6250001 0.8958334 0.6875001 1 0.625 1 0.4711583 0.1583932 0.3803806 0.1196194 0.4192672 0.0807327 0.6250001 0.6041668 0.5625001 0.5 0.625 0.5 0.8416069 0.02884167 0.8803806 0.1196194 0.9192672 0.08073276 0.6250001 0.8958334 0.5625001 1 0.5625 0.8958333 0.3416068 0.02884167 0.3803806 0.1196194 0.3205614 0.07964956 0.5 0.6041668 0.5625001 0.5 0.5625 0.6041667 0.7500001 0.01061993 0.8205615 0.07964956 0.8416069 0.02884167 0.5625 0.8958333 0.5 1 0.5 0.8958334 0.25 0.01061993 0.3205614 0.07964956 0.25 0.06561404 0.4375 0.6041667 0.5 0.5 0.5 0.6041668 0.7500001 0.01061993 0.6794388 0.07964956 0.75 0.06561404 0.5 0.8958334 0.4375 1 0.4375001 0.8958334 0.25 0.01061993 0.1794385 0.07964956 0.1583932 0.02884167 0.375 0.6041667 0.4375 0.5 0.4375 0.6041667 0.6583933 0.02884167 0.6196195 0.1196194 0.6794388 0.07964956 0.375 0.8958334 0.4375 1 0.375 1 0.1583932 0.02884167 0.1196194 0.1196194 0.08073276 0.08073276 0.375 0.6041667 0.3125 0.5 0.375 0.5 0.5288417 0.1583932 0.6196195 0.1196194 0.5807328 0.0807327 0.375 0.8958334 0.3125 1 0.3125 0.8958334 0.02884167 0.1583932 0.1196194 0.1196194 0.07964956 0.1794385 0.25 0.6041667 0.3125 0.5 0.3125 0.6041668 0.5106199 0.25 0.5796497 0.1794385 0.5288417 0.1583932 0.3125 0.8958334 0.25 1 0.25 0.8958333 0.01061993 0.25 0.07964956 0.1794385 0.06561404 0.25 0.1875 0.6041668 0.25 0.5 0.25 0.6041667 0.5106199 0.25 0.5796497 0.3205614 0.565614 0.25 0.25 0.8958333 0.1875 1 0.1875 0.8958334 0.01061993 0.25 0.07964956 0.3205614 0.02884167 0.3416068 0.125 0.6041668 0.1875 0.5 0.1875 0.6041668 0.5288417 0.3416067 0.6196194 0.3803805 0.5796497 0.3205614 0.125 0.8958334 0.1875 1 0.125 1 0.02884167 0.3416068 0.1196194 0.3803806 0.08073276 0.4192672 0.125 0.6041668 0.0625 0.5 0.125 0.5 0.6583933 0.4711583 0.6196194 0.3803805 0.5807327 0.4192672 0.125 0.8958334 0.0625 1 0.0625 0.8958333 0.1583932 0.4711583 0.1196194 0.3803806 0.1794385 0.4203504 0 0.6041668 0.0625 0.5 0.0625 0.6041667 0.7500001 0.4893801 0.6794387 0.4203504 0.6583933 0.4711583 0.0625 0.8958333 0.002120912 1 0 0.8958334 0.25 0.4893801 0.1794385 0.4203504 0.25 0.434386 0.6794388 0.07964956 0.5796497 0.1794385 0.6794387 0.4203504 1 0.8958334 0.9374999 0.6041667 1 0.6041668 0.0625 0.8958333 0 0.6041668 0.0625 0.6041667 0.1196194 0.1196194 0.3803806 0.1196194 0.3803805 0.3803805 0.9375 0.8958333 0.875 0.6041667 0.9374999 0.6041667 0.875 0.8958334 0.8125001 0.6041667 0.875 0.6041667 0.8125 0.8958333 0.75 0.6041667 0.8125001 0.6041667 0.75 0.8958333 0.6875 0.6041668 0.75 0.6041667 0.6875 0.8958334 0.6250001 0.6041668 0.6875 0.6041668 0.6250001 0.8958334 0.5625 0.6041667 0.6250001 0.6041668 0.5625 0.8958333 0.5 0.6041668 0.5625 0.6041667 0.5 0.8958334 0.4375 0.6041667 0.5 0.6041668 0.4375001 0.8958334 0.375 0.6041667 0.4375 0.6041667 0.375 0.8958334 0.3125 0.6041668 0.375 0.6041667 0.3125 0.8958334 0.25 0.6041667 0.3125 0.6041668 0.25 0.8958333 0.1875 0.6041668 0.25 0.6041667 0.1875 0.8958334 0.125 0.6041668 0.1875 0.6041668 0.125 0.8958334 0.0625 0.6041667 0.125 0.6041668 0.9374999 0.6041667 0.9375 0.5 0.997879 0.5 0.7500001 0.4893801 0.8416069 0.4711583 0.8205615 0.4203503 1 0.8958334 0.9978791 1 0.9375 1 0.25 0.4893801 0.25 0.434386 0.3205615 0.4203503 0.875 0.6041667 0.875 0.5 0.9375 0.5 0.8416069 0.4711583 0.9192672 0.4192672 0.8803806 0.3803806 0.875 0.8958334 0.9375 0.8958333 0.9375 1 0.3416068 0.4711583 0.3205615 0.4203503 0.3803805 0.3803805 0.875 0.6041667 0.8125001 0.6041667 0.8125 0.5 0.9711584 0.3416068 0.9203505 0.3205614 0.8803806 0.3803806 0.875 0.8958334 0.875 1 0.8125 1 0.4711583 0.3416067 0.4192672 0.4192672 0.3803805 0.3803805 0.75 0.6041667 0.7500001 0.5 0.8125 0.5 0.98938 0.25 0.934386 0.25 0.9203505 0.3205614 0.8125 0.8958333 0.8125 1 0.75 1 0.4893801 0.25 0.4711583 0.3416067 0.4203504 0.3205614 0.6875 0.6041668 0.6875001 0.5 0.7500001 0.5 0.98938 0.25 0.9711583 0.1583932 0.9203505 0.1794385 0.75 0.8958333 0.75 1 0.6875001 1 0.4893801 0.25 0.434386 0.25 0.4203503 0.1794385 0.6250001 0.6041668 0.625 0.5 0.6875001 0.5 0.9711583 0.1583932 0.9192672 0.08073276 0.8803806 0.1196194 0.6250001 0.8958334 0.6875 0.8958334 0.6875001 1 0.4711583 0.1583932 0.4203503 0.1794385 0.3803806 0.1196194 0.6250001 0.6041668 0.5625 0.6041667 0.5625001 0.5 0.8416069 0.02884167 0.8205615 0.07964956 0.8803806 0.1196194 0.6250001 0.8958334 0.625 1 0.5625001 1 0.3416068 0.02884167 0.4192672 0.0807327 0.3803806 0.1196194 0.5 0.6041668 0.5 0.5 0.5625001 0.5 0.7500001 0.01061993 0.75 0.06561404 0.8205615 0.07964956 0.5625 0.8958333 0.5625001 1 0.5 1 0.25 0.01061993 0.3416068 0.02884167 0.3205614 0.07964956 0.4375 0.6041667 0.4375 0.5 0.5 0.5 0.7500001 0.01061993 0.6583933 0.02884167 0.6794388 0.07964956 0.5 0.8958334 0.5 1 0.4375 1 0.25 0.01061993 0.25 0.06561404 0.1794385 0.07964956 0.375 0.6041667 0.375 0.5 0.4375 0.5 0.6583933 0.02884167 0.5807328 0.0807327 0.6196195 0.1196194 0.375 0.8958334 0.4375001 0.8958334 0.4375 1 0.1583932 0.02884167 0.1794385 0.07964956 0.1196194 0.1196194 0.375 0.6041667 0.3125 0.6041668 0.3125 0.5 0.5288417 0.1583932 0.5796497 0.1794385 0.6196195 0.1196194 0.375 0.8958334 0.375 1 0.3125 1 0.02884167 0.1583932 0.08073276 0.08073276 0.1196194 0.1196194 0.25 0.6041667 0.25 0.5 0.3125 0.5 0.5106199 0.25 0.565614 0.25 0.5796497 0.1794385 0.3125 0.8958334 0.3125 1 0.25 1 0.01061993 0.25 0.02884167 0.1583932 0.07964956 0.1794385 0.1875 0.6041668 0.1875 0.5 0.25 0.5 0.5106199 0.25 0.5288417 0.3416067 0.5796497 0.3205614 0.25 0.8958333 0.25 1 0.1875 1 0.01061993 0.25 0.06561404 0.25 0.07964956 0.3205614 0.125 0.6041668 0.125 0.5 0.1875 0.5 0.5288417 0.3416067 0.5807327 0.4192672 0.6196194 0.3803805 0.125 0.8958334 0.1875 0.8958334 0.1875 1 0.02884167 0.3416068 0.07964956 0.3205614 0.1196194 0.3803806 0.125 0.6041668 0.0625 0.6041667 0.0625 0.5 0.6583933 0.4711583 0.6794387 0.4203504 0.6196194 0.3803805 0.125 0.8958334 0.125 1 0.0625 1 0.1583932 0.4711583 0.08073276 0.4192672 0.1196194 0.3803806 0 0.6041668 0.002120912 0.5 0.0625 0.5 0.7500001 0.4893801 0.75 0.434386 0.6794387 0.4203504 0.0625 0.8958333 0.0625 1 0.002120912 1 0.25 0.4893801 0.1583932 0.4711583 0.1794385 0.4203504 0.6794387 0.4203504 0.75 0.434386 0.8205615 0.4203503 0.8205615 0.4203503 0.8803806 0.3803806 0.9203505 0.3205614 0.9203505 0.3205614 0.934386 0.25 0.9203505 0.1794385 0.9203505 0.1794385 0.8803806 0.1196194 0.9203505 0.3205614 0.8803806 0.1196194 0.8205615 0.07964956 0.9203505 0.3205614 0.8205615 0.07964956 0.75 0.06561404 0.6794388 0.07964956 0.6794388 0.07964956 0.6196195 0.1196194 0.5796497 0.1794385 0.5796497 0.1794385 0.565614 0.25 0.5796497 0.3205614 0.5796497 0.3205614 0.6196194 0.3803805 0.5796497 0.1794385 0.6196194 0.3803805 0.6794387 0.4203504 0.5796497 0.1794385 0.6794387 0.4203504 0.8205615 0.4203503 0.8205615 0.07964956 0.8205615 0.4203503 0.9203505 0.3205614 0.8205615 0.07964956 0.8205615 0.07964956 0.6794388 0.07964956 0.6794387 0.4203504 1 0.8958334 0.9375 0.8958333 0.9374999 0.6041667 0.0625 0.8958333 0 0.8958334 0 0.6041668 0.3803805 0.3803805 0.3205615 0.4203503 0.25 0.434386 0.25 0.434386 0.1794385 0.4203504 0.3803805 0.3803805 0.1794385 0.4203504 0.1196194 0.3803806 0.3803805 0.3803805 0.1196194 0.3803806 0.07964956 0.3205614 0.1196194 0.1196194 0.07964956 0.3205614 0.06561404 0.25 0.1196194 0.1196194 0.06561404 0.25 0.07964956 0.1794385 0.1196194 0.1196194 0.1196194 0.1196194 0.1794385 0.07964956 0.3803806 0.1196194 0.1794385 0.07964956 0.25 0.06561404 0.3803806 0.1196194 0.25 0.06561404 0.3205614 0.07964956 0.3803806 0.1196194 0.3803806 0.1196194 0.4203503 0.1794385 0.434386 0.25 0.434386 0.25 0.4203504 0.3205614 0.3803806 0.1196194 0.4203504 0.3205614 0.3803805 0.3803805 0.3803806 0.1196194 0.3803805 0.3803805 0.1196194 0.3803806 0.1196194 0.1196194 0.9375 0.8958333 0.875 0.8958334 0.875 0.6041667 0.875 0.8958334 0.8125 0.8958333 0.8125001 0.6041667 0.8125 0.8958333 0.75 0.8958333 0.75 0.6041667 0.75 0.8958333 0.6875 0.8958334 0.6875 0.6041668 0.6875 0.8958334 0.6250001 0.8958334 0.6250001 0.6041668 0.6250001 0.8958334 0.5625 0.8958333 0.5625 0.6041667 0.5625 0.8958333 0.5 0.8958334 0.5 0.6041668 0.5 0.8958334 0.4375001 0.8958334 0.4375 0.6041667 0.4375001 0.8958334 0.375 0.8958334 0.375 0.6041667 0.375 0.8958334 0.3125 0.8958334 0.3125 0.6041668 0.3125 0.8958334 0.25 0.8958333 0.25 0.6041667 0.25 0.8958333 0.1875 0.8958334 0.1875 0.6041668 0.1875 0.8958334 0.125 0.8958334 0.125 0.6041668 0.125 0.8958334 0.0625 0.8958333 0.0625 0.6041667</float_array>
          <technique_common>
            <accessor source="#ericrolph_cannon_car_wash_cannonshape_Breech_mesh-mesh-map-0-array" count="564" stride="2">
              <param name="S" type="float"/>
              <param name="T" type="float"/>
            </accessor>
          </technique_common>
        </source>
        <vertices id="ericrolph_cannon_car_wash_cannonshape_Breech_mesh-mesh-vertices">
          <input semantic="POSITION" source="#ericrolph_cannon_car_wash_cannonshape_Breech_mesh-mesh-positions"/>
        </vertices>
        <triangles material="ericrolph_cannon_car_wash_attract_cannon-material" count="188">
          <input semantic="VERTEX" source="#ericrolph_cannon_car_wash_cannonshape_Breech_mesh-mesh-vertices" offset="0"/>
          <input semantic="NORMAL" source="#ericrolph_cannon_car_wash_cannonshape_Breech_mesh-mesh-normals" offset="1"/>
          <input semantic="TEXCOORD" source="#ericrolph_cannon_car_wash_cannonshape_Breech_mesh-mesh-map-0" offset="2" set="0"/>
          <p>7 0 0 2 0 1 1 0 2 2 1 3 6 1 4 0 1 5 4 2 6 11 2 7 10 2 8 5 3 9 9 3 10 11 3 11 13 4 12 8 4 13 7 4 14 8 5 15 12 5 16 6 5 17 16 6 18 11 6 19 17 6 20 11 7 21 15 7 22 17 7 23 13 8 24 20 8 25 14 8 26 20 9 27 12 9 28 14 9 29 16 10 30 23 10 31 22 10 32 23 11 33 15 11 34 21 11 35 25 12 36 20 12 37 19 12 38 26 13 39 18 13 40 20 13 41 22 14 42 29 14 43 28 14 44 29 15 45 21 15 46 27 15 47 31 16 48 26 16 49 25 16 50 26 17 51 30 17 52 24 17 53 28 18 54 35 18 55 34 18 56 29 19 57 33 19 58 35 19 59 37 20 60 32 20 61 31 20 62 32 21 63 36 21 64 30 21 65 40 22 66 35 22 67 41 22 68 35 23 69 39 23 70 41 23 71 37 24 72 44 24 73 38 24 74 44 25 75 36 25 76 38 25 77 40 26 78 47 26 79 46 26 80 47 27 81 39 27 82 45 27 83 49 28 84 44 28 85 43 28 86 50 29 87 42 29 88 44 29 89 46 30 90 53 30 91 52 30 92 53 31 93 45 31 94 51 31 95 55 32 96 50 32 97 49 32 98 50 33 99 54 33 100 48 33 101 52 34 102 59 34 103 58 34 104 53 35 105 57 35 106 59 35 107 61 36 108 56 36 109 55 36 110 56 37 111 60 37 112 54 37 113 64 38 114 59 38 115 65 38 116 59 39 117 63 39 118 65 39 119 61 40 120 68 40 121 62 40 122 68 41 123 60 41 124 62 41 125 64 42 126 71 42 127 70 42 128 71 43 129 63 43 130 69 43 131 73 44 132 68 44 133 67 44 134 74 45 135 66 45 136 68 45 137 70 46 138 77 46 139 76 46 140 77 47 141 69 47 142 75 47 143 79 48 144 74 48 145 73 48 146 74 49 147 78 49 148 72 49 149 76 50 150 83 50 151 82 50 152 77 51 153 81 51 154 83 51 155 85 52 156 80 52 157 79 52 158 80 53 159 84 53 160 78 53 161 88 54 162 83 54 163 89 54 164 83 55 165 87 55 166 89 55 167 85 56 168 92 56 169 86 56 170 92 57 171 84 57 172 86 57 173 88 58 174 95 58 175 94 58 176 95 59 177 87 59 178 93 59 179 1 60 180 92 60 181 91 60 182 2 61 183 90 61 184 92 61 185 94 62 186 5 62 187 4 62 188 5 63 189 93 63 190 3 63 191 54 64 192 66 64 193 90 64 194 4 65 195 7 65 196 1 65 197 94 66 198 1 66 199 91 66 200 63 67 201 39 67 202 15 67 203 10 68 204 13 68 205 7 68 206 16 69 207 19 69 208 13 69 209 22 70 210 25 70 211 19 70 212 28 71 213 31 71 214 25 71 215 34 72 216 37 72 217 31 72 218 40 73 219 43 73 220 37 73 221 46 74 222 49 74 223 43 74 224 52 75 225 55 75 226 49 75 227 58 76 228 61 76 229 55 76 230 64 77 231 67 77 232 61 77 233 70 78 234 73 78 235 67 78 236 76 79 237 79 79 238 73 79 239 82 80 240 85 80 241 79 80 242 88 81 243 91 81 244 85 81 245 7 82 246 8 82 247 2 82 248 2 83 249 8 83 250 6 83 251 4 84 252 5 84 253 11 84 254 5 85 255 3 85 256 9 85 257 13 86 258 14 86 259 8 86 260 8 87 261 14 87 262 12 87 263 16 88 264 10 88 265 11 88 266 11 89 267 9 89 268 15 89 269 13 90 270 19 90 271 20 90 272 20 91 273 18 91 274 12 91 275 16 92 276 17 92 277 23 92 278 23 93 279 17 93 280 15 93 281 25 94 282 26 94 283 20 94 284 26 95 285 24 95 286 18 95 287 22 96 288 23 96 289 29 96 290 29 97 291 23 97 292 21 97 293 31 98 294 32 98 295 26 98 296 26 99 297 32 99 298 30 99 299 28 100 300 29 100 301 35 100 302 29 101 303 27 101 304 33 101 305 37 102 306 38 102 307 32 102 308 32 103 309 38 103 310 36 103 311 40 104 312 34 104 313 35 104 314 35 105 315 33 105 316 39 105 317 37 106 318 43 106 319 44 106 320 44 107 321 42 107 322 36 107 323 40 108 324 41 108 325 47 108 326 47 109 327 41 109 328 39 109 329 49 110 330 50 110 331 44 110 332 50 111 333 48 111 334 42 111 335 46 112 336 47 112 337 53 112 338 53 113 339 47 113 340 45 113 341 55 114 342 56 114 343 50 114 344 50 115 345 56 115 346 54 115 347 52 116 348 53 116 349 59 116 350 53 117 351 51 117 352 57 117 353 61 118 354 62 118 355 56 118 356 56 119 357 62 119 358 60 119 359 64 120 360 58 120 361 59 120 362 59 121 363 57 121 364 63 121 365 61 122 366 67 122 367 68 122 368 68 123 369 66 123 370 60 123 371 64 124 372 65 124 373 71 124 374 71 125 375 65 125 376 63 125 377 73 126 378 74 126 379 68 126 380 74 127 381 72 127 382 66 127 383 70 128 384 71 128 385 77 128 386 77 129 387 71 129 388 69 129 389 79 130 390 80 130 391 74 130 392 74 131 393 80 131 394 78 131 395 76 132 396 77 132 397 83 132 398 77 133 399 75 133 400 81 133 401 85 134 402 86 134 403 80 134 404 80 135 405 86 135 406 84 135 407 88 136 408 82 136 409 83 136 410 83 137 411 81 137 412 87 137 413 85 138 414 91 138 415 92 138 416 92 139 417 90 139 418 84 139 419 88 140 420 89 140 421 95 140 422 95 141 423 89 141 424 87 141 425 1 142 426 2 142 427 92 142 428 2 143 429 0 143 430 90 143 431 94 144 432 95 144 433 5 144 434 5 145 435 95 145 436 93 145 437 90 146 438 0 146 439 6 146 440 6 147 441 12 147 442 18 147 443 18 148 444 24 148 445 30 148 446 30 149 447 36 149 448 18 149 449 36 150 450 42 150 451 18 150 452 42 151 453 48 151 454 54 151 455 54 152 456 60 152 457 66 152 458 66 153 459 72 153 460 78 153 461 78 154 462 84 154 463 66 154 464 84 155 465 90 155 466 66 155 467 90 156 468 6 156 469 42 156 470 6 157 471 18 157 472 42 157 473 42 158 474 54 158 475 90 158 476 4 159 477 10 159 478 7 159 479 94 160 480 4 160 481 1 160 482 15 161 483 9 161 484 3 161 485 3 162 486 93 162 487 15 162 488 93 163 489 87 163 490 15 163 491 87 164 492 81 164 493 63 164 494 81 165 495 75 165 496 63 165 497 75 166 498 69 166 499 63 166 500 63 167 501 57 167 502 39 167 503 57 168 504 51 168 505 39 168 506 51 169 507 45 169 508 39 169 509 39 170 510 33 170 511 27 170 512 27 171 513 21 171 514 39 171 515 21 172 516 15 172 517 39 172 518 15 173 519 87 173 520 63 173 521 10 174 522 16 174 523 13 174 524 16 175 525 22 175 526 19 175 527 22 176 528 28 176 529 25 176 530 28 177 531 34 177 532 31 177 533 34 178 534 40 178 535 37 178 536 40 179 537 46 179 538 43 179 539 46 180 540 52 180 541 49 180 542 52 181 543 58 181 544 55 181 545 58 182 546 64 182 547 61 182 548 64 183 549 70 183 550 67 183 551 70 184 552 76 184 553 73 184 554 76 185 555 82 185 556 79 185 557 82 186 558 88 186 559 85 186 560 88 187 561 94 187 562 91 187 563</p>
        </triangles>
      </mesh>
    </geometry>
    <geometry id="ericrolph_cannon_car_wash_cannonshape_Muzzle_mesh-mesh" name="ericrolph_cannon_car_wash_cannonshape_Muzzle_mesh">
      <mesh>
        <source id="ericrolph_cannon_car_wash_cannonshape_Muzzle_mesh-mesh-positions">
          <float_array id="ericrolph_cannon_car_wash_cannonshape_Muzzle_mesh-mesh-positions-array" count="288">0 0.07951021 -0.04499995 0 0.105 -0.01999998 0 0.09753417 -0.03767764 0 0.07951021 0.04499995 0 0.105 0.01999998 0 0.09753417 0.03767764 0.03042721 0.07345783 -0.04499995 0.04018175 0.09700733 -0.01999998 0.03732472 0.09010982 -0.03767764 0.03042721 0.07345783 0.04499995 0.04018175 0.09700733 0.01999998 0.03732472 0.09010982 0.03767764 0.0562222 0.0562222 -0.04499995 0.07424616 0.07424616 -0.01999998 0.0689671 0.06896704 -0.03767764 0.0562222 0.0562222 0.04499995 0.07424616 0.07424616 0.01999998 0.06896704 0.0689671 0.03767764 0.07345783 0.03042721 -0.04499995 0.09700733 0.04018175 -0.01999998 0.09010982 0.03732472 -0.03767764 0.07345783 0.03042721 0.04499995 0.09700733 0.04018175 0.01999998 0.09010982 0.03732472 0.03767764 0.07951021 0 -0.04499995 0.105 0 -0.01999998 0.09753417 0 -0.03767764 0.07951021 0 0.04499995 0.105 0 0.01999998 0.09753417 0 0.03767764 0.07345783 -0.03042721 -0.04499995 0.09700733 -0.04018175 -0.01999998 0.09010982 -0.03732472 -0.03767764 0.07345783 -0.03042721 0.04499995 0.09700733 -0.04018175 0.01999998 0.09010982 -0.03732472 0.03767764 0.0562222 -0.0562222 -0.04499995 0.07424616 -0.07424616 -0.01999998 0.06896704 -0.0689671 -0.03767764 0.0562222 -0.0562222 0.04499995 0.07424616 -0.07424616 0.01999998 0.0689671 -0.06896704 0.03767764 0.03042721 -0.07345783 -0.04499995 0.04018175 -0.09700733 -0.01999998 0.03732472 -0.09010982 -0.03767764 0.03042721 -0.07345783 0.04499995 0.04018175 -0.09700733 0.01999998 0.03732472 -0.09010982 0.03767764 0 -0.07951021 -0.04499995 0 -0.105 -0.01999998 0 -0.09753417 -0.03767764 0 -0.07951021 0.04499995 0 -0.105 0.01999998 0 -0.09753417 0.03767764 -0.03042721 -0.07345783 -0.04499995 -0.04018175 -0.09700733 -0.01999998 -0.03732472 -0.09010982 -0.03767764 -0.03042721 -0.07345783 0.04499995 -0.04018175 -0.09700733 0.01999998 -0.03732472 -0.09010982 0.03767764 -0.0562222 -0.0562222 -0.04499995 -0.07424616 -0.07424616 -0.01999998 -0.0689671 -0.06896704 -0.03767764 -0.0562222 -0.0562222 0.04499995 -0.07424616 -0.07424616 0.01999998 -0.06896704 -0.0689671 0.03767764 -0.07345783 -0.03042721 -0.04499995 -0.09700733 -0.04018175 -0.01999998 -0.09010982 -0.03732472 -0.03767764 -0.07345783 -0.03042721 0.04499995 -0.09700733 -0.04018175 0.01999998 -0.09010982 -0.03732472 0.03767764 -0.07951021 0 -0.04499995 -0.105 0 -0.01999998 -0.09753417 0 -0.03767764 -0.07951021 0 0.04499995 -0.105 0 0.01999998 -0.09753417 0 0.03767764 -0.07345783 0.03042721 -0.04499995 -0.09700733 0.04018175 -0.01999998 -0.09010982 0.03732472 -0.03767764 -0.07345783 0.03042721 0.04499995 -0.09700733 0.04018175 0.01999998 -0.09010982 0.03732472 0.03767764 -0.0562222 0.0562222 -0.04499995 -0.07424616 0.07424616 -0.01999998 -0.06896704 0.0689671 -0.03767764 -0.0562222 0.0562222 0.04499995 -0.07424616 0.07424616 0.01999998 -0.0689671 0.06896704 0.03767764 -0.03042721 0.07345783 -0.04499995 -0.04018175 0.09700733 -0.01999998 -0.03732472 0.09010982 -0.03767764 -0.03042721 0.07345783 0.04499995 -0.04018175 0.09700733 0.01999998 -0.03732472 0.09010982 0.03767764</float_array>
          <technique_common>
            <accessor source="#ericrolph_cannon_car_wash_cannonshape_Muzzle_mesh-mesh-positions-array" count="96" stride="3">
              <param name="X" type="float"/>
              <param name="Y" type="float"/>
              <param name="Z" type="float"/>
            </accessor>
          </technique_common>
        </source>
        <source id="ericrolph_cannon_car_wash_cannonshape_Muzzle_mesh-mesh-normals">
          <float_array id="ericrolph_cannon_car_wash_cannonshape_Muzzle_mesh-mesh-normals-array" count="564">0.18024 0.9061275 -0.3826832 0.07465785 0.37533 -0.9238796 0.1802402 0.9061273 0.3826835 0.07465785 0.3753302 0.9238796 0.51328 0.7681778 -0.3826835 0.2126075 0.3181895 -0.9238796 0.51328 0.7681776 0.3826837 0.2126075 0.3181896 0.9238795 0.7681776 0.51328 -0.3826837 0.3181896 0.2126075 -0.9238795 0.7681778 0.51328 0.3826835 0.3181895 0.2126075 0.9238796 0.9061273 0.1802402 -0.3826835 0.3753302 0.07465785 -0.9238796 0.9061275 0.18024 0.3826832 0.37533 0.07465785 0.9238796 0.9061275 -0.18024 -0.3826832 0.37533 -0.07465785 -0.9238796 0.9061273 -0.1802402 0.3826835 0.3753302 -0.07465785 0.9238796 0.7681778 -0.51328 -0.3826835 0.3181895 -0.2126075 -0.9238796 0.7681776 -0.51328 0.3826837 0.3181896 -0.2126075 0.9238795 0.51328 -0.7681776 -0.3826837 0.2126075 -0.3181896 -0.9238795 0.51328 -0.7681778 0.3826835 0.2126075 -0.3181895 0.9238796 0.1802402 -0.9061273 -0.3826835 0.07465785 -0.3753302 -0.9238796 0.18024 -0.9061275 0.3826832 0.07465785 -0.37533 0.9238796 -0.18024 -0.9061275 -0.3826832 -0.07465785 -0.37533 -0.9238796 -0.1802402 -0.9061273 0.3826835 -0.07465785 -0.3753302 0.9238796 -0.51328 -0.7681778 -0.3826835 -0.2126075 -0.3181895 -0.9238796 -0.51328 -0.7681776 0.3826837 -0.2126075 -0.3181896 0.9238795 -0.7681776 -0.51328 -0.3826837 -0.3181896 -0.2126075 -0.9238795 -0.7681778 -0.51328 0.3826835 -0.3181895 -0.2126075 0.9238796 -0.9061273 -0.1802402 -0.3826835 -0.3753302 -0.07465785 -0.9238796 -0.9061275 -0.18024 0.3826832 -0.37533 -0.07465785 0.9238796 -0.9061275 0.18024 -0.3826832 -0.37533 0.07465785 -0.9238796 -0.9061273 0.1802402 0.3826835 -0.3753302 0.07465785 0.9238796 -0.7681778 0.51328 -0.3826835 -0.3181895 0.2126075 -0.9238796 -0.7681776 0.51328 0.3826837 -0.3181896 0.2126075 0.9238795 -0.51328 0.7681776 -0.3826837 -0.2126075 0.3181896 -0.9238795 -0.51328 0.7681778 0.3826835 -0.2126075 0.3181895 0.9238796 -0.1802402 0.9061273 -0.3826835 -0.07465785 0.3753302 -0.9238796 -0.18024 0.9061275 0.3826832 -0.07465785 0.37533 0.9238796 0 0 -1 0.1950904 0.9807853 0 -0.1950904 0.9807853 0 0 0 1 0.5555703 0.8314695 0 0.8314695 0.5555703 0 0.9807853 0.1950904 0 0.9807853 -0.1950904 0 0.8314695 -0.5555703 0 0.5555703 -0.8314695 0 0.1950904 -0.9807853 0 -0.1950904 -0.9807853 0 -0.5555703 -0.8314695 0 -0.8314695 -0.5555703 0 -0.9807853 -0.1950904 0 -0.9807853 0.1950904 0 -0.8314695 0.5555703 0 -0.5555703 0.8314695 0 0.1802402 0.9061273 -0.3826835 0.07465785 0.3753302 -0.9238796 0.18024 0.9061275 0.3826832 0.07465785 0.37533 0.9238796 0.5132801 0.7681775 -0.3826838 0.2126075 0.3181896 -0.9238796 0.5132802 0.7681776 0.3826835 0.2126075 0.3181895 0.9238796 0.7681776 0.5132802 -0.3826835 0.3181895 0.2126075 -0.9238796 0.7681775 0.5132801 0.3826838 0.3181896 0.2126075 0.9238796 0.9061275 0.18024 -0.3826832 0.37533 0.07465785 -0.9238796 0.9061273 0.1802402 0.3826835 0.3753302 0.07465785 0.9238796 0.9061273 -0.1802402 -0.3826835 0.3753302 -0.07465785 -0.9238796 0.9061275 -0.18024 0.3826832 0.37533 -0.07465785 0.9238796 0.7681775 -0.5132801 -0.3826838 0.3181896 -0.2126075 -0.9238796 0.7681776 -0.5132802 0.3826835 0.3181895 -0.2126075 0.9238796 0.5132802 -0.7681776 -0.3826835 0.2126075 -0.3181895 -0.9238796 0.5132801 -0.7681775 0.3826838 0.2126075 -0.3181896 0.9238796 0.18024 -0.9061275 -0.3826832 0.07465785 -0.37533 -0.9238796 0.1802402 -0.9061273 0.3826835 0.07465785 -0.3753302 0.9238796 -0.1802402 -0.9061273 -0.3826835 -0.07465785 -0.3753302 -0.9238796 -0.18024 -0.9061275 0.3826832 -0.07465785 -0.37533 0.9238796 -0.5132801 -0.7681775 -0.3826838 -0.2126075 -0.3181896 -0.9238796 -0.5132802 -0.7681776 0.3826835 -0.2126075 -0.3181895 0.9238796 -0.7681776 -0.5132802 -0.3826835 -0.3181895 -0.2126075 -0.9238796 -0.7681775 -0.5132801 0.3826838 -0.3181896 -0.2126075 0.9238796 -0.9061275 -0.18024 -0.3826832 -0.37533 -0.07465785 -0.9238796 -0.9061273 -0.1802402 0.3826835 -0.3753302 -0.07465785 0.9238796 -0.9061273 0.1802402 -0.3826835 -0.3753302 0.07465785 -0.9238796 -0.9061275 0.18024 0.3826832 -0.37533 0.07465785 0.9238796 -0.7681775 0.5132801 -0.3826838 -0.3181896 0.2126075 -0.9238796 -0.7681776 0.5132802 0.3826835 -0.3181895 0.2126075 0.9238796 -0.5132802 0.7681776 -0.3826835 -0.2126075 0.3181895 -0.9238796 -0.5132801 0.7681775 0.3826838 -0.2126075 0.3181896 0.9238796 -0.18024 0.9061275 -0.3826832 -0.07465785 0.37533 -0.9238796 -0.1802402 0.9061273 0.3826835 -0.07465785 0.3753302 0.9238796 0 0 -1 0 0 -1 0 0 -1 0 0 -1 0 0 -1 0 0 -1 0 0 -1 0 0 -1 0 0 -1 0 0 -1 0 0 -1 0 0 -1 0 0 -1 0.1950904 0.9807853 0 -0.1950904 0.9807853 0 0 0 1 0 0 1 0 0 1 0 0 1 0 0 1 0 0 1 0 0 1 0 0 1 0 0 1 0 0 1 0 0 1 0 0 1 0 0 1 0.5555703 0.8314695 0 0.8314695 0.5555703 0 0.9807853 0.1950904 0 0.9807853 -0.1950904 0 0.8314695 -0.5555703 0 0.5555703 -0.8314695 0 0.1950904 -0.9807853 0 -0.1950904 -0.9807853 0 -0.5555703 -0.8314695 0 -0.8314695 -0.5555703 0 -0.9807853 -0.1950904 0 -0.9807853 0.1950904 0 -0.8314695 0.5555703 0 -0.5555703 0.8314695 0</float_array>
          <technique_common>
            <accessor source="#ericrolph_cannon_car_wash_cannonshape_Muzzle_mesh-mesh-normals-array" count="188" stride="3">
              <param name="X" type="float"/>
              <param name="Y" type="float"/>
              <param name="Z" type="float"/>
            </accessor>
          </technique_common>
        </source>
        <source id="ericrolph_cannon_car_wash_cannonshape_Muzzle_mesh-mesh-map-0">
          <float_array id="ericrolph_cannon_car_wash_cannonshape_Muzzle_mesh-mesh-map-0-array" count="1128">0.9375 0.6388888 0.9977781 0.5 1 0.6388889 0.8415955 0.471131 0.7500001 0.4317377 0.75 0.4893506 0.9374998 0.8611111 0.9977781 1 0.9374999 1 0.3415955 0.471131 0.25 0.4317377 0.319548 0.4179038 0.875 0.6388888 0.9375 0.5 0.9375 0.6388888 0.9192464 0.4192464 0.8195481 0.4179038 0.8415955 0.471131 0.9374998 0.8611111 0.875 1 0.8749999 0.8611111 0.4192464 0.4192463 0.319548 0.4179038 0.378508 0.378508 0.8125001 0.6388889 0.875 0.5 0.875 0.6388888 0.9192464 0.4192464 0.9179039 0.319548 0.878508 0.378508 0.8749999 0.8611111 0.8125 1 0.8125001 0.8611112 0.4192464 0.4192463 0.4179037 0.319548 0.471131 0.3415955 0.8125001 0.6388889 0.75 0.5 0.8125 0.5 0.9711312 0.3415955 0.9317377 0.25 0.9179039 0.319548 0.8125001 0.8611112 0.75 1 0.75 0.8611112 0.471131 0.3415955 0.4317377 0.25 0.4893506 0.25 0.6875 0.6388888 0.75 0.5 0.75 0.6388888 0.971131 0.1584045 0.9317377 0.25 0.9893506 0.25 0.6875 0.8611111 0.75 1 0.6875 1 0.471131 0.1584045 0.4317377 0.25 0.4179037 0.180452 0.625 0.6388888 0.6874999 0.5 0.6875 0.6388888 0.9192463 0.08075362 0.917904 0.180452 0.971131 0.1584045 0.6875 0.8611111 0.625 1 0.625 0.8611111 0.4192464 0.08075362 0.4179037 0.180452 0.3785079 0.121492 0.5625 0.6388888 0.625 0.5 0.625 0.6388888 0.9192463 0.08075362 0.819548 0.08209627 0.878508 0.1214921 0.625 0.8611111 0.5625 1 0.5625 0.861111 0.4192464 0.08075362 0.319548 0.08209627 0.3415954 0.02886891 0.5625 0.6388888 0.5 0.5 0.5625 0.5 0.8415955 0.02886897 0.7500001 0.06826233 0.819548 0.08209627 0.5625 0.861111 0.5 1 0.5 0.8611112 0.3415954 0.02886891 0.25 0.06826233 0.25 0.01064944 0.4375 0.6388888 0.5 0.5 0.5 0.6388889 0.6584045 0.02886891 0.7500001 0.06826233 0.7500001 0.01064944 0.4375 0.861111 0.5 1 0.4375 1 0.1584045 0.02886897 0.25 0.06826233 0.180452 0.08209627 0.375 0.6388888 0.4375 0.5 0.4375 0.6388888 0.5807536 0.08075362 0.680452 0.08209627 0.6584045 0.02886891 0.4375 0.861111 0.375 1 0.375 0.8611111 0.08075362 0.08075362 0.180452 0.08209627 0.1214921 0.1214921 0.3125 0.6388889 0.375 0.5 0.375 0.6388888 0.5807536 0.08075362 0.5820963 0.180452 0.6214922 0.1214921 0.375 0.8611111 0.3125 1 0.3125 0.8611112 0.08075362 0.08075362 0.08209633 0.180452 0.02886891 0.1584045 0.3125 0.6388889 0.25 0.5 0.3125 0.5 0.528869 0.1584045 0.5682624 0.25 0.5820963 0.180452 0.3125 0.8611112 0.25 1 0.25 0.8611112 0.02886891 0.1584045 0.06826233 0.25 0.01064944 0.25 0.1875 0.6388888 0.25 0.5 0.25 0.6388888 0.528869 0.3415955 0.5682624 0.25 0.5106495 0.25 0.1875 0.8611112 0.25 1 0.1875 1 0.02886897 0.3415955 0.06826233 0.25 0.08209627 0.319548 0.125 0.6388888 0.1875 0.5 0.1875 0.6388888 0.5807536 0.4192463 0.5820963 0.319548 0.528869 0.3415955 0.1875 0.8611112 0.125 1 0.125 0.8611111 0.08075362 0.4192464 0.08209627 0.319548 0.1214921 0.3785079 0.0625 0.6388888 0.125 0.5 0.125 0.6388888 0.5807536 0.4192463 0.6804522 0.4179038 0.6214921 0.3785079 0.125 0.8611111 0.0625 1 0.0625 0.8611112 0.08075362 0.4192464 0.180452 0.4179038 0.1584045 0.471131 0.0625 0.6388888 0.002221941 0.5 0.0625 0.5 0.6584045 0.471131 0.7500001 0.4317377 0.6804522 0.4179038 0.0625 0.8611112 0.002221941 1 0 0.8611111 0.1584045 0.471131 0.25 0.4317377 0.25 0.4893506 0.819548 0.08209627 0.5820963 0.180452 0.6804522 0.4179038 1 0.8611112 0.9375 0.6388888 1 0.6388889 0.0625 0.8611112 0 0.6388888 0.0625 0.6388888 0.1214921 0.1214921 0.3785079 0.121492 0.378508 0.378508 0.9374998 0.8611111 0.875 0.6388888 0.9375 0.6388888 0.8749999 0.8611111 0.8125001 0.6388889 0.875 0.6388888 0.8125001 0.8611112 0.75 0.6388888 0.8125001 0.6388889 0.75 0.8611112 0.6875 0.6388888 0.75 0.6388888 0.6875 0.8611111 0.625 0.6388888 0.6875 0.6388888 0.625 0.8611111 0.5625 0.6388888 0.625 0.6388888 0.5625 0.861111 0.5 0.6388889 0.5625 0.6388888 0.5 0.8611112 0.4375 0.6388888 0.5 0.6388889 0.4375 0.861111 0.375 0.6388888 0.4375 0.6388888 0.375 0.8611111 0.3125 0.6388889 0.375 0.6388888 0.3125 0.8611112 0.25 0.6388888 0.3125 0.6388889 0.25 0.8611112 0.1875 0.6388888 0.25 0.6388888 0.1875 0.8611112 0.125 0.6388888 0.1875 0.6388888 0.125 0.8611111 0.0625 0.6388888 0.125 0.6388888 0.9375 0.6388888 0.9375 0.5 0.9977781 0.5 0.8415955 0.471131 0.8195481 0.4179038 0.7500001 0.4317377 0.9374998 0.8611111 1 0.8611112 0.9977781 1 0.3415955 0.471131 0.25 0.4893506 0.25 0.4317377 0.875 0.6388888 0.875 0.5 0.9375 0.5 0.9192464 0.4192464 0.878508 0.378508 0.8195481 0.4179038 0.9374998 0.8611111 0.9374999 1 0.875 1 0.4192464 0.4192463 0.3415955 0.471131 0.319548 0.4179038 0.8125001 0.6388889 0.8125 0.5 0.875 0.5 0.9192464 0.4192464 0.9711312 0.3415955 0.9179039 0.319548 0.8749999 0.8611111 0.875 1 0.8125 1 0.4192464 0.4192463 0.378508 0.378508 0.4179037 0.319548 0.8125001 0.6388889 0.75 0.6388888 0.75 0.5 0.9711312 0.3415955 0.9893506 0.25 0.9317377 0.25 0.8125001 0.8611112 0.8125 1 0.75 1 0.471131 0.3415955 0.4179037 0.319548 0.4317377 0.25 0.6875 0.6388888 0.6874999 0.5 0.75 0.5 0.971131 0.1584045 0.917904 0.180452 0.9317377 0.25 0.6875 0.8611111 0.75 0.8611112 0.75 1 0.471131 0.1584045 0.4893506 0.25 0.4317377 0.25 0.625 0.6388888 0.625 0.5 0.6874999 0.5 0.9192463 0.08075362 0.878508 0.1214921 0.917904 0.180452 0.6875 0.8611111 0.6875 1 0.625 1 0.4192464 0.08075362 0.471131 0.1584045 0.4179037 0.180452 0.5625 0.6388888 0.5625 0.5 0.625 0.5 0.9192463 0.08075362 0.8415955 0.02886897 0.819548 0.08209627 0.625 0.8611111 0.625 1 0.5625 1 0.4192464 0.08075362 0.3785079 0.121492 0.319548 0.08209627 0.5625 0.6388888 0.5 0.6388889 0.5 0.5 0.8415955 0.02886897 0.7500001 0.01064944 0.7500001 0.06826233 0.5625 0.861111 0.5625 1 0.5 1 0.3415954 0.02886891 0.319548 0.08209627 0.25 0.06826233 0.4375 0.6388888 0.4375 0.5 0.5 0.5 0.6584045 0.02886891 0.680452 0.08209627 0.7500001 0.06826233 0.4375 0.861111 0.5 0.8611112 0.5 1 0.1584045 0.02886897 0.25 0.01064944 0.25 0.06826233 0.375 0.6388888 0.375 0.5 0.4375 0.5 0.5807536 0.08075362 0.6214922 0.1214921 0.680452 0.08209627 0.4375 0.861111 0.4375 1 0.375 1 0.08075362 0.08075362 0.1584045 0.02886897 0.180452 0.08209627 0.3125 0.6388889 0.3125 0.5 0.375 0.5 0.5807536 0.08075362 0.528869 0.1584045 0.5820963 0.180452 0.375 0.8611111 0.375 1 0.3125 1 0.08075362 0.08075362 0.1214921 0.1214921 0.08209633 0.180452 0.3125 0.6388889 0.25 0.6388888 0.25 0.5 0.528869 0.1584045 0.5106495 0.25 0.5682624 0.25 0.3125 0.8611112 0.3125 1 0.25 1 0.02886891 0.1584045 0.08209633 0.180452 0.06826233 0.25 0.1875 0.6388888 0.1875 0.5 0.25 0.5 0.528869 0.3415955 0.5820963 0.319548 0.5682624 0.25 0.1875 0.8611112 0.25 0.8611112 0.25 1 0.02886897 0.3415955 0.01064944 0.25 0.06826233 0.25 0.125 0.6388888 0.125 0.5 0.1875 0.5 0.5807536 0.4192463 0.6214921 0.3785079 0.5820963 0.319548 0.1875 0.8611112 0.1875 1 0.125 1 0.08075362 0.4192464 0.02886897 0.3415955 0.08209627 0.319548 0.0625 0.6388888 0.0625 0.5 0.125 0.5 0.5807536 0.4192463 0.6584045 0.471131 0.6804522 0.4179038 0.125 0.8611111 0.125 1 0.0625 1 0.08075362 0.4192464 0.1214921 0.3785079 0.180452 0.4179038 0.0625 0.6388888 0 0.6388888 0.002221941 0.5 0.6584045 0.471131 0.75 0.4893506 0.7500001 0.4317377 0.0625 0.8611112 0.0625 1 0.002221941 1 0.1584045 0.471131 0.180452 0.4179038 0.25 0.4317377 0.6804522 0.4179038 0.7500001 0.4317377 0.8195481 0.4179038 0.8195481 0.4179038 0.878508 0.378508 0.9179039 0.319548 0.9179039 0.319548 0.9317377 0.25 0.917904 0.180452 0.917904 0.180452 0.878508 0.1214921 0.819548 0.08209627 0.819548 0.08209627 0.7500001 0.06826233 0.680452 0.08209627 0.680452 0.08209627 0.6214922 0.1214921 0.5820963 0.180452 0.5820963 0.180452 0.5682624 0.25 0.5820963 0.319548 0.5820963 0.319548 0.6214921 0.3785079 0.6804522 0.4179038 0.6804522 0.4179038 0.8195481 0.4179038 0.9179039 0.319548 0.9179039 0.319548 0.917904 0.180452 0.819548 0.08209627 0.819548 0.08209627 0.680452 0.08209627 0.5820963 0.180452 0.5820963 0.180452 0.5820963 0.319548 0.6804522 0.4179038 0.6804522 0.4179038 0.9179039 0.319548 0.819548 0.08209627 1 0.8611112 0.9374998 0.8611111 0.9375 0.6388888 0.0625 0.8611112 0 0.8611111 0 0.6388888 0.378508 0.378508 0.319548 0.4179038 0.25 0.4317377 0.25 0.4317377 0.180452 0.4179038 0.378508 0.378508 0.180452 0.4179038 0.1214921 0.3785079 0.378508 0.378508 0.1214921 0.3785079 0.08209627 0.319548 0.06826233 0.25 0.06826233 0.25 0.08209633 0.180452 0.1214921 0.3785079 0.08209633 0.180452 0.1214921 0.1214921 0.1214921 0.3785079 0.1214921 0.1214921 0.180452 0.08209627 0.25 0.06826233 0.25 0.06826233 0.319548 0.08209627 0.1214921 0.1214921 0.319548 0.08209627 0.3785079 0.121492 0.1214921 0.1214921 0.3785079 0.121492 0.4179037 0.180452 0.4317377 0.25 0.4317377 0.25 0.4179037 0.319548 0.3785079 0.121492 0.4179037 0.319548 0.378508 0.378508 0.3785079 0.121492 0.378508 0.378508 0.1214921 0.3785079 0.1214921 0.1214921 0.9374998 0.8611111 0.8749999 0.8611111 0.875 0.6388888 0.8749999 0.8611111 0.8125001 0.8611112 0.8125001 0.6388889 0.8125001 0.8611112 0.75 0.8611112 0.75 0.6388888 0.75 0.8611112 0.6875 0.8611111 0.6875 0.6388888 0.6875 0.8611111 0.625 0.8611111 0.625 0.6388888 0.625 0.8611111 0.5625 0.861111 0.5625 0.6388888 0.5625 0.861111 0.5 0.8611112 0.5 0.6388889 0.5 0.8611112 0.4375 0.861111 0.4375 0.6388888 0.4375 0.861111 0.375 0.8611111 0.375 0.6388888 0.375 0.8611111 0.3125 0.8611112 0.3125 0.6388889 0.3125 0.8611112 0.25 0.8611112 0.25 0.6388888 0.25 0.8611112 0.1875 0.8611112 0.1875 0.6388888 0.1875 0.8611112 0.125 0.8611111 0.125 0.6388888 0.125 0.8611111 0.0625 0.8611112 0.0625 0.6388888</float_array>
          <technique_common>
            <accessor source="#ericrolph_cannon_car_wash_cannonshape_Muzzle_mesh-mesh-map-0-array" count="564" stride="2">
              <param name="S" type="float"/>
              <param name="T" type="float"/>
            </accessor>
          </technique_common>
        </source>
        <vertices id="ericrolph_cannon_car_wash_cannonshape_Muzzle_mesh-mesh-vertices">
          <input semantic="POSITION" source="#ericrolph_cannon_car_wash_cannonshape_Muzzle_mesh-mesh-positions"/>
        </vertices>
        <triangles material="ericrolph_cannon_car_wash_hazard_yellow-material" count="188">
          <input semantic="VERTEX" source="#ericrolph_cannon_car_wash_cannonshape_Muzzle_mesh-mesh-vertices" offset="0"/>
          <input semantic="NORMAL" source="#ericrolph_cannon_car_wash_cannonshape_Muzzle_mesh-mesh-normals" offset="1"/>
          <input semantic="TEXCOORD" source="#ericrolph_cannon_car_wash_cannonshape_Muzzle_mesh-mesh-map-0" offset="2" set="0"/>
          <p>7 0 0 2 0 1 1 0 2 8 1 3 0 1 4 2 1 5 10 2 6 5 2 7 11 2 8 11 3 9 3 3 10 9 3 11 13 4 12 8 4 13 7 4 14 14 5 15 6 5 16 8 5 17 10 6 18 17 6 19 16 6 20 17 7 21 9 7 22 15 7 23 19 8 24 14 8 25 13 8 26 14 9 27 18 9 28 12 9 29 16 10 30 23 10 31 22 10 32 17 11 33 21 11 34 23 11 35 19 12 36 26 12 37 20 12 38 20 13 39 24 13 40 18 13 41 22 14 42 29 14 43 28 14 44 23 15 45 27 15 46 29 15 47 31 16 48 26 16 49 25 16 50 32 17 51 24 17 52 26 17 53 34 18 54 29 18 55 35 18 56 35 19 57 27 19 58 33 19 59 37 20 60 32 20 61 31 20 62 38 21 63 30 21 64 32 21 65 34 22 66 41 22 67 40 22 68 41 23 69 33 23 70 39 23 71 43 24 72 38 24 73 37 24 74 38 25 75 42 25 76 36 25 77 40 26 78 47 26 79 46 26 80 41 27 81 45 27 82 47 27 83 43 28 84 50 28 85 44 28 86 44 29 87 48 29 88 42 29 89 46 30 90 53 30 91 52 30 92 47 31 93 51 31 94 53 31 95 55 32 96 50 32 97 49 32 98 56 33 99 48 33 100 50 33 101 58 34 102 53 34 103 59 34 104 59 35 105 51 35 106 57 35 107 61 36 108 56 36 109 55 36 110 62 37 111 54 37 112 56 37 113 58 38 114 65 38 115 64 38 116 65 39 117 57 39 118 63 39 119 67 40 120 62 40 121 61 40 122 62 41 123 66 41 124 60 41 125 64 42 126 71 42 127 70 42 128 65 43 129 69 43 130 71 43 131 67 44 132 74 44 133 68 44 134 68 45 135 72 45 136 66 45 137 70 46 138 77 46 139 76 46 140 71 47 141 75 47 142 77 47 143 79 48 144 74 48 145 73 48 146 80 49 147 72 49 148 74 49 149 82 50 150 77 50 151 83 50 152 83 51 153 75 51 154 81 51 155 85 52 156 80 52 157 79 52 158 86 53 159 78 53 160 80 53 161 82 54 162 89 54 163 88 54 164 89 55 165 81 55 166 87 55 167 91 56 168 86 56 169 85 56 170 86 57 171 90 57 172 84 57 173 88 58 174 95 58 175 94 58 176 89 59 177 93 59 178 95 59 179 91 60 180 2 60 181 92 60 182 92 61 183 0 61 184 90 61 185 94 62 186 5 62 187 4 62 188 95 63 189 3 63 190 5 63 191 42 64 192 66 64 193 90 64 194 4 65 195 7 65 196 1 65 197 94 66 198 1 66 199 91 66 200 63 67 201 39 67 202 15 67 203 10 68 204 13 68 205 7 68 206 16 69 207 19 69 208 13 69 209 22 70 210 25 70 211 19 70 212 28 71 213 31 71 214 25 71 215 34 72 216 37 72 217 31 72 218 40 73 219 43 73 220 37 73 221 46 74 222 49 74 223 43 74 224 52 75 225 55 75 226 49 75 227 58 76 228 61 76 229 55 76 230 64 77 231 67 77 232 61 77 233 70 78 234 73 78 235 67 78 236 76 79 237 79 79 238 73 79 239 82 80 240 85 80 241 79 80 242 88 81 243 91 81 244 85 81 245 7 82 246 8 82 247 2 82 248 8 83 249 6 83 250 0 83 251 10 84 252 4 84 253 5 84 254 11 85 255 5 85 256 3 85 257 13 86 258 14 86 259 8 86 260 14 87 261 12 87 262 6 87 263 10 88 264 11 88 265 17 88 266 17 89 267 11 89 268 9 89 269 19 90 270 20 90 271 14 90 272 14 91 273 20 91 274 18 91 275 16 92 276 17 92 277 23 92 278 17 93 279 15 93 280 21 93 281 19 94 282 25 94 283 26 94 284 20 95 285 26 95 286 24 95 287 22 96 288 23 96 289 29 96 290 23 97 291 21 97 292 27 97 293 31 98 294 32 98 295 26 98 296 32 99 297 30 99 298 24 99 299 34 100 300 28 100 301 29 100 302 35 101 303 29 101 304 27 101 305 37 102 306 38 102 307 32 102 308 38 103 309 36 103 310 30 103 311 34 104 312 35 104 313 41 104 314 41 105 315 35 105 316 33 105 317 43 106 318 44 106 319 38 106 320 38 107 321 44 107 322 42 107 323 40 108 324 41 108 325 47 108 326 41 109 327 39 109 328 45 109 329 43 110 330 49 110 331 50 110 332 44 111 333 50 111 334 48 111 335 46 112 336 47 112 337 53 112 338 47 113 339 45 113 340 51 113 341 55 114 342 56 114 343 50 114 344 56 115 345 54 115 346 48 115 347 58 116 348 52 116 349 53 116 350 59 117 351 53 117 352 51 117 353 61 118 354 62 118 355 56 118 356 62 119 357 60 119 358 54 119 359 58 120 360 59 120 361 65 120 362 65 121 363 59 121 364 57 121 365 67 122 366 68 122 367 62 122 368 62 123 369 68 123 370 66 123 371 64 124 372 65 124 373 71 124 374 65 125 375 63 125 376 69 125 377 67 126 378 73 126 379 74 126 380 68 127 381 74 127 382 72 127 383 70 128 384 71 128 385 77 128 386 71 129 387 69 129 388 75 129 389 79 130 390 80 130 391 74 130 392 80 131 393 78 131 394 72 131 395 82 132 396 76 132 397 77 132 398 83 133 399 77 133 400 75 133 401 85 134 402 86 134 403 80 134 404 86 135 405 84 135 406 78 135 407 82 136 408 83 136 409 89 136 410 89 137 411 83 137 412 81 137 413 91 138 414 92 138 415 86 138 416 86 139 417 92 139 418 90 139 419 88 140 420 89 140 421 95 140 422 89 141 423 87 141 424 93 141 425 91 142 426 1 142 427 2 142 428 92 143 429 2 143 430 0 143 431 94 144 432 95 144 433 5 144 434 95 145 435 93 145 436 3 145 437 90 146 438 0 146 439 6 146 440 6 147 441 12 147 442 18 147 443 18 148 444 24 148 445 30 148 446 30 149 447 36 149 448 42 149 449 42 150 450 48 150 451 54 150 452 54 151 453 60 151 454 66 151 455 66 152 456 72 152 457 78 152 458 78 153 459 84 153 460 90 153 461 90 154 462 6 154 463 18 154 464 18 155 465 30 155 466 42 155 467 42 156 468 54 156 469 66 156 470 66 157 471 78 157 472 90 157 473 90 158 474 18 158 475 42 158 476 4 159 477 10 159 478 7 159 479 94 160 480 4 160 481 1 160 482 15 161 483 9 161 484 3 161 485 3 162 486 93 162 487 15 162 488 93 163 489 87 163 490 15 163 491 87 164 492 81 164 493 75 164 494 75 165 495 69 165 496 87 165 497 69 166 498 63 166 499 87 166 500 63 167 501 57 167 502 51 167 503 51 168 504 45 168 505 63 168 506 45 169 507 39 169 508 63 169 509 39 170 510 33 170 511 27 170 512 27 171 513 21 171 514 39 171 515 21 172 516 15 172 517 39 172 518 15 173 519 87 173 520 63 173 521 10 174 522 16 174 523 13 174 524 16 175 525 22 175 526 19 175 527 22 176 528 28 176 529 25 176 530 28 177 531 34 177 532 31 177 533 34 178 534 40 178 535 37 178 536 40 179 537 46 179 538 43 179 539 46 180 540 52 180 541 49 180 542 52 181 543 58 181 544 55 181 545 58 182 546 64 182 547 61 182 548 64 183 549 70 183 550 67 183 551 70 184 552 76 184 553 73 184 554 76 185 555 82 185 556 79 185 557 82 186 558 88 186 559 85 186 560 88 187 561 94 187 562 91 187 563</p>
        </triangles>
      </mesh>
    </geometry>
  </library_geometries>
  <library_visual_scenes>
    <visual_scene id="ericrolph_cannon_car_wash_scene" name="ericrolph_cannon_car_wash_scene">
      <node id="ericrolph_cannon_car_wash_cannonshape_Barrel" name="ericrolph_cannon_car_wash_cannonshape_Barrel" type="NODE">
        <matrix sid="transform">1 0 0 0 0 1 0 0 0 0 1 0.4 0 0 0 1</matrix>
        <instance_geometry url="#ericrolph_cannon_car_wash_cannonshape_Barrel_mesh-mesh" name="ericrolph_cannon_car_wash_cannonshape_Barrel">
          <bind_material>
            <technique_common>
              <instance_material symbol="ericrolph_cannon_car_wash_attract_cannon-material" target="#ericrolph_cannon_car_wash_attract_cannon-material">
                <bind_vertex_input semantic="UVMap" input_semantic="TEXCOORD" input_set="0"/>
              </instance_material>
            </technique_common>
          </bind_material>
        </instance_geometry>
      </node>
      <node id="ericrolph_cannon_car_wash_cannonshape_Breech" name="ericrolph_cannon_car_wash_cannonshape_Breech" type="NODE">
        <matrix sid="transform">1 0 0 0 0 1 0 0 0 0 1 0.03 0 0 0 1</matrix>
        <instance_geometry url="#ericrolph_cannon_car_wash_cannonshape_Breech_mesh-mesh" name="ericrolph_cannon_car_wash_cannonshape_Breech">
          <bind_material>
            <technique_common>
              <instance_material symbol="ericrolph_cannon_car_wash_attract_cannon-material" target="#ericrolph_cannon_car_wash_attract_cannon-material">
                <bind_vertex_input semantic="UVMap" input_semantic="TEXCOORD" input_set="0"/>
              </instance_material>
            </technique_common>
          </bind_material>
        </instance_geometry>
      </node>
      <node id="ericrolph_cannon_car_wash_cannonshape_Muzzle" name="ericrolph_cannon_car_wash_cannonshape_Muzzle" type="NODE">
        <matrix sid="transform">1 0 0 0 0 1 0 0 0 0 1 0.815 0 0 0 1</matrix>
        <instance_geometry url="#ericrolph_cannon_car_wash_cannonshape_Muzzle_mesh-mesh" name="ericrolph_cannon_car_wash_cannonshape_Muzzle">
          <bind_material>
            <technique_common>
              <instance_material symbol="ericrolph_cannon_car_wash_hazard_yellow-material" target="#ericrolph_cannon_car_wash_hazard_yellow-material">
                <bind_vertex_input semantic="UVMap" input_semantic="TEXCOORD" input_set="0"/>
              </instance_material>
            </technique_common>
          </bind_material>
        </instance_geometry>
      </node>
    </visual_scene>
  </library_visual_scenes>
  <scene>
    <instance_visual_scene url="#ericrolph_cannon_car_wash_scene"/>
  </scene>
</COLLADA>